<?xml version="1.0" encoding="UTF-8"?>
<svg width="78px" height="36px" viewBox="0 0 78 36" version="1.1" xmlns="http://www.w3.org/2000/svg" xmlns:xlink="http://www.w3.org/1999/xlink">
    <!-- Generator: Sketch 52.3 (67297) - http://www.bohemiancoding.com/sketch -->
    <title>AVI</title>
    <desc>Created with Sketch.</desc>
    <g id="AVI" stroke="none" stroke-width="1" fill="none" fill-rule="evenodd">
        <path d="M27.0712891,36 L24.4833984,27.5039063 L11.4707031,27.5039063 L8.8828125,36 L0.728515625,36 L13.3261719,0.16015625 L22.5791016,0.16015625 L35.2255859,36 L27.0712891,36 Z M22.6767578,21.15625 C20.2841677,13.4576438 18.9373387,9.10384619 18.6362305,8.09472656 C18.3351222,7.08560693 18.1194668,6.28808887 17.9892578,5.70214844 C17.4521458,7.78549219 15.9140752,12.9368079 13.375,21.15625 L22.6767578,21.15625 Z M58.0771484,0.306640625 L65.71875,0.306640625 L53.5849609,36 L45.3330078,36 L33.2236328,0.306640625 L40.8652344,0.306640625 L47.5791016,21.546875 C47.9534524,22.8001365 48.3400045,24.2608966 48.7387695,25.9291992 C49.1375345,27.5975018 49.3857417,28.7571582 49.4833984,29.4082031 C49.6624358,27.9107998 50.2727812,25.2903833 51.3144531,21.546875 L58.0771484,0.306640625 Z M70.2109375,36 L70.2109375,0.306640625 L77.7792969,0.306640625 L77.7792969,36 L70.2109375,36 Z" fill="#CCC"></path>
    </g>
</svg>