<?xml version="1.0" encoding="UTF-8"?>
<svg width="25px" height="25px" viewBox="0 0 25 25" version="1.1" xmlns="http://www.w3.org/2000/svg" xmlns:xlink="http://www.w3.org/1999/xlink">
    <!-- Generator: sketchtool 52.3 (67297) - http://www.bohemiancoding.com/sketch -->
    <title>98EFA210-BC95-48FE-9A45-7D334836FC7C</title>
    <desc>Created with sketchtool.</desc>
    <g id="AVI-Admin-Panel" stroke="none" stroke-width="1" fill="none" fill-rule="evenodd">
        <g id="ADMIN-CUSTOMERS-EDIT" transform="translate(-1184.000000, -349.000000)" fill="#EF7622">
            <g id="DATOS" transform="translate(697.000000, 339.000000)">
                <g id="Cerrar" transform="translate(487.000000, 10.000000)">
                    <path d="M13.7626907,12.5 L16.07594,14.8132493 C16.1930973,14.9304066 16.1930973,15.1203561 16.07594,15.2375134 L15.2375134,16.07594 C15.1203561,16.1930973 14.9304066,16.1930973 14.8132493,16.07594 L12.5,13.7626907 L10.1867507,16.07594 C10.0695934,16.1930973 9.87964389,16.1930973 9.7624866,16.07594 L8.92405999,15.2375134 C8.8069027,15.1203561 8.8069027,14.9304066 8.92405999,14.8132493 L11.2373093,12.5 L8.92405999,10.1867507 C8.8069027,10.0695934 8.8069027,9.87964389 8.92405999,9.7624866 L9.7624866,8.92405999 C9.87964389,8.8069027 10.0695934,8.8069027 10.1867507,8.92405999 L12.5,11.2373093 L14.8132493,8.92405999 C14.9304066,8.8069027 15.1203561,8.8069027 15.2375134,8.92405999 L16.07594,9.7624866 C16.1930973,9.87964389 16.1930973,10.0695934 16.07594,10.1867507 L13.7626907,12.5 Z M12.5,24.1071429 C6.08955201,24.1071429 0.892857143,18.910448 0.892857143,12.5 C0.892857143,6.08955201 6.08955201,0.892857143 12.5,0.892857143 C18.910448,0.892857143 24.1071429,6.08955201 24.1071429,12.5 C24.1071429,18.910448 18.910448,24.1071429 12.5,24.1071429 Z M12.5,22.3214286 C17.9242252,22.3214286 22.3214286,17.9242252 22.3214286,12.5 C22.3214286,7.07577478 17.9242252,2.67857143 12.5,2.67857143 C7.07577478,2.67857143 2.67857143,7.07577478 2.67857143,12.5 C2.67857143,17.9242252 7.07577478,22.3214286 12.5,22.3214286 Z" id="Combined-Shape"></path>
                </g>
            </g>
        </g>
    </g>
</svg>