<?xml version="1.0" encoding="UTF-8"?>
<svg width="190px" height="24px" viewBox="0 0 190 24" version="1.1" xmlns="http://www.w3.org/2000/svg" xmlns:xlink="http://www.w3.org/1999/xlink">
    <!-- Generator: Sketch 52.3 (67297) - http://www.bohemiancoding.com/sketch -->
    <title>cv_logo</title>
    <desc>Created with Sketch.</desc>
    <g id="WEB-CentricView-3.0---VSAT-WebApp-Version" stroke="none" stroke-width="1" fill="none" fill-rule="evenodd">
        <g id="CV-LOGO" fill="#636569">
            <g id="®CentricView">
                <path d="M16.2571702,8.25090909 C15.9374761,5.97090909 13.7577438,4.25090909 11.2546845,4.25090909 C6.73537285,4.25090909 5.03518164,8.10181818 5.03518164,12.1163636 C5.03518164,15.9345455 6.73537285,19.7890909 11.2546845,19.7890909 C14.3353728,19.7890909 16.0646272,17.6690909 16.4497132,14.6509091 L21.3250478,14.6509091 C20.8128107,20.3636364 16.8674952,24 11.2619503,24 C4.17055449,24 -1.0658141e-14,18.7127273 -1.0658141e-14,12.1018182 C-1.0658141e-14,5.29454545 4.17055449,0 11.2619503,0 C16.2898662,0 20.5221797,2.95272727 21.1325048,8.25090909 L16.2571702,8.25090909 Z M28.0277247,16.2727273 C28.1548757,19.1818182 29.5680688,20.48 32.1001912,20.48 C33.9166348,20.48 35.4024857,19.3563636 35.6931166,18.3272727 L39.6892925,18.3272727 C38.4068834,22.2436364 35.6931166,23.9127273 31.9294455,23.9127273 C26.7017208,23.9127273 23.4648184,20.32 23.4648184,15.1854545 C23.4648184,10.2109091 26.8942639,6.42181818 31.9294455,6.42181818 C37.5749522,6.42181818 40.285086,11.1745455 39.9799235,16.2763636 L28.0277247,16.2727273 Z M35.4351816,13.3854545 C35.0173996,11.0727273 34.0256214,9.85454545 31.8022945,9.85454545 C28.9141491,9.85454545 28.082218,12.1018182 28.016826,13.3854545 L35.4351816,13.3854545 Z M42.6827916,6.86909091 L47.0131931,6.86909091 L47.0131931,9.18181818 L47.1076482,9.18181818 C48.2066985,7.43711934 50.1332801,6.39025992 52.1936902,6.41818182 C57.0363289,6.41818182 58.2533461,9.14909091 58.2533461,13.2581818 L58.2533461,23.4654545 L53.683174,23.4654545 L53.683174,14.0909091 C53.683174,11.3636364 52.8803059,10.0145455 50.7768642,10.0145455 C48.306501,10.0145455 47.2493308,11.3963636 47.2493308,14.7636364 L47.2493308,23.4654545 L42.6827916,23.4654545 L42.6827916,6.86909091 Z M67.4736138,6.86909091 L70.8086042,6.86909091 L70.8086042,9.92 L67.4736138,9.92 L67.4736138,18.1345455 C67.4736138,19.6763636 67.8550669,20.0618182 69.3954111,20.0618182 C69.8695263,20.0664033 70.3429213,20.0237692 70.8086042,19.9345455 L70.8086042,23.4945455 C69.9265571,23.6181883 69.036231,23.6728991 68.1456979,23.6581818 C65.3556405,23.6581818 62.9179732,23.0145455 62.9179732,19.7090909 L62.9179732,9.92 L60.1606119,9.92 L60.1606119,6.86909091 L62.9179732,6.86909091 L62.9179732,1.89454545 L67.4736138,1.89454545 L67.4736138,6.86909091 Z M72.9883365,6.86909091 L77.3151052,6.86909091 L77.3151052,9.94909091 L77.3804971,9.94909091 C78.2998216,7.83445016 80.3699062,6.45354718 82.6736138,6.41818182 C83.0105918,6.42197851 83.3450239,6.47715743 83.665392,6.58181818 L83.665392,10.8181818 C83.1272085,10.7100392 82.5795107,10.6564353 82.0305927,10.6581818 C78.6956023,10.6581818 77.5403442,13.0654545 77.5403442,15.9854545 L77.5403442,23.4654545 L72.9883365,23.4654545 L72.9883365,6.86909091 Z M90.1428298,4.30181818 L85.5908222,4.30181818 L85.5908222,0.545454545 L90.1428298,0.545454545 L90.1428298,4.30181818 Z M85.5908222,6.86909091 L90.1428298,6.86909091 L90.1428298,23.4654545 L85.5908222,23.4654545 L85.5908222,6.86909091 Z M105.023136,12.7272727 C104.736138,10.8654545 103.548184,9.86909091 101.655449,9.86909091 C98.7491396,9.86909091 97.7755258,12.8218182 97.7755258,15.2618182 C97.7755258,17.6363636 98.7055449,20.4945455 101.560994,20.4945455 C103.675335,20.4945455 104.895985,19.1454545 105.193881,17.1236364 L109.589675,17.1236364 C109.012046,21.52 105.956788,23.9272727 101.597323,23.9272727 C96.5948375,23.9272727 93.2416826,20.3963636 93.2416826,15.4218182 C93.2416826,10.2545455 96.318738,6.43272727 101.70631,6.43272727 C105.618929,6.43272727 109.211855,8.48727273 109.498853,12.7272727 L105.023136,12.7272727 Z M110.185468,0.545454545 L112.528681,0.545454545 L119.968834,21.0581818 L120.030593,21.0581818 L127.408987,0.545454545 L129.71587,0.545454545 L121.218547,23.4545455 L118.675526,23.4545455 L110.185468,0.545454545 Z M131.383365,0.545454545 L133.40325,0.545454545 L133.40325,3.78909091 L131.383365,3.78909091 L131.383365,0.545454545 Z M131.383365,6.90181818 L133.40325,6.90181818 L133.40325,23.4654545 L131.383365,23.4654545 L131.383365,6.90181818 Z M138.471128,15.7272727 C138.503824,18.68 140.044168,22.2436364 143.920459,22.2436364 C146.870363,22.2436364 148.472467,20.5127273 149.115488,18.0072727 L151.128107,18.0072727 C150.259847,21.7636364 148.080115,23.9454545 143.913193,23.9454545 C138.652772,23.9454545 136.440344,19.9018182 136.440344,15.1818182 C136.440344,10.8181818 138.652772,6.41818182 143.913193,6.41818182 C149.235373,6.41818182 151.353346,11.0727273 151.178967,15.7272727 L138.471128,15.7272727 Z M149.18088,14.0254545 C149.086424,10.9781818 147.19369,8.12 143.924092,8.12 C140.654493,8.12 138.790822,11.0290909 138.474761,14.0254545 L149.18088,14.0254545 Z M152.261568,6.90909091 L154.397706,6.90909091 L158.630019,21.0909091 L158.695411,21.0909091 L162.753346,6.90909091 L165.031166,6.90909091 L169.070937,21.0909091 L169.136329,21.0909091 L173.361377,6.90909091 L175.508413,6.90909091 L170.186233,23.4654545 L167.973805,23.4654545 L163.901338,9.53454545 L163.843212,9.53454545 L159.796176,23.4654545 L157.583748,23.4654545 L152.261568,6.90909091 Z M189.883748,5.88727273 C189.883748,8.96600917 187.390325,11.4618182 184.314532,11.4618182 C181.238738,11.4618182 178.745315,8.96600917 178.745315,5.88727273 C178.745315,2.80853629 181.238738,0.312727273 184.314532,0.312727273 C187.390325,0.312727273 189.883748,2.80853629 189.883748,5.88727273 Z M179.613576,5.88727273 C179.613576,8.48602351 181.718265,10.5927273 184.314532,10.5927273 C186.910798,10.5927273 189.015488,8.48602351 189.015488,5.88727273 C189.015488,3.28852194 186.910798,1.18181818 184.314532,1.18181818 C181.718265,1.18181818 179.613576,3.28852194 179.613576,5.88727273 Z M183.097514,9.10909091 L182.305545,9.10909091 L182.305545,2.66545455 L184.775908,2.66545455 C186.229063,2.66545455 186.868451,3.29454545 186.868451,4.44727273 C186.868451,5.6 186.120076,6.09818182 185.251816,6.24727273 L187.169981,9.10909091 L186.239962,9.10909091 L184.423518,6.24727273 L183.097514,6.24727273 L183.097514,9.10909091 Z M184.147419,5.57090909 C185.1174,5.57090909 186.076482,5.54181818 186.076482,4.44727273 C186.076482,3.54909091 185.328107,3.35636364 184.550669,3.35636364 L183.097514,3.35636364 L183.097514,5.58545455 L184.147419,5.57090909 Z" id="Combined-Shape"></path>
            </g>
        </g>
    </g>
</svg>