<?xml version="1.0" encoding="UTF-8"?>
<svg width="21px" height="20px" viewBox="0 0 21 20" version="1.1" xmlns="http://www.w3.org/2000/svg" xmlns:xlink="http://www.w3.org/1999/xlink">
    <!-- Generator: Sketch 52.3 (67297) - http://www.bohemiancoding.com/sketch -->
    <title>dowload_document</title>
    <desc>Created with Sketch.</desc>
    <g id="Page-1" stroke="none" stroke-width="1" fill="none" fill-rule="evenodd">
        <g id="dowload_document" fill="#EF7622">
            <path d="M8.54425532,17.9612693 L18.5794687,17.9612693 C19.1317535,17.9612693 19.5794687,17.513554 19.5794687,16.9612693 L19.5794687,2.31790339 C19.5794687,1.76561864 19.1317535,1.31790339 18.5794687,1.31790339 L7.20018416,1.31790339 C6.64789941,1.31790339 6.20018416,1.76561864 6.20018416,2.31790339 L6.20018416,9.2001774 C8.478122,9.70953443 10.1813237,11.7542122 10.1813237,14.1990576 C10.1813237,15.6864381 9.55093477,17.0257106 8.54425532,17.9612693 Z M4.826543,9.08496881 L4.826543,2 C4.826543,0.8954305 5.7219735,-2.30668986e-14 6.826543,-4.48530102e-14 L19,-7.10542736e-15 C20.1045695,-7.30833348e-15 21,0.8954305 21,2 L21,17.32 C21,18.4245695 20.1045695,19.32 19,19.32 L4.826543,19.32 C4.83543393,19.3181565 4.84431329,19.3163053 4.85318109,19.3144463 C2.15193431,19.1896676 0,16.9471582 0,14.1990576 C0,11.4599929 2.1378007,9.22320555 4.826543,9.08496881 Z M4.14401579,15.049613 L2.50704777,13.412645 C2.42894291,13.3345402 2.42894291,13.2079072 2.50704777,13.1298023 L3.17123489,12.4656152 C3.24933975,12.3875103 3.37597275,12.3875103 3.45407761,12.4656152 L5.09104563,14.1025832 L6.72801365,12.4656152 C6.80611851,12.3875103 6.9327515,12.3875103 7.01085636,12.4656152 L7.67504349,13.1298023 C7.75314835,13.2079072 7.75314835,13.3345402 7.67504349,13.412645 L6.03807547,15.049613 L6.04143258,15.0529702 L5.2358241,15.8585786 C5.22525639,15.8691464 5.21380029,15.8782842 5.20169621,15.8859923 L5.15839919,15.9292893 C5.11934676,15.9683418 5.05603026,15.9683418 5.01697783,15.9292893 L4.14065867,15.0529702 L4.14401579,15.049613 Z M2.36993153,11.4969852 C1.65990025,12.2112257 1.26887071,13.1608593 1.26887071,14.1709522 C1.26887071,15.1810421 1.65990025,16.1306749 2.36993153,16.8449194 C3.07995975,17.5591628 4.02399285,17.952512 5.02812874,17.952512 C6.03226161,17.952512 6.97629394,17.5591628 7.68632608,16.8449194 C8.39635726,16.1306749 8.78738671,15.1810421 8.78738671,14.1709522 C8.78738671,13.1608593 8.39635726,12.2112257 7.68632608,11.4969852 C6.97629394,10.7827417 6.03226161,10.3893924 5.02812874,10.3893924 C4.02399285,10.3893924 3.07995975,10.7827417 2.36993153,11.4969852 Z M9.44,3.36 L16.6,3.36 C16.7104569,3.36 16.8,3.44954305 16.8,3.56 L16.8,4.588 C16.8,4.69845695 16.7104569,4.788 16.6,4.788 L9.44,4.788 C9.32954305,4.788 9.24,4.69845695 9.24,4.588 L9.24,3.56 C9.24,3.44954305 9.32954305,3.36 9.44,3.36 Z M9.44,6.72 L16.6,6.72 C16.7104569,6.72 16.8,6.80954305 16.8,6.92 L16.8,7.948 C16.8,8.05845695 16.7104569,8.148 16.6,8.148 L9.44,8.148 C9.32954305,8.148 9.24,8.05845695 9.24,7.948 L9.24,6.92 C9.24,6.80954305 9.32954305,6.72 9.44,6.72 Z" id="Combined-Shape"></path>
        </g>
    </g>
</svg>