<?xml version="1.0" encoding="UTF-8"?>
<svg width="18px" height="18px" viewBox="0 0 18 18" version="1.1" xmlns="http://www.w3.org/2000/svg" xmlns:xlink="http://www.w3.org/1999/xlink">
    <!-- Generator: Sketch 55 (78076) - https://sketchapp.com -->
    <title>end</title>
    <desc>Created with Sketch.</desc>
    <g id="WEB-CentricView-3.0---VSAT-WebApp-Version" stroke="none" stroke-width="1" fill="none" fill-rule="evenodd">
        <g id="end" fill="#636569">
            <path d="M8.62459895,9.80455581 C8.54839098,9.76810575 8.47696887,9.71831431 8.41383603,9.65518148 L5.04093669,6.28228213 C4.7421856,5.98353105 4.7421856,5.49915984 5.04093669,5.20040875 C5.33968777,4.90165767 5.82405898,4.90165767 6.12281006,5.20040875 L8.21443359,7.29203229 L8.21443359,5.265 C8.21443359,4.84250217 8.55693576,4.5 8.97943359,4.5 C9.40193143,4.5 9.74443359,4.84250217 9.74443359,5.265 L9.74443359,9.12665039 C9.74443359,9.54914822 9.40193143,9.89165039 8.97943359,9.89165039 C8.85136864,9.89165039 8.73065354,9.86018197 8.62459895,9.80455581 Z M9.00000015,1.44 C4.83140089,1.44 1.44,4.83140096 1.44,9.00000015 C1.44,13.168599 4.83140089,16.56 9.00000015,16.56 C13.168599,16.56 16.56,13.168599 16.56,9.00000015 C16.56,4.83140096 13.168599,1.44 9.00000015,1.44 Z M9,0 C13.970565,0 18,4.02943468 18,9 C18,13.970565 13.970565,18 9,18 C4.0294347,18 0,13.970565 0,9 C0,4.02943468 4.0294347,0 9,0 Z" id="Combined-Shape"></path>
        </g>
    </g>
</svg>