<?xml version="1.0" encoding="UTF-8"?>
<svg width="30px" height="30px" viewBox="0 0 30 30" version="1.1" xmlns="http://www.w3.org/2000/svg" xmlns:xlink="http://www.w3.org/1999/xlink">
    <!-- Generator: Sketch 52.3 (67297) - http://www.bohemiancoding.com/sketch -->
    <title>icon-geographicposition</title>
    <desc>Created with Sketch.</desc>
    <g id="WEB-CentricView-3.0---VSAT-WebApp-Version" stroke="none" stroke-width="1" fill="none" fill-rule="evenodd">
        <g id="position" fill="#646569">
            <g id="navigation">
                <path d="M15,0 C23.2587433,0 30,6.74057004 30,15 C30,23.2587433 23.25943,30 15,30 C6.7412567,30 0,23.25943 0,15 C0,6.7412567 6.74057004,0 15,0 Z M28.212204,14.1210938 C27.7773285,7.51831055 22.4816895,2.22267152 15.8789063,1.78779604 L15.8789063,3.60763547 C21.4798737,4.0358734 25.9641266,8.52012633 26.3923645,14.1210938 L28.212204,14.1210938 Z M15,24.6679688 C20.3308869,24.6679688 24.6679688,20.3308869 24.6679688,15 C24.6679688,9.66911314 20.3308869,5.33203125 15,5.33203125 C9.66911314,5.33203125 5.33203125,9.66911314 5.33203125,15 C5.33203125,20.3308869 9.66911314,24.6679688 15,24.6679688 Z M14.1210938,1.78779604 C7.51831055,2.22267152 2.22267152,7.51831055 1.78779604,14.1210938 L3.60763547,14.1210938 C4.0358734,8.52012633 8.52012633,4.0358734 14.1210938,3.60763547 L14.1210938,1.78779604 Z M1.78779604,15.8789062 C2.22267152,22.4816895 7.51831055,27.7773285 14.1210938,28.2124329 L14.1210938,26.3923645 C8.52012633,25.9641266 4.0358734,21.4798737 3.60763547,15.8789062 L1.78779604,15.8789062 Z M15.8789063,28.212204 C22.4816895,27.7773285 27.7773285,22.4812317 28.212204,15.8782196 L26.3923645,15.8782196 C25.9641266,21.479187 21.4798737,25.9641266 15.8789063,26.3923645 L15.8789063,28.212204 Z M15.5576625,7.7941239 L20.7357847,20.0554726 C20.8797032,20.3964755 20.7994715,20.792583 20.5345253,21.0478164 C20.2722989,21.300283 19.8797525,21.3646102 19.549533,21.1981436 L14.7580645,18.7816112 L9.96659602,21.1981436 C9.63977618,21.3629962 9.24632321,21.3030498 8.9816037,21.0478164 C8.71665756,20.792583 8.63642581,20.3964755 8.78034434,20.0554726 L13.9584665,7.7941239 C14.0958125,7.46879927 14.4101669,7.25806452 14.7580645,7.25806452 C15.1059622,7.25806452 15.4203166,7.46879927 15.5576625,7.7941239 Z M15.1447182,17.0002802 L18.2023645,18.5422866 L14.7580645,10.386576 L11.3137645,18.5422866 L14.3714109,17.0002802 C14.493345,16.9387198 14.6257048,16.9080549 14.7580645,16.9080549 C14.8904243,16.9080549 15.022784,16.9387198 15.1447182,17.0002802 Z" id="Combined-Shape" fill-rule="nonzero"></path>
            </g>
        </g>
    </g>
</svg>