<?xml version="1.0" encoding="UTF-8"?>
<svg width="19px" height="18px" viewBox="0 0 19 18" version="1.1" xmlns="http://www.w3.org/2000/svg" xmlns:xlink="http://www.w3.org/1999/xlink">
    <!-- Generator: Sketch 52.3 (67297) - http://www.bohemiancoding.com/sketch -->
    <title>camera_bco</title>
    <desc>Created with Sketch.</desc>
    <g id="AVI-Customer" stroke="none" stroke-width="1" fill="none" fill-rule="evenodd">
        <g id="camera_bco" fill="#FFFFFF">
            <g id="camera">
                <path d="M19,0.5765625 L5.1953125,0.5765625 C3.96751402,0.5765625 2.96875,1.57006987 2.96875,2.79140625 L2.96875,6.778125 C2.96875,7.99946138 3.96751402,8.99296875 5.1953125,8.99296875 L7.31272126,8.99296875 C7.31127166,9.00508118 7.31054688,9.01733779 7.31054688,9.02988281 C7.31054688,9.56095506 7.59263609,10.0264183 8.015625,10.2865471 L8.015625,13.1273437 C8.015625,13.5344078 7.68265534,13.865625 7.2734375,13.865625 L1.484375,13.865625 L1.484375,8.55 L0,8.55 L0,18 L1.484375,18 L1.484375,15.3421875 L7.2734375,15.3421875 C8.50123598,15.3421875 9.5,14.3486801 9.5,13.1273437 L9.5,10.3295174 C9.96401214,10.0797707 10.2792969,9.59152451 10.2792969,9.02988281 C10.2792969,9.01733779 10.2785721,9.00508118 10.2771225,8.99296875 L13.1199036,8.99296875 L14.4404754,7.36875 L19,7.36875 L19,2.9390625 L18.0418244,2.9390625 L19,1.76055222 L19,0.5765625 Z M12.4113464,7.51640625 L5.1953125,7.51640625 C4.78609466,7.51640625 4.453125,7.18518907 4.453125,6.778125 L4.453125,2.79140625 C4.453125,2.38434218 4.78609466,2.053125 5.1953125,2.053125 L16.8531647,2.053125 L12.4113464,7.51640625 Z M17.515625,4.415625 L17.515625,5.8921875 L15.6408768,5.8921875 L16.841423,4.415625 L17.515625,4.415625 Z M10.390625,4.26796875 C10.390625,4.67575378 10.0583801,5.00625 9.6484375,5.00625 C9.23849487,5.00625 8.90625,4.67575378 8.90625,4.26796875 C8.90625,3.86018372 9.23849487,3.5296875 9.6484375,3.5296875 C10.0583801,3.5296875 10.390625,3.86018372 10.390625,4.26796875 Z M7.421875,4.26796875 C7.421875,4.67575378 7.08963013,5.00625 6.6796875,5.00625 C6.26974487,5.00625 5.9375,4.67575378 5.9375,4.26796875 C5.9375,3.86018372 6.26974487,3.5296875 6.6796875,3.5296875 C7.08963013,3.5296875 7.421875,3.86018372 7.421875,4.26796875 Z" id="Shape" fill-rule="nonzero"></path>
            </g>
        </g>
    </g>
</svg>