<?xml version="1.0" encoding="UTF-8"?>
<svg width="15px" height="17px" viewBox="0 0 15 17" version="1.1" xmlns="http://www.w3.org/2000/svg" xmlns:xlink="http://www.w3.org/1999/xlink">
    <!-- Generator: Sketch 52.3 (67297) - http://www.bohemiancoding.com/sketch -->
    <title>icon-truck</title>
    <desc>Created with Sketch.</desc>
    <g id="WEB-CentricView-3.0---VSAT-WebApp-Version" stroke="none" stroke-width="1" fill="none" fill-rule="evenodd">
        <g id="truck-lineal">
            <path d="M7.50249608,1.3323838 L9.50003922,1.3323838 L10.5626738,2.4174298 L10.5626738,0.74427881 L13.1562722,4.4408921e-14 L13.1562722,9.63550882 L14.3227023,10.2927685 L14.3227023,13.2337049 L15,13.4905201 L15,15.513869 L13.6757812,15.7987347 L13.6757812,17 L10.5010753,17 L10.5010753,15.8370813 L7.50249608,15.8370813 L4.49892467,15.8370813 L4.49892467,17 L1.32421877,17 L1.32421877,15.7987347 L7.81597009e-14,15.513869 L7.81597009e-14,13.4905201 L0.677297639,13.2337049 L0.677297639,10.2927685 L1.84372782,9.63550882 L1.84372782,4.4408921e-14 L4.43732619,0.74427881 L4.43732619,2.4174298 L5.49996077,1.3323838 L7.50249608,1.3323838 Z M7.50249608,2.17285801 L5.88626732,2.17285801 L4.43732619,3.57644126 L3.5591801,3.57644126 L3.5591801,1.36821049 L2.76327766,1.14037904 L2.76327766,10.1457284 L1.59527598,10.779689 L1.59527598,13.8003308 L0.848953388,14.0894389 L0.848953388,14.8192937 L2.1895479,15.0746495 L2.1895479,16.1633058 L3.65523349,16.1633058 L3.65523349,14.9979223 L7.50249608,14.9979223 L11.3447665,14.9979223 L11.3447665,16.1633058 L12.8104521,16.1633058 L12.8104521,15.0746495 L14.1510465,14.8192937 L14.1510465,14.0894389 L13.404724,13.8003308 L13.404724,10.779689 L12.2367223,10.1457284 L12.2367223,1.14037904 L11.4408199,1.36821049 L11.4408199,3.57644126 L10.5626738,3.57644126 L9.11373265,2.17285801 L7.50249608,2.17285801 Z M2.85714286,12.24 L4.85714286,12.24 L4.85714286,13.124 L2.85714286,13.124 L2.85714286,12.24 Z M10.1417178,12.24 L12.1417178,12.24 L12.1417178,13.124 L10.1417178,13.124 L10.1417178,12.24 Z M5.71428571,9.52 L9.28571429,9.52 L9.28571429,12.92 L5.71428571,12.92 L5.71428571,9.52 Z M6.42857143,10.2 L6.42857143,12.24 L8.57142857,12.24 L8.57142857,10.2 L6.42857143,10.2 Z M4.28571429,4.76 L10.7142857,4.76 L10.7142857,8.16 L4.28571429,8.16 L4.28571429,4.76 Z M5.23809524,5.62832813 L5.23809524,7.34028125 L9.85928199,7.34028125 L9.85928199,5.62832813 L5.23809524,5.62832813 Z" id="Combined-Shape" fill="#EF7622" fill-rule="nonzero"></path>
            <g id="Combined-Shape" stroke-width="1" fill-rule="evenodd" transform="translate(-14.285714, 8.160000)"></g>
        </g>
    </g>
</svg>