<?xml version="1.0" encoding="UTF-8"?>
<svg width="97px" height="91px" viewBox="0 0 97 91" version="1.1" xmlns="http://www.w3.org/2000/svg" xmlns:xlink="http://www.w3.org/1999/xlink">
    <!-- Generator: sketchtool 52.3 (67297) - http://www.bohemiancoding.com/sketch -->
    <title>426B2EA3-0BEE-43FD-9A84-3693E64A0AAB</title>
    <desc>Created with sketchtool.</desc>
    <g id="AVI" stroke="none" stroke-width="1" fill="none" fill-rule="evenodd">
        <g id="CANCEL-ADD-CAMERA" transform="translate(-911.000000, -447.000000)" fill="#FFB400">
            <g id="DATOS" transform="translate(697.000000, 381.000000)">
                <g id="warning" transform="translate(213.000000, 65.000000)">
                    <path d="M53.9035771,3.66585352 L97.426172,84.6326605 C98.7336175,87.0649532 97.8217487,90.0966099 95.3894561,91.4040554 C94.6617024,91.7952494 93.8483479,92 93.0221166,92 L5.97692681,92 C3.21550306,92 0.976926806,89.7614237 0.976926806,87 C0.976926806,86.1737687 1.18167741,85.3604142 1.57287142,84.6326605 L45.0954663,3.66585352 C46.4029118,1.2335609 49.4345686,0.321692125 51.8668612,1.62913761 C52.730851,2.09356345 53.4391513,2.80186375 53.9035771,3.66585352 Z M50.8579353,9.13634292 C50.7661774,8.96177717 50.624852,8.81823992 50.4517321,8.72378247 C49.9669172,8.45925844 49.3594579,8.63783946 49.0949339,9.12265435 L7.42553427,85.4935793 C7.34537414,85.6404954 7.30336929,85.8051806 7.30336929,85.9725424 C7.30336929,86.5248272 7.75108454,86.9725424 8.30336929,86.9725424 L90.1160108,86.9725424 C90.2781174,86.9725424 90.437794,86.933133 90.5812853,86.8577089 C91.0701492,86.6007448 91.2581412,85.9961318 91.0011772,85.5072679 L50.8579353,9.13634292 Z M47.4902143,28.6540348 L51.4771599,28.6540348 C52.0294447,28.6540348 52.4771599,29.10175 52.4771599,29.6540348 L52.4771599,65.8627122 C52.4771599,66.414997 52.0294447,66.8627122 51.4771599,66.8627122 L47.4902143,66.8627122 C46.9379295,66.8627122 46.4902143,66.414997 46.4902143,65.8627122 L46.4902143,29.6540348 C46.4902143,29.10175 46.9379295,28.6540348 47.4902143,28.6540348 Z M47.5161181,70.8846783 L51.4408621,70.8846783 C51.9931469,70.8846783 52.4408621,71.3323935 52.4408621,71.8846783 L52.4408621,75.9176273 C52.4408621,76.4699121 51.9931469,76.9176273 51.4408621,76.9176273 L47.5161181,76.9176273 C46.9638333,76.9176273 46.5161181,76.4699121 46.5161181,75.9176273 L46.5161181,71.8846783 C46.5161181,71.3323935 46.9638333,70.8846783 47.5161181,70.8846783 Z" id="Combined-Shape"></path>
                </g>
            </g>
        </g>
    </g>
</svg>