<?xml version="1.0" encoding="UTF-8"?>
<svg width="22px" height="18px" viewBox="0 0 22 18" version="1.1" xmlns="http://www.w3.org/2000/svg" xmlns:xlink="http://www.w3.org/1999/xlink">
    <!-- Generator: Sketch 52.3 (67297) - http://www.bohemiancoding.com/sketch -->
    <title>icon-msessaje-events</title>
    <desc>Created with Sketch.</desc>
    <g id="WEB-CentricView-3.0---VSAT-WebApp-Version" stroke="none" stroke-width="1" fill="none" fill-rule="evenodd">
        <g id="msessaje" fill="#EF7622">
            <path d="M1.47656133,14.8773043 L3.87005282,14.8773043 L3.87005282,17.2616074 C3.87005282,17.5441946 4.03324434,17.7914554 4.28709987,17.915088 C4.39589471,17.9680706 4.50468955,17.9857303 4.61348439,17.9857303 C4.77667837,17.9857303 4.93987155,17.9327477 5.06679888,17.8444389 L9.05595134,14.8949623 L21.0596742,14.8949623 C21.4767247,14.8949623 21.8031062,14.5770523 21.8031062,14.170836 L21.8031062,1.29557563 C21.8031062,0.889359429 21.4767212,0.571452343 21.0596742,0.571452343 L1.47656133,0.571452343 C1.05951305,0.571452343 0.733128088,0.889359429 0.733128088,1.29557563 L0.733128088,14.1531763 C0.733128088,14.5593943 1.07764598,14.8772983 1.47656133,14.8772983 L1.47656133,14.8773043 Z M2.21999246,2.01969891 L20.2981073,2.01969891 L20.2981073,13.4290526 L8.80209493,13.4290526 C8.63890262,13.4290526 8.47571041,13.482042 8.34878053,13.5703466 L5.35691763,15.7956977 L5.35691763,14.1531763 C5.35691763,13.74696 5.03053135,13.4290526 4.61348439,13.4290526 L2.21999246,13.4290526 L2.21999246,2.01969891 Z" id="Fill-60"></path>
        </g>
    </g>
</svg>