<?xml version="1.0" encoding="UTF-8"?>
<svg width="40px" height="40px" viewBox="0 0 40 40" version="1.1" xmlns="http://www.w3.org/2000/svg" xmlns:xlink="http://www.w3.org/1999/xlink">
    <!-- Generator: Sketch 52.3 (67297) - http://www.bohemiancoding.com/sketch -->
    <title>icon-expandir-maps</title>
    <desc>Created with Sketch.</desc>
    <g id="WEB-CentricView-3.0---VSAT-WebApp-Version" stroke="none" stroke-width="1" fill="none" fill-rule="evenodd">
        <g id="pantalla_completa">
            <circle id="Oval-Copy-3" stroke="#EF7622" stroke-width="1" fill="#FFFFFF" cx="20" cy="20" r="19.5"></circle>
            <path d="M12.4984363,15.8583289 C12.4984363,15.9687858 12.4088933,16.0583289 12.2984363,16.0583289 L11.2,16.0583289 C11.0895431,16.0583289 11,15.9687858 11,15.8583289 L11,11.6587853 C11,11.2949601 11.2947575,11 11.6585287,11 L15.8565349,11 C15.9669918,11 16.0565349,11.0895431 16.0565349,11.2 L16.0565349,12.2455621 C16.0565349,12.356019 15.9669918,12.4455621 15.8565349,12.4455621 L13.6050729,12.4455621 L17.4249693,16.3654385 C17.4255089,16.3659923 17.4260453,16.3665491 17.4265785,16.3671091 C17.5027453,16.4471051 17.4996412,16.5737 17.4196453,16.6498668 L16.5906995,17.4391339 C16.5112182,17.5148107 16.3856012,17.5123028 16.3092037,17.433514 L15.6011195,16.7032659 L12.4984363,13.5034654 L12.4984363,15.8583289 Z M12.4984363,24.1416711 L12.4984363,26.4965346 L16.3092037,22.566486 C16.3856012,22.4876972 16.5112182,22.4851893 16.5906995,22.5608661 L17.4196453,23.3501332 C17.4996412,23.4263 17.5027453,23.5528949 17.4265785,23.6328909 C17.4260453,23.6334509 17.4255089,23.6340077 17.4249693,23.6345615 L13.6050729,27.5544379 L15.8565349,27.5544379 C15.9669918,27.5544379 16.0565349,27.643981 16.0565349,27.7544379 L16.0565349,28.8 C16.0565349,28.9104569 15.9669918,29 15.8565349,29 L11.6585287,29 C11.2947575,29 11,28.7050399 11,28.3412147 L11,24.1416711 C11,24.0312142 11.0895431,23.9416711 11.2,23.9416711 L12.2984363,23.9416711 C12.4088933,23.9416711 12.4984363,24.0312142 12.4984363,24.1416711 Z M27.5015637,15.8583289 L27.5015637,13.5034654 L23.6907963,17.433514 C23.6143988,17.5123028 23.4887818,17.5148107 23.4093005,17.4391339 L22.5803547,16.6498668 C22.5003588,16.5737 22.4972547,16.4471051 22.5734215,16.3671091 C22.5739547,16.3665491 22.5744911,16.3659923 22.5750307,16.3654385 L26.3949271,12.4455621 L24.1434651,12.4455621 C24.0330082,12.4455621 23.9434651,12.356019 23.9434651,12.2455621 L23.9434651,11.2 C23.9434651,11.0895431 24.0330082,11 24.1434651,11 L28.3414713,11 C28.7052425,11 29,11.2949601 29,11.6587853 L29,15.8583289 C29,15.9687858 28.9104569,16.0583289 28.8,16.0583289 L27.7015637,16.0583289 C27.5911067,16.0583289 27.5015637,15.9687858 27.5015637,15.8583289 Z M27.5015637,24.1416711 C27.5015637,24.0312142 27.5911067,23.9416711 27.7015637,23.9416711 L28.8,23.9416711 C28.9104569,23.9416711 29,24.0312142 29,24.1416711 L29,28.3412147 C29,28.7050399 28.7052425,29 28.3414713,29 L24.1434651,29 C24.0330082,29 23.9434651,28.9104569 23.9434651,28.8 L23.9434651,27.7544379 C23.9434651,27.643981 24.0330082,27.5544379 24.1434651,27.5544379 L26.3949271,27.5544379 L22.5750307,23.6345615 C22.5744911,23.6340077 22.5739547,23.6334509 22.5734215,23.6328909 C22.4972547,23.5528949 22.5003588,23.4263 22.5803547,23.3501332 L23.4093005,22.5608661 C23.4887818,22.4851893 23.6143988,22.4876972 23.6907963,22.566486 L27.5015637,26.4965346 L27.5015637,24.1416711 Z" id="Combined-Shape" fill="#EF7622"></path>
        </g>
    </g>
</svg>