<?xml version="1.0" encoding="UTF-8"?>
<svg width="19px" height="18px" viewBox="0 0 19 18" version="1.1" xmlns="http://www.w3.org/2000/svg" xmlns:xlink="http://www.w3.org/1999/xlink">
    <!-- Generator: sketchtool 52.3 (67297) - http://www.bohemiancoding.com/sketch -->
    <title>66BC7543-E935-47B6-B5A7-930AF32C4699</title>
    <desc>Created with sketchtool.</desc>
    <g id="AVI-Customer" stroke="none" stroke-width="1" fill="none" fill-rule="evenodd">
        <g id="CAMERAS-LIST" transform="translate(-1620.000000, -781.000000)" fill="#EF7622" fill-rule="nonzero">
            <g id="BODY-2" transform="translate(516.000000, 206.000000)">
                <g id="SELECT-TAGS" transform="translate(0.000000, 61.000000)">
                    <g id="Group-19-Copy-10" transform="translate(23.000000, 511.000000)">
                        <g id="dashboard-copy-8" transform="translate(1081.000000, 3.000000)">
                            <path d="M-2.71412522e-13,6.38079336 L-2.71412522e-13,0.447460258 C-2.71426049e-13,0.337003308 0.08954305,0.247460258 0.2,0.247460258 L6.925,0.247460258 C7.03545695,0.247460258 7.125,0.337003308 7.125,0.447460258 L7.125,6.38079336 C7.125,6.49125031 7.03545695,6.58079336 6.925,6.58079336 L0.2,6.58079336 C0.08954305,6.58079336 -2.71676551e-13,6.49125031 -2.71690078e-13,6.38079336 Z M1.30885722,5.38391942 L5.85885722,5.38391942 C5.91408569,5.38391942 5.95885722,5.3391479 5.95885722,5.28391942 L5.95885722,1.52558623 C5.95885722,1.47035776 5.91408569,1.42558623 5.85885722,1.42558623 L1.30885722,1.42558623 C1.25362874,1.42558623 1.20885722,1.47035776 1.20885722,1.52558623 L1.20885722,5.28391942 C1.20885722,5.3391479 1.25362874,5.38391942 1.30885722,5.38391942 Z M-2.75853414e-13,17.2166663 L-2.75853414e-13,11.2833332 C-2.75866941e-13,11.1728762 0.08954305,11.0833332 0.2,11.0833332 L6.925,11.0833332 C7.03545695,11.0833332 7.125,11.1728762 7.125,11.2833332 L7.125,17.2166663 C7.125,17.3271232 7.03545695,17.4166663 6.925,17.4166663 L0.2,17.4166663 C0.08954305,17.4166663 -2.76117443e-13,17.3271232 -2.7613097e-13,17.2166663 Z M1.30885722,16.2197924 L5.85885722,16.2197924 C5.91408569,16.2197924 5.95885722,16.1750208 5.95885722,16.1197924 L5.95885722,12.3614592 C5.95885722,12.3062307 5.91408569,12.2614592 5.85885722,12.2614592 L1.30885722,12.2614592 C1.25362874,12.2614592 1.20885722,12.3062307 1.20885722,12.3614592 L1.20885722,16.1197924 C1.20885722,16.1750208 1.25362874,16.2197924 1.30885722,16.2197924 Z M11.875,6.38079336 L11.875,0.447460258 C11.875,0.337003308 11.9645431,0.247460258 12.075,0.247460258 L18.8,0.247460258 C18.9104569,0.247460258 19,0.337003308 19,0.447460258 L19,6.38079336 C19,6.49125031 18.9104569,6.58079336 18.8,6.58079336 L12.075,6.58079336 C11.9645431,6.58079336 11.875,6.49125031 11.875,6.38079336 Z M13.1838572,5.38391942 L17.7338572,5.38391942 C17.7890857,5.38391942 17.8338572,5.3391479 17.8338572,5.28391942 L17.8338572,1.52558623 C17.8338572,1.47035776 17.7890857,1.42558623 17.7338572,1.42558623 L13.1838572,1.42558623 C13.1286287,1.42558623 13.0838572,1.47035776 13.0838572,1.52558623 L13.0838572,5.28391942 C13.0838572,5.3391479 13.1286287,5.38391942 13.1838572,5.38391942 Z M11.875,17.2166663 L11.875,11.2833332 C11.875,11.1728762 11.9645431,11.0833332 12.075,11.0833332 L18.8,11.0833332 C18.9104569,11.0833332 19,11.1728762 19,11.2833332 L19,17.2166663 C19,17.3271232 18.9104569,17.4166663 18.8,17.4166663 L12.075,17.4166663 C11.9645431,17.4166663 11.875,17.3271232 11.875,17.2166663 Z M13.1838572,16.2197924 L17.7338572,16.2197924 C17.7890857,16.2197924 17.8338572,16.1750208 17.8338572,16.1197924 L17.8338572,12.3614592 C17.8338572,12.3062307 17.7890857,12.2614592 17.7338572,12.2614592 L13.1838572,12.2614592 C13.1286287,12.2614592 13.0838572,12.3062307 13.0838572,12.3614592 L13.0838572,16.1197924 C13.0838572,16.1750208 13.1286287,16.2197924 13.1838572,16.2197924 Z M8.91715367,5.78912672 L9.8690602,5.78912672 C9.97951715,5.78912672 10.0690602,5.87866977 10.0690602,5.98912672 L10.0690602,8.02910585 L12.1712413,8.02910585 C12.2816982,8.02910585 12.3712413,8.1186489 12.3712413,8.22910585 L12.3712413,9.06275737 C12.3712413,9.17321432 12.2816982,9.26275737 12.1712413,9.26275737 L10.0690602,9.26275737 L10.0690602,11.4408111 C10.0690602,11.551268 9.97951715,11.6408111 9.8690602,11.6408111 L8.91715367,11.6408111 C8.80669672,11.6408111 8.71715367,11.551268 8.71715367,11.4408111 L8.71715367,9.26275737 L6.55623678,9.26275737 C6.44577983,9.26275737 6.35623678,9.17321432 6.35623678,9.06275737 L6.35623678,8.23513613 C6.35623678,8.12467918 6.44577983,8.03513613 6.55623678,8.03513613 L8.71715367,8.03513613 L8.71715367,5.98912672 C8.71715367,5.87866977 8.80669672,5.78912672 8.91715367,5.78912672 Z" id="Combined-Shape"></path>
                        </g>
                    </g>
                </g>
            </g>
        </g>
    </g>
</svg>