<?xml version="1.0" encoding="UTF-8"?>
<svg width="60px" height="60px" viewBox="0 0 60 60" version="1.1" xmlns="http://www.w3.org/2000/svg" xmlns:xlink="http://www.w3.org/1999/xlink">
    <!-- Generator: Sketch 52.3 (67297) - http://www.bohemiancoding.com/sketch -->
    <title>icon-plataformas-filtros-naranja</title>
    <desc>Created with Sketch.</desc>
    <g id="WEB-CentricView-3.0---VSAT-WebApp-Version" stroke="none" stroke-width="1" fill="none" fill-rule="evenodd">
        <g id="plataformas-lineal-copy">
            <circle id="Oval-Copy-3" fill="#EF7622" fill-rule="evenodd" cx="30" cy="30" r="30"></circle>
            <g id="plataforma-linealbco" transform="translate(17.000000, 17.000000)" fill="#FFFFFF" fill-rule="nonzero">
                <path d="M22.6508789,21.5311488 L22.6508789,18.2542025 L27,18.2542025 C27,18.0909428 27,13.6533414 27,13.4193637 L23.7832031,13.4193637 L23.7832031,6.91919153 L22.2011719,6.91919153 L22.2011719,3.69596566 L14.2910156,3.69596566 L14.2910156,6.91919153 L12.7089844,6.91919153 L12.7089844,13.4193637 L11.0225143,13.4193637 L9.44048308,2.08435273 L7.82564248,2.08435273 L7.82564248,3.34059392e-13 L6.56701987,1.77635684e-15 L6.56701987,2.08435273 L4.94897461,2.08435273 L3.32123567,13.4193637 L-3.55271368e-14,13.4193637 L-3.55271368e-14,18.2542025 L4.06772461,18.2542025 L4.06772461,21.6345233 L-2.27373675e-13,21.6345233 L1.56319402e-13,22.9480749 L26.999588,23 L27,21.5311488 L22.6508789,21.5311488 Z M15.5756531,4.99448168 L20.9144737,4.99448168 L20.9144737,6.91919153 L15.5756531,6.91919153 L15.5756531,4.99448168 Z M14.0171669,8.23278042 L22.5124383,8.23278042 L22.5124383,13.4193637 L14.0171669,13.4193637 L14.0171669,8.23278042 Z M8.27255249,3.31860217 L8.54632568,5.30757859 L5.80337813,5.30757859 L6.0709152,3.31860217 L8.27255249,3.31860217 Z M5.60964966,6.63013644 L8.72787476,6.63013644 L9.69649881,13.4193637 L4.64685059,13.4193637 L5.60964966,6.63013644 Z M1.29937744,14.5581125 L25.7068787,14.5581125 L25.7068787,17.0777499 L1.29937744,17.0777499 L1.29937744,14.5581125 Z M5.38269043,21.6334414 L5.38269043,18.2196946 L10.0696411,18.2196946 L10.0696411,21.6334414 L5.38269043,21.6334414 Z M11.3756409,21.6016569 L11.3756409,18.18791 L15.6479797,18.18791 L15.6479797,21.6016569 L11.3756409,21.6016569 Z M16.9422913,21.603746 L16.9422913,18.1899991 L21.3516846,18.1899991 L21.3516846,21.603746 L16.9422913,21.603746 Z" id="Shape"></path>
            </g>
        </g>
    </g>
</svg>