<?xml version="1.0" encoding="UTF-8"?>
<svg width="9px" height="9px" viewBox="0 0 9 9" version="1.1" xmlns="http://www.w3.org/2000/svg" xmlns:xlink="http://www.w3.org/1999/xlink">
    <!-- Generator: Sketch 52.3 (67297) - http://www.bohemiancoding.com/sketch -->
    <title>icon_mas</title>
    <desc>Created with Sketch.</desc>
    <g id="Symbols" stroke="none" stroke-width="1" fill="none" fill-rule="evenodd">
        <g id="HEADER_CUSTOMERS-RIGNET" transform="translate(-1886.000000, -26.000000)" fill="#EF7622">
            <g id="Group-2" transform="translate(1729.000000, 0.000000)">
                <g id="icon_mas" transform="translate(157.000000, 26.000000)">
                    <path d="M3.8,0 L5.2,-1.88737914e-15 C5.31045695,-1.90766975e-15 5.4,0.08954305 5.4,0.2 L5.4,3.6 L8.8,3.6 C8.91045695,3.6 9,3.68954305 9,3.8 L9,5.19652832 C9,5.30698527 8.91045695,5.39652832 8.8,5.39652832 L5.4,5.39652832 L5.4,8.8 C5.4,8.91045695 5.31045695,9 5.2,9 L3.8,9 C3.68954305,9 3.6,8.91045695 3.6,8.8 L3.6,5.39652832 L0.2,5.39652832 C0.08954305,5.39652832 3.06982769e-14,5.30698527 3.05866443e-14,5.19652832 L3.11417558e-14,3.80685547 C3.11282288e-14,3.69639852 0.08954305,3.60685547 0.2,3.60685547 L3.6,3.60685547 L3.6,0.2 C3.6,0.08954305 3.68954305,5.46038343e-15 3.8,5.44009282e-15 Z" id="Rectangle"></path>
                </g>
            </g>
        </g>
    </g>
</svg>