<?xml version="1.0" encoding="UTF-8"?>
<svg width="12px" height="12px" viewBox="0 0 12 12" version="1.1" xmlns="http://www.w3.org/2000/svg" xmlns:xlink="http://www.w3.org/1999/xlink">
    <!-- Generator: Sketch 52.3 (67297) - http://www.bohemiancoding.com/sketch -->
    <title>video</title>
    <desc>Created with Sketch.</desc>
    <g id="AVI-Customer" stroke="none" stroke-width="1" fill="none" fill-rule="evenodd">
        <g id="video" fill="#EF7622">
            <path d="M4.873125,3.24 L8.33979167,5.84 C8.42815723,5.90627417 8.44606584,6.03163444 8.37979167,6.12 C8.36842082,6.13516113 8.3549528,6.14862915 8.33979167,6.16 L4.873125,8.76 C4.78475944,8.82627417 4.65939917,8.80836556 4.593125,8.72 C4.56716057,8.68538077 4.553125,8.64327404 4.553125,8.6 L4.553125,3.4 C4.553125,3.28954305 4.64266805,3.2 4.753125,3.2 C4.79639904,3.2 4.83850577,3.21403557 4.873125,3.24 Z M5.55013021,7 L6.89980469,6.00686849 L5.55013021,5.00028992 L5.55013021,7 Z M6,0 C9.31210938,0.00371095 11.996289,2.68789063 12,6 C12,9.31367188 9.31367188,12 6,12 C2.68632812,12 0,9.31367188 0,6 C0,2.68632812 2.68632812,0 6,0 Z M6.009375,10.9 C8.71427002,10.8969238 10.9062988,8.70489503 10.909375,6 C10.909375,3.29382323 8.71555177,1.1 6.009375,1.1 C3.30319823,1.1 1.109375,3.29382323 1.109375,6 C1.109375,8.70617677 3.30319823,10.9 6.009375,10.9 Z" id="Combined-Shape"></path>
        </g>
    </g>
</svg>