<?xml version="1.0" encoding="UTF-8"?>
<svg width="60px" height="60px" viewBox="0 0 60 60" version="1.1" xmlns="http://www.w3.org/2000/svg" xmlns:xlink="http://www.w3.org/1999/xlink">
    <!-- Generator: Sketch 52.3 (67297) - http://www.bohemiancoding.com/sketch -->
    <title>icon-barcos-filtros</title>
    <desc>Created with Sketch.</desc>
    <g id="WEB-CentricView-3.0---VSAT-WebApp-Version" stroke="none" stroke-width="1" fill="none" fill-rule="evenodd">
        <g id="barcos-lineal">
            <circle id="Oval" stroke="#D8D8D8" fill="#FFFFFF" cx="30" cy="30" r="29.5"></circle>
            <g id="barco-linealnaranja" transform="translate(19.000000, 18.000000)" fill="#EF7622">
                <g id="Combined-Shape">
                    <path d="M9.58333333,3 L9.58333333,0 L13.4166667,0 L13.4166667,3 L15.2979573,3 L18.2132806,10.7959139 L23,12.0886544 L19.1715923,25 L3.82793976,25 L3.12105897e-12,12.0886544 L4.80828221,10.804336 L7.76573459,3 L9.58333333,3 Z M10.7004067,1.20472301 L10.7004067,3 L12.2875791,3 L12.2875791,1.20472301 L10.7004067,1.20472301 Z M21.393463,13.0008459 L11.5,10.4167151 L1.61243966,13.0008459 L2.66683524,16.5780409 L11.5,14.3514557 L20.3730062,16.4778735 L21.393463,13.0008459 Z M19.9721125,17.7360396 L11.5,15.6943534 L3.01678467,17.8357599 L4.66213342,23.7221236 L18.2083333,23.7221236 L19.9721125,17.7360396 Z M14.4577311,4.3421875 L8.62602946,4.3421875 L6.44984538,10.3500237 L11.5107814,9 L16.6241822,10.3500237 L14.4577311,4.3421875 Z" fill-rule="nonzero"></path>
                </g>
            </g>
        </g>
    </g>
</svg>