<?xml version="1.0" encoding="UTF-8"?>
<svg width="15px" height="18px" viewBox="0 0 15 18" version="1.1" xmlns="http://www.w3.org/2000/svg" xmlns:xlink="http://www.w3.org/1999/xlink">
    <!-- Generator: Sketch 52.3 (67297) - http://www.bohemiancoding.com/sketch -->
    <title>icon-edit-profile</title>
    <desc>Created with Sketch.</desc>
    <g id="WEB-CentricView-3.0---VSAT-WebApp-Version" stroke="none" stroke-width="1" fill="none" fill-rule="evenodd">
        <g id="icon_edit" fill="#EF7622" fill-rule="nonzero">
            <path d="M0.0158562368,10.96875 C0.0158562368,10.7990506 0.0951374207,10.6447785 0.206131078,10.5213608 L8.705074,2.26780063 L10.8298097,0.185126582 C11.0993658,-0.0617088608 11.5116279,-0.0617088608 11.7653277,0.185126582 L14.8097252,3.17800633 C15.0634249,3.44026899 15.0634249,3.84137658 14.8097252,4.08821203 L4.18604651,14.4244462 C4.05919662,14.5478639 3.90063425,14.6095728 3.72621564,14.6095728 L0.650105708,14.625 C0.475687104,14.625 0.317124736,14.5632911 0.190274841,14.4398734 C0.0634249471,14.3164557 0,14.1467563 0,13.977057 L0.0158562368,10.96875 Z M11.4293307,1.96937116 L10.4304763,2.99393921 L12.0126202,4.52499385 L13.0114746,3.5004258 L11.4293307,1.96937116 Z M9.52655499,3.9375 L1.71589543,11.4959171 L1.63538537,13.0219538 L3.27764423,12.8838766 L11.0524715,5.40856934 L9.52655499,3.9375 Z M0.883987312,16.2320254 L14.1160127,16.2320254 C14.6042254,16.2320254 15,16.6278 15,17.1160127 C15,17.6042254 14.6042254,18 14.1160127,18 L0.883987312,18 C0.395774601,18 -7.38904656e-13,17.6042254 -7.38964445e-13,17.1160127 C-7.39024234e-13,16.6278 0.395774601,16.2320254 0.883987312,16.2320254 Z" id="Combined-Shape"></path>
        </g>
    </g>
</svg>