<?xml version="1.0" encoding="UTF-8"?>
<svg width="60px" height="60px" viewBox="0 0 60 60" version="1.1" xmlns="http://www.w3.org/2000/svg" xmlns:xlink="http://www.w3.org/1999/xlink">
    <!-- Generator: Sketch 52.3 (67297) - http://www.bohemiancoding.com/sketch -->
    <title>icon-antenas-filtros</title>
    <desc>Created with Sketch.</desc>
    <g id="WEB-CentricView-3.0---VSAT-WebApp-Version" stroke="none" stroke-width="1" fill="none" fill-rule="evenodd">
        <g id="antenas-lineal">
            <circle id="Oval-Copy" stroke="#D8D8D8" fill="#FFFFFF" cx="30" cy="30" r="29.5"></circle>
            <g id="antena" transform="translate(16.000000, 19.000000)" fill="#EF7622">
                <g id="Combined-Shape" transform="translate(2.000000, 1.000000)">
                    <path d="M10,10.7137481 L10,20 C4.4771525,20 -1.97353245e-12,15.5228475 -1.97353245e-12,10 C-1.97353245e-12,4.4771525 4.4771525,0 10,0 L10,9.4137481 L11.0426566,9.4137481 C11.3262881,7.48252623 12.9900128,6 15,6 C17.209139,6 19,7.790861 19,10 C19,12.209139 17.209139,14 15,14 C13.0344773,14 11.4000666,12.5823405 11.0634948,10.7137481 L10,10.7137481 Z M15,12.5549098 C16.2686433,12.5549098 17.6153739,11.6568542 17.6153739,10 C17.6153739,8.34314575 16.2172154,7.41043527 15,7.41043527 C13.7827846,7.41043527 12.3759068,8.34314575 12.3759068,10 C12.3759068,11.6568542 13.7313567,12.5549098 15,12.5549098 Z M18,3.89605713 L18.962677,3 C21.2396545,4.93308512 22.3781433,7.27249146 22.3781433,10.018219 C22.3781433,12.7639465 21.2520955,15.1017747 19,17.0317034 L18,16.1293422 C20.0640567,14.3786243 21.096085,12.3415833 21.096085,10.018219 C21.096085,7.69485474 20.0640567,5.65413411 18,3.89605713 Z M20.2904663,1.77420044 L21.2618408,0.88650513 C24.1864014,3.25671823 25.6486816,6.29454985 25.6486816,10 C25.6486816,13.7054501 24.1864014,16.7376535 21.2618408,19.0966099 L20.2904663,18.2008231 C23.0079043,16.0123465 24.3666233,13.2787388 24.3666233,10 C24.3666233,6.72126116 23.0079043,3.97932797 20.2904663,1.77420044 Z M8.64829282,18.4105903 L8.64829282,1.70355903 C5.44936343,1.70355903 1.43402778,4.94719329 1.43402778,10.0852141 C1.43402778,15.223235 6,18.4105903 8.64829282,18.4105903 Z" fill-rule="nonzero"></path>
                </g>
            </g>
        </g>
    </g>
</svg>