<?xml version="1.0" encoding="UTF-8"?>
<svg width="19px" height="18px" viewBox="0 0 19 18" version="1.1" xmlns="http://www.w3.org/2000/svg" xmlns:xlink="http://www.w3.org/1999/xlink">
    <!-- Generator: Sketch 52.3 (67297) - http://www.bohemiancoding.com/sketch -->
    <title>icon_password</title>
    <desc>Created with Sketch.</desc>
    <g id="WEB-CentricView-3.0---VSAT-WebApp-Version" stroke="none" stroke-width="1" fill="none" fill-rule="evenodd">
        <g id="icon_password" fill="#FFFFFF">
            <path d="M14.1661202,3.09137 C14.4765403,3.09137 14.7415002,3.20112003 14.9610003,3.4206201 C15.1805005,3.64012016 15.2902505,3.90508021 15.2902505,4.21550025 C15.2902505,4.52592029 15.1805005,4.7908802 14.9610003,5.0103803 C14.7415002,5.2298805 14.4765403,5.3396305 14.1661202,5.3396305 C13.8557002,5.3396305 13.5907402,5.2298805 13.3712401,5.0103803 C13.15174,4.7908802 13.04199,4.52592029 13.04199,4.21550025 C13.04199,3.90508021 13.15174,3.64012016 13.3712401,3.4206201 C13.5907402,3.20112003 13.8557002,3.09137 14.1661202,3.09137 Z" id="Fill-43"></path>
            <path d="M13.182459,5.68434189e-14 C10.1606924,5.68434189e-14 7.7023241,2.4583673 7.7023241,5.480135 C7.7023241,5.9034405 7.7506267,6.3225999 7.8462478,6.7313976 L0.67651,13.9011345 L0.67651,17.986084 L5.173031,17.986084 L5.173031,16.018856 L7.1402589,16.018856 L7.1402589,14.0516281 L9.1074869,14.0516281 L9.1074869,12.0844002 L10.6631423,12.0844002 L11.9312316,10.8163462 C12.3399936,10.9119673 12.7592241,10.9602699 13.182459,10.9602699 C16.2042266,10.9602699 18.662594,8.5019026 18.662594,5.480135 C18.662594,2.4583673 16.2042266,5.68434189e-14 13.182459,5.68434189e-14 Z M13.182459,9.5551071 C12.7578537,9.5551071 12.339081,9.4899426 11.9378358,9.3614054 L11.5297061,9.2306557 L10.0811244,10.6792374 L7.7023241,10.6792374 L7.7023241,12.6464653 L5.7350961,12.6464653 L5.7350961,14.6136932 L3.7678682,14.6136932 L3.7678682,16.5809212 L2.08167281,16.5809212 L2.08167281,14.4831533 L9.4319736,7.1328874 L9.3012229,6.7247581 C9.1726514,6.3235488 9.1074869,5.9048104 9.1074869,5.480135 C9.1074869,3.2331741 10.9354974,1.40516281 13.182459,1.40516281 C15.4294197,1.40516281 17.2574312,3.2331741 17.2574312,5.480135 C17.2574312,7.7270951 15.4294197,9.5551071 13.182459,9.5551071 Z" id="Fill-45"></path>
        </g>
    </g>
</svg>