<?xml version="1.0" encoding="UTF-8"?>
<svg width="30px" height="30px" viewBox="0 0 30 30" version="1.1" xmlns="http://www.w3.org/2000/svg" xmlns:xlink="http://www.w3.org/1999/xlink">
    <!-- Generator: Sketch 52.3 (67297) - http://www.bohemiancoding.com/sketch -->
    <title>icon-noalarms</title>
    <desc>Created with Sketch.</desc>
    <g id="WEB-CentricView-3.0---VSAT-WebApp-Version" stroke="none" stroke-width="1" fill="none" fill-rule="evenodd">
        <g id="alarm" fill="#646569">
            <path d="M15,1.88888978 C11.4978897,1.88888978 8.205399,3.25267789 5.72904378,5.72904378 C3.25267789,8.205399 1.88888978,11.4978897 1.88888978,15 C1.88888978,18.5020998 3.25267789,21.7945878 5.72904378,24.2709567 C8.205399,26.7473222 11.4978897,28.11111 15,28.11111 C18.5020998,28.11111 21.7945878,26.7473222 24.2709567,24.2709567 C26.7473222,21.7945878 28.11111,18.5020998 28.11111,15 C28.11111,11.4978897 26.7473222,8.205399 24.2709567,5.72904378 C21.7945878,3.25267789 18.5020998,1.88888978 15,1.88888978 Z M15,0 C23.2842678,0 30,6.71572156 30,15 C30,23.2842678 23.2842678,30 15,30 C6.71572156,30 0,23.2842678 0,15 C0,6.71572156 6.71572156,0 15,0 Z M16,10 L16,14 L14,14 L14,10 L16,10 Z M16,15 L16,17 L14,17 L14,15 L16,15 Z M20.7272727,11.6560102 L20.7272727,18.0944587 C21.4680398,18.3310742 22,18.9678175 22,19.7146633 L22,22.5 L8,22.5 L8,19.7146633 C8,18.9678175 8.53196021,18.3310742 9.27272727,18.0944587 L9.27272727,11.6560102 C9.27272727,8.81304348 11.8420455,6.5 15,6.5 C18.1579545,6.5 20.7272727,8.81304348 20.7272727,11.6560102 Z M9.81307445,21.0337776 L20.2698918,21.0337776 L20.2698918,20.3357077 C20.2698918,20.04168 19.9745948,19.8023744 19.6117721,19.8023744 L10.4711941,19.8023744 C10.1083714,19.8023744 9.81307445,20.04168 9.81307445,20.3357077 L9.81307445,21.0337776 Z M15,8.14694393 C12.9207,8.14694393 10.8975184,9.42060269 10.8975184,11.699508 L10.8975184,18.2333333 L19.0838294,18.2333333 L19.0838294,11.699508 C19.0838294,9.42060269 17.0793,8.14694393 15,8.14694393 Z" id="Combined-Shape"></path>
        </g>
    </g>
</svg>