<?xml version="1.0" encoding="UTF-8"?>
<svg width="15px" height="15px" viewBox="0 0 15 15" version="1.1" xmlns="http://www.w3.org/2000/svg" xmlns:xlink="http://www.w3.org/1999/xlink">
    <!-- Generator: Sketch 52.3 (67297) - http://www.bohemiancoding.com/sketch -->
    <title>icon-mark-viewed</title>
    <desc>Created with Sketch.</desc>
    <g id="WEB-CentricView-3.0---VSAT-WebApp-Version" stroke="none" stroke-width="1" fill="none" fill-rule="evenodd">
        <g id="mark-viewed" fill="#B1B1B1" fill-rule="nonzero">
            <path d="M14.2185277,5.43930932 C13.8206538,5.08621564 13.3178461,4.89156142 12.8062939,4.89156142 L12.3297196,4.89156142 L10.6158012,4.89156142 L9.80256432,4.89156142 L9.80256432,2.69604297 C9.80256432,1.64581558 9.5008797,0.880779254 8.90188268,0.423568194 C7.95747862,-0.29167287 6.67641201,0.111216084 6.61957288,0.129323453 C6.40096083,0.201752928 6.25230463,0.409987668 6.25230463,0.645383461 L6.25230463,3.29358613 C6.25230463,4.09936404 5.88066415,4.78291721 5.14175542,5.33066511 C4.58210857,5.74713459 4.009345,5.93726196 3.9350169,5.95989618 L3.88255001,5.9734767 C3.68579916,5.74260775 3.39723126,5.5977488 3.07368542,5.5977488 L1.07994353,5.5977488 C0.485318751,5.5977488 0,6.10022828 0,6.71587882 L0,13.4880347 C0,14.1036852 0.485318751,14.6061647 1.07994353,14.6061647 L3.08242991,14.6061647 C3.34476437,14.6061647 3.58960986,14.5065742 3.77324398,14.3436079 C4.17549016,14.7510237 4.72202028,15 5.31227282,15 L7.30164247,15 L7.5071378,15 L11.5776942,15 C12.2072969,15 12.7625715,14.8415605 13.1866789,14.5473158 C13.7288367,14.167061 14.0654993,13.564991 14.1616886,12.7954279 L14.9705532,7.58955936 C15.0973482,6.78378145 14.8087803,5.95989618 14.2185277,5.43930932 Z M3.11303559,13.4880347 C3.11303559,13.5061421 3.09991887,13.5197226 3.08242991,13.5197226 L1.07994353,13.5197226 C1.06245456,13.5197226 1.04933784,13.5061421 1.04933784,13.4880347 L1.04933784,6.71587882 C1.04933784,6.69777145 1.06245456,6.68419092 1.07994353,6.68419092 L3.08242991,6.68419092 C3.09991887,6.68419092 3.11303559,6.69777145 3.11303559,6.71587882 L3.11303559,13.4880347 Z M13.9343321,7.4220662 L13.1254675,12.6369884 C13.1254675,12.6415152 13.1254675,12.6505689 13.1210952,12.6596226 C13.0861173,12.9719747 12.9724391,13.9180847 11.5776942,13.9180847 L7.5071378,13.9180847 L7.30164247,13.9180847 L5.31227282,13.9180847 C4.75262597,13.9180847 4.26293498,13.4835079 4.17549016,12.9085989 C4.17111791,12.8859647 4.16674567,12.8633305 4.16237343,12.8452231 L4.16237343,7.02370409 L4.19297912,7.0146504 C4.2017236,7.0146504 4.20609584,7.01012356 4.21484032,7.01012356 C4.24544601,7.00106988 4.98872698,6.78378145 5.72763571,6.23603355 C6.75511235,5.4800509 7.30164247,4.46151141 7.30164247,3.29358613 L7.30164247,1.09354084 C7.59021038,1.06185294 7.98808431,1.07543347 8.28102446,1.29724873 C8.59582581,1.53717137 8.75322648,2.00796296 8.75322648,2.69151612 L8.75322648,5.43025564 C8.75322648,5.72902722 8.9893275,5.9734767 9.2778954,5.9734767 L10.6158012,5.9734767 L12.3297196,5.9734767 L12.8062939,5.9734767 C13.0686284,5.9734767 13.3265906,6.07759407 13.5364581,6.25866776 C13.8512595,6.53933197 13.9999157,6.98296251 13.9343321,7.4220662 Z" id="Shape"></path>
        </g>
    </g>
</svg>