<?xml version="1.0" encoding="UTF-8"?>
<svg width="17px" height="17px" viewBox="0 0 17 17" version="1.1" xmlns="http://www.w3.org/2000/svg" xmlns:xlink="http://www.w3.org/1999/xlink">
    <!-- Generator: Sketch 52.3 (67297) - http://www.bohemiancoding.com/sketch -->
    <title>icon-save-events</title>
    <desc>Created with Sketch.</desc>
    <g id="WEB-CentricView-3.0---VSAT-WebApp-Version" stroke="none" stroke-width="1" fill="none" fill-rule="evenodd">
        <g id="guardar" fill="#D8D8D8">
            <path d="M17,16.5845362 L17,4.62575786 C17,4.50610363 16.9440332,4.39309639 16.8495897,4.31665079 L12.6975307,0.943064449 C12.6905348,0.936416987 12.6835399,0.933093256 12.6765441,0.929769525 C12.6660499,0.923122049 12.6590549,0.916474599 12.6485615,0.909827137 C12.6345682,0.903179674 12.624074,0.896532218 12.6100832,0.889884755 C12.5995899,0.886561024 12.5890949,0.879913568 12.5786007,0.876589843 C12.5646098,0.869942381 12.5471199,0.866618656 12.5331282,0.863294924 C12.5226349,0.859971193 12.5121407,0.856647456 12.5016474,0.856647456 C12.473664,0.85332373 12.449179,0.85 12.4211948,0.85 L0.430246933,0.85 C0.192386844,0.850000006 0,1.03280514 0,1.25881877 L0,16.591181 C0,16.8171943 0.192386844,17 0.430246933,17 L16.5697528,17 L16.5697528,16.9933544 C16.8076135,16.9933544 17,16.8105495 17,16.5845362 Z M12.75,15.5473182 L4.25,15.5473182 L4.25,10.5726605 C4.25,10.4737089 4.3401061,10.3961527 4.44823288,10.3961527 L12.5517653,10.3961527 C12.6628971,10.3961527 12.75,10.4763829 12.75,10.5726605 L12.75,15.5473182 Z M11.3199085,2.34981097 L11.3199085,5.30185832 C11.3199085,5.32291106 11.300174,5.33870042 11.2738613,5.33870042 L6.60386486,5.33870042 C6.57755209,5.33870042 6.55781842,5.32027954 6.55781842,5.30185832 L6.55781842,2.34981097 L11.3199085,2.34981097 Z M1.54545455,2.35640971 L4.80109907,2.35640971 L4.80109907,5.926849 C4.80109907,6.39980655 5.20741822,6.78346348 5.70831053,6.78346348 L11.9432,6.78346348 C12.4440931,6.78346348 12.8504114,6.3998057 12.8504114,5.926849 L12.8504114,3.24164556 L15.4545455,5.24609375 L15.4545455,15.5139688 L14.3145613,15.5139688 L14.3145613,10.0577844 C14.3145613,9.48891187 13.8241767,9.02918465 13.2252048,9.02918465 L3.77479374,9.02918465 C3.17232104,9.02918465 2.68543944,9.49221886 2.68543944,10.0577844 L2.68543944,15.5172761 L1.54545455,15.5172761 L1.54545455,2.35640971 Z" id="Stroke-64"></path>
        </g>
    </g>
</svg>