<?xml version="1.0" encoding="UTF-8"?>
<svg width="18px" height="17px" viewBox="0 0 18 17" version="1.1" xmlns="http://www.w3.org/2000/svg" xmlns:xlink="http://www.w3.org/1999/xlink">
    <!-- Generator: Sketch 52.3 (67297) - http://www.bohemiancoding.com/sketch -->
    <title>view</title>
    <desc>Created with Sketch.</desc>
    <g id="Page-1" stroke="none" stroke-width="1" fill="none" fill-rule="evenodd">
        <g id="view" transform="translate(1.000000, 1.000000)" fill="#EF7622" stroke="#EF7622">
            <g id="focus" transform="translate(0.000000, -0.652174)">
                <path d="M15.1821914,8.39811608 L15.3333333,8.15217391 L15.1821914,7.90610916 C15.1568576,7.86503705 14.5488466,6.88666304 13.3676279,5.90620472 C11.7965638,4.60231904 9.94572131,3.91304348 8.01506501,3.91304348 C6.08490063,3.91304348 4.22950783,4.60195122 2.6494663,5.9052239 C1.46148364,6.88519177 0.846585787,7.86283021 0.821006036,7.90402491 L0.666666667,8.15217391 L0.821006036,8.40032292 C0.846585787,8.44151761 1.46148364,9.41915605 2.6494663,10.3991239 C4.22950783,11.7023966 6.08490063,12.3913043 8.01506501,12.3913043 C9.94572131,12.3913043 11.7965638,11.7020288 13.3676279,10.3981431 C14.5488466,9.41768478 15.1568576,8.43931077 15.1821914,8.39811608 Z M12.7382184,9.69513597 C11.3249372,10.8593766 9.73579517,11.4495887 8.01506501,11.4495887 C6.29371996,11.4495887 4.69941277,10.8590088 3.27653914,9.69403255 C2.54062939,9.09156013 2.04170128,8.48148629 1.79734086,8.15217391 C2.04182425,7.82261634 2.54075236,7.2126651 3.27653914,6.61019268 C4.69941277,5.44533905 6.29359696,4.85463654 8.01506501,4.85463654 C9.73579517,4.85463654 11.3248142,5.44497126 12.7382184,6.60908926 C13.4708077,7.2125425 13.9654316,7.82347457 14.2064715,8.15217391 C13.9651856,8.48099585 13.4706847,9.09192792 12.7382184,9.69513597 Z" id="Shape" stroke-width="0.4" fill-rule="nonzero"></path>
                <path d="M8,5.50850728 C6.5296004,5.50850728 5.33333333,6.67876854 5.33333333,8.11720293 C5.33333333,9.55563732 6.5296004,10.7258986 8,10.7258986 C9.4703996,10.7258986 10.6666667,9.55563732 10.6666667,8.11720293 C10.6666667,6.67876854 9.4703996,5.50850728 8,5.50850728 Z M8,9.85761468 C7.01904018,9.85761468 6.22091243,9.07683753 6.22091243,8.11720293 C6.22091243,7.15756833 7.01904018,6.37679118 8,6.37679118 C8.98095982,6.37679118 9.77908757,7.15756833 9.77908757,8.11720293 C9.77908757,9.07683753 8.98095982,9.85761468 8,9.85761468 Z" id="Shape" stroke-width="0.4" fill-rule="nonzero"></path>
                <polygon id="Path" stroke-width="0.4" points="0.863697706 1.437542 2.66666667 1.437542 2.66666667 0.582231951 0 0.582231951 0 3.1909276 0.863697706 3.1909276"></polygon>
                <polygon id="Path" stroke-width="0.4" points="13.3333333 0.582231951 13.3333333 1.437542 15.1363023 1.437542 15.1363023 3.1909276 16 3.1909276 16 0.582231951"></polygon>
                <polygon id="Path" stroke-width="0.4" points="0.863697706 13.0434783 0 13.0434783 0 15.6521739 2.66666667 15.6521739 2.66666667 14.7968639 0.863697706 14.7968639"></polygon>
                <polygon id="Path" stroke-width="0.4" points="15.1363023 14.7968639 13.3333333 14.7968639 13.3333333 15.6521739 16 15.6521739 16 13.0434783 15.1363023 13.0434783"></polygon>
            </g>
        </g>
    </g>
</svg>