<?xml version="1.0" encoding="UTF-8"?>
<svg width="25px" height="25px" viewBox="0 0 25 25" version="1.1" xmlns="http://www.w3.org/2000/svg" xmlns:xlink="http://www.w3.org/1999/xlink">
    <!-- Generator: Sketch 52.3 (67297) - http://www.bohemiancoding.com/sketch -->
    <title>sin_alarmas copy</title>
    <desc>Created with Sketch.</desc>
    <g id="WEB-CentricView-3.0---VSAT-WebApp-Version" stroke="none" stroke-width="1" fill="none" fill-rule="evenodd">
        <g id="interrogacion" fill="#2E2E2E">
            <path d="M1.97891232,12.4997443 C1.97891232,18.3009539 6.69853778,23.0205793 12.4997473,23.0205793 C18.3009564,23.0205793 23.0205819,18.3009539 23.0205819,12.4997443 C23.0205819,6.69853531 18.3009564,1.97890974 12.4997473,1.97890974 C6.69853779,1.97890974 1.97891232,6.6985353 1.97891232,12.4997443 Z M-0.000254164842,12.4997443 C-0.000254163834,5.596181 5.59618359,-0.00025716585 12.4997473,-0.000257164842 C19.4033107,-0.000257163834 24.9997488,5.59618101 24.9997488,12.4997443 C24.9997488,19.4033081 19.4033107,24.9997458 12.4997473,24.9997458 C5.59618359,24.9997458 -0.00025416585,19.4033081 -0.000254164842,12.4997443 Z M11.2405633,16.6666667 L11.2405633,15.9608598 C11.2405633,15.1521187 11.3857419,14.4794033 11.6761034,13.9426933 C11.9664649,13.4059833 12.4745899,12.8509012 13.2004936,12.2774302 C14.0643191,11.5863242 14.6214418,11.0496223 14.8718786,10.6673083 C15.1223154,10.2849943 15.2475319,9.8291653 15.2475319,9.29980751 C15.2475319,8.68222341 15.0442819,8.20801417 14.6377758,7.87716554 C14.2312697,7.54631692 13.646926,7.38089509 12.8847271,7.38089509 C12.1951185,7.38089509 11.5563328,7.48014819 10.9683508,7.67865736 C10.3803687,7.87716654 9.80691336,8.11610918 9.24796748,8.39549246 L8.33333333,6.45452358 C9.80691794,5.62372593 11.3857349,5.20833333 13.0698316,5.20833333 C14.4926029,5.20833333 15.6213663,5.56123324 16.4561556,6.26704363 C17.2909449,6.97285403 17.7083333,7.9470048 17.7083333,9.18952518 C17.7083333,9.74093956 17.6284851,10.231691 17.4687863,10.6617942 C17.3090875,11.0918974 17.0677281,11.5017759 16.7447009,11.8914421 C16.4216738,12.2811082 15.864551,12.7884019 15.0733159,13.4133381 C14.3982254,13.9500481 13.9463571,14.3948491 13.7176974,14.7477543 C13.4890378,15.1006594 13.3747096,15.5748687 13.3747096,16.1703962 L13.3747096,16.6666667 L11.2405633,16.6666667 Z M11.2222013,17.9629424 L13.4097013,17.9629424 L13.4097013,20.1504424 L11.2222013,20.1504424 L11.2222013,17.9629424 Z" id="Combined-Shape"></path>
        </g>
    </g>
</svg>