<?xml version="1.0" encoding="UTF-8"?>
<svg width="18px" height="17px" viewBox="0 0 18 17" version="1.1" xmlns="http://www.w3.org/2000/svg" xmlns:xlink="http://www.w3.org/1999/xlink">
    <!-- Generator: Sketch 52.3 (67297) - http://www.bohemiancoding.com/sketch -->
    <title>dashboard_bco</title>
    <desc>Created with Sketch.</desc>
    <g id="Symbols" stroke="none" stroke-width="1" fill="none" fill-rule="evenodd">
        <g id="dashboard_bco" fill="#FFFFFF" fill-rule="nonzero">
            <path d="M0,7.19726027 L-2.77555756e-17,0.2 C-4.12826506e-17,0.08954305 0.08954305,-3.40080451e-14 0.2,-3.40283357e-14 L7.9369863,-3.37507799e-14 C8.04744325,-3.37710706e-14 8.1369863,0.08954305 8.1369863,0.2 L8.1369863,7.19726027 C8.1369863,7.30771722 8.04744325,7.39726027 7.9369863,7.39726027 L0.2,7.39726027 C0.08954305,7.39726027 -2.64028681e-16,7.30771722 -2.77555756e-16,7.19726027 Z M1.48082192,6.01866588 L6.67672729,6.01866588 C6.73195576,6.01866588 6.77672729,5.97389436 6.77672729,5.91866588 L6.77672729,1.48082192 C6.77672729,1.42559344 6.73195576,1.38082192 6.67672729,1.38082192 L1.48082192,1.38082192 C1.42559344,1.38082192 1.38082192,1.42559344 1.38082192,1.48082192 L1.38082192,5.91866588 C1.38082192,5.97389436 1.42559344,6.01866588 1.48082192,6.01866588 Z M9.8630137,7.19726027 L9.8630137,0.2 C9.8630137,0.08954305 9.95255675,-3.40358007e-14 10.0630137,-3.40560913e-14 L17.8,-3.37230244e-14 C17.9104569,-3.3743315e-14 18,0.08954305 18,0.2 L18,7.19726027 C18,7.30771722 17.9104569,7.39726027 17.8,7.39726027 L10.0630137,7.39726027 C9.95255675,7.39726027 9.8630137,7.30771722 9.8630137,7.19726027 Z M11.3438356,6.01866588 L16.539741,6.01866588 C16.5949695,6.01866588 16.639741,5.97389436 16.639741,5.91866588 L16.639741,1.48082192 C16.639741,1.42559344 16.5949695,1.38082192 16.539741,1.38082192 L11.3438356,1.38082192 C11.2886071,1.38082192 11.2438356,1.42559344 11.2438356,1.48082192 L11.2438356,5.91866588 C11.2438356,5.97389436 11.2886071,6.01866588 11.3438356,6.01866588 Z M0,16.0739726 L-2.77555756e-17,9.07671233 C-4.12826506e-17,8.96625538 0.08954305,8.87671233 0.2,8.87671233 L7.9369863,8.87671233 C8.04744325,8.87671233 8.1369863,8.96625538 8.1369863,9.07671233 L8.1369863,16.0739726 C8.1369863,16.1844296 8.04744325,16.2739726 7.9369863,16.2739726 L0.2,16.2739726 C0.08954305,16.2739726 -2.64028681e-16,16.1844296 -2.77555756e-16,16.0739726 Z M1.48082192,14.8953782 L6.67672729,14.8953782 C6.73195576,14.8953782 6.77672729,14.8506067 6.77672729,14.7953782 L6.77672729,10.3575342 C6.77672729,10.3023058 6.73195576,10.2575342 6.67672729,10.2575342 L1.48082192,10.2575342 C1.42559344,10.2575342 1.38082192,10.3023058 1.38082192,10.3575342 L1.38082192,14.7953782 C1.38082192,14.8506067 1.42559344,14.8953782 1.48082192,14.8953782 Z M9.8630137,16.0739726 L9.8630137,9.07671233 C9.8630137,8.96625538 9.95255675,8.87671233 10.0630137,8.87671233 L17.8,8.87671233 C17.9104569,8.87671233 18,8.96625538 18,9.07671233 L18,16.0739726 C18,16.1844296 17.9104569,16.2739726 17.8,16.2739726 L10.0630137,16.2739726 C9.95255675,16.2739726 9.8630137,16.1844296 9.8630137,16.0739726 Z M11.3438356,14.8953782 L16.539741,14.8953782 C16.5949695,14.8953782 16.639741,14.8506067 16.639741,14.7953782 L16.639741,10.3575342 C16.639741,10.3023058 16.5949695,10.2575342 16.539741,10.2575342 L11.3438356,10.2575342 C11.2886071,10.2575342 11.2438356,10.3023058 11.2438356,10.3575342 L11.2438356,14.7953782 C11.2438356,14.8506067 11.2886071,14.8953782 11.3438356,14.8953782 Z" id="Combined-Shape"></path>
        </g>
    </g>
</svg>