<?xml version="1.0" encoding="UTF-8"?>
<svg width="21px" height="20px" viewBox="0 0 21 20" version="1.1" xmlns="http://www.w3.org/2000/svg" xmlns:xlink="http://www.w3.org/1999/xlink">
    <!-- Generator: Sketch 52.3 (67297) - http://www.bohemiancoding.com/sketch -->
    <title>icon-details</title>
    <desc>Created with Sketch.</desc>
    <g id="WEB-CentricView-3.0---VSAT-WebApp-Version" stroke="none" stroke-width="1" fill="none" fill-rule="evenodd">
        <g id="details" fill="#EF7622">
            <path d="M6.25,0 L20,0 C20.5522847,8.7960173e-16 21,0.44771525 21,1 L21,1.35294118 C21,1.90522593 20.5522847,2.35294118 20,2.35294118 L6.25,2.35294118 C5.69771525,2.35294118 5.25,1.90522593 5.25,1.35294118 L5.25,1 C5.25,0.44771525 5.69771525,1.01453063e-16 6.25,0 Z M1,0 L2.15,0 C2.70228475,-1.01453063e-16 3.15,0.44771525 3.15,1 L3.15,1.35294118 C3.15,1.90522593 2.70228475,2.35294118 2.15,2.35294118 L1,2.35294118 C0.44771525,2.35294118 6.76353751e-17,1.90522593 0,1.35294118 L0,1 C-6.76353751e-17,0.44771525 0.44771525,1.01453063e-16 1,0 Z M6.25,5.88235294 L20,5.88235294 C20.5522847,5.88235294 21,6.33006819 21,6.88235294 L21,7.23529412 C21,7.78757887 20.5522847,8.23529412 20,8.23529412 L6.25,8.23529412 C5.69771525,8.23529412 5.25,7.78757887 5.25,7.23529412 L5.25,6.88235294 C5.25,6.33006819 5.69771525,5.88235294 6.25,5.88235294 Z M1,5.88235294 L2.15,5.88235294 C2.70228475,5.88235294 3.15,6.33006819 3.15,6.88235294 L3.15,7.23529412 C3.15,7.78757887 2.70228475,8.23529412 2.15,8.23529412 L1,8.23529412 C0.44771525,8.23529412 6.76353751e-17,7.78757887 0,7.23529412 L0,6.88235294 C-6.76353751e-17,6.33006819 0.44771525,5.88235294 1,5.88235294 Z M6.25,11.7647059 L20,11.7647059 C20.5522847,11.7647059 21,12.2124211 21,12.7647059 L21,13.1176471 C21,13.6699318 20.5522847,14.1176471 20,14.1176471 L6.25,14.1176471 C5.69771525,14.1176471 5.25,13.6699318 5.25,13.1176471 L5.25,12.7647059 C5.25,12.2124211 5.69771525,11.7647059 6.25,11.7647059 Z M1,11.7647059 L2.15,11.7647059 C2.70228475,11.7647059 3.15,12.2124211 3.15,12.7647059 L3.15,13.1176471 C3.15,13.6699318 2.70228475,14.1176471 2.15,14.1176471 L1,14.1176471 C0.44771525,14.1176471 6.76353751e-17,13.6699318 0,13.1176471 L0,12.7647059 C-6.76353751e-17,12.2124211 0.44771525,11.7647059 1,11.7647059 Z M6.25,17.6470588 L20,17.6470588 C20.5522847,17.6470588 21,18.0947741 21,18.6470588 L21,19 C21,19.5522847 20.5522847,20 20,20 L6.25,20 C5.69771525,20 5.25,19.5522847 5.25,19 L5.25,18.6470588 C5.25,18.0947741 5.69771525,17.6470588 6.25,17.6470588 Z M1,17.6470588 L2.15,17.6470588 C2.70228475,17.6470588 3.15,18.0947741 3.15,18.6470588 L3.15,19 C3.15,19.5522847 2.70228475,20 2.15,20 L1,20 C0.44771525,20 6.76353751e-17,19.5522847 0,19 L0,18.6470588 C-6.76353751e-17,18.0947741 0.44771525,17.6470588 1,17.6470588 Z" id="Combined-Shape"></path>
        </g>
    </g>
</svg>