<?xml version="1.0" encoding="UTF-8"?>
<svg width="15px" height="16px" viewBox="0 0 15 16" version="1.1" xmlns="http://www.w3.org/2000/svg" xmlns:xlink="http://www.w3.org/1999/xlink">
    <!-- Generator: Sketch 52.3 (67297) - http://www.bohemiancoding.com/sketch -->
    <title>icon-barco</title>
    <desc>Created with Sketch.</desc>
    <g id="WEB-CentricView-3.0---VSAT-WebApp-Version" stroke="none" stroke-width="1" fill="none" fill-rule="evenodd">
        <g id="barco-linealnaranja-sites" fill="#EF7622" fill-rule="nonzero">
            <path d="M6.25,1.92 L6.25,0 L8.75,0 L8.75,1.92 L9.97692869,1.92 L11.8782265,6.9093849 L15,7.73673882 L12.5032124,16 L2.49648245,16 L3.12105897e-12,7.73673882 L3.13583623,6.91477504 L5.06460951,1.92 L6.25,1.92 Z M6.97852613,0.771022726 L6.97852613,1.92 L8.01363856,1.92 L8.01363856,0.771022726 L6.97852613,0.771022726 Z M13.9522585,8.32054138 L7.5,6.66669766 L1.05159108,8.32054138 L1.73924038,10.6099462 L7.5,9.18493165 L13.2867432,10.545839 L13.9522585,8.32054138 Z M13.0252908,11.3510653 L7.5,10.0443862 L1.96746826,11.4148863 L3.04052179,15.1821591 L11.875,15.1821591 L13.0252908,11.3510653 Z M9.42895506,2.779 L5.62567139,2.779 L4.2064209,6.62401517 L7.50703138,5.76 L10.8418579,6.62401517 L9.42895506,2.779 Z" id="Combined-Shape"></path>
        </g>
    </g>
</svg>