<?xml version="1.0" encoding="UTF-8"?>
<svg width="20px" height="18px" viewBox="0 0 20 18" version="1.1" xmlns="http://www.w3.org/2000/svg" xmlns:xlink="http://www.w3.org/1999/xlink">
    <!-- Generator: Sketch 52.3 (67297) - http://www.bohemiancoding.com/sketch -->
    <title>icon-check-events</title>
    <desc>Created with Sketch.</desc>
    <g id="WEB-CentricView-3.0---VSAT-WebApp-Version" stroke="none" stroke-width="1" fill="none" fill-rule="evenodd">
        <g id="check" fill="#D8D8D8">
            <path d="M8.3653521,12.7876243 L8.33618432,12.8163754 L3.75930435,8.30487943 L5.13237374,6.95142531 L8.39031775,10.1628273 L14.7786972,3.86572656 C14.7477881,3.61924907 14.5374659,3.42857143 14.2826087,3.42857143 L2.23913043,3.42857143 C1.96298806,3.42857143 1.73913043,3.65242905 1.73913043,3.92857143 L1.73913043,15.7857143 C1.73913043,16.0618567 1.96298806,16.2857143 2.23913043,16.2857143 L14.2826087,16.2857143 C14.5587511,16.2857143 14.7826087,16.0618567 14.7826087,15.7857143 L14.7826087,6.56876377 L8.41947774,12.8409766 L8.3653521,12.7876243 Z M16.4111089,2.25663917 L18.1207826,0.571393696 L19.4938478,1.92484014 L16.5217391,4.85448249 L16.5217391,17 C16.5217391,17.5522847 16.0740239,18 15.5217391,18 L1,18 C0.44771525,18 6.76353751e-17,17.5522847 0,17 L0,2.71428571 C-6.76353751e-17,2.16200096 0.44771525,1.71428571 1,1.71428571 L15.5217391,1.71428571 C15.909105,1.71428571 16.2450284,1.93453704 16.4111089,2.25663917 Z" id="Combined-Shape"></path>
        </g>
    </g>
</svg>