<?xml version="1.0" encoding="UTF-8"?>
<svg width="30px" height="14px" viewBox="0 0 30 14" version="1.1" xmlns="http://www.w3.org/2000/svg" xmlns:xlink="http://www.w3.org/1999/xlink">
    <!-- Generator: Sketch 52.3 (67297) - http://www.bohemiancoding.com/sketch -->
    <title>icon-tracking-maps</title>
    <desc>Created with Sketch.</desc>
    <g id="WEB-CentricView-3.0---VSAT-WebApp-Version" stroke="none" stroke-width="1" fill="none" fill-rule="evenodd">
        <g id="icon_tracking" fill="#EF7622">
            <g id="tracking">
                <path d="M17.5662287,8.3641479 C17.9922028,8.13194838 18.4806923,8 19,8 C19.559072,8 20.0824256,8.15292908 20.5305103,8.4192369 L24.4192369,4.53051028 C24.1529291,4.08242558 24,3.55907204 24,3 C24,1.34314575 25.3431458,0 27,0 C28.6568542,0 30,1.34314575 30,3 C30,4.65685425 28.6568542,6 27,6 C26.5208095,6 26.0678596,5.88765055 25.6660545,5.68785578 L21.6878558,9.66605445 C21.8876505,10.0678596 22,10.5208095 22,11 C22,12.6568542 20.6568542,14 19,14 C17.3431458,14 16,12.6568542 16,11 C16,10.4806927 16.1319482,9.9922035 16.3641474,9.56622964 L12.4337704,5.6358526 C12.0077965,5.86805181 11.5193073,6 11,6 C10.5208095,6 10.0678596,5.88765055 9.66605445,5.68785578 L5.68785545,9.66605478 C5.88765011,10.0678598 5.9999995,10.5208096 5.9999995,11 C5.9999995,12.6568542 4.65685375,14 2.9999995,14 C1.34314525,14 -4.98161626e-07,12.6568542 -4.98161626e-07,11 C-4.98161626e-07,9.34314575 1.34314525,8 2.9999995,8 C3.55907167,8 4.08242533,8.15292915 4.53051009,8.41923709 L8.4192369,4.53051028 C8.15292908,4.08242558 8,3.55907204 8,3 C8,1.34314575 9.34314575,0 11,0 C12.6568542,0 14,1.34314575 14,3 C14,3.5193077 13.8680516,4.0077972 13.6358521,4.43377128 L17.5662287,8.3641479 Z M18.9983154,12.4 C19.7715141,12.4 20.3983154,11.7731986 20.3983154,11 C20.3983154,10.2268014 19.7715141,9.6 18.9983154,9.6 C18.2251168,9.6 17.5983154,10.2268014 17.5983154,11 C17.5983154,11.7731986 18.2251168,12.4 18.9983154,12.4 Z M2.99831493,12.4 C3.77151358,12.4 4.39831493,11.7731986 4.39831493,11 C4.39831493,10.2268014 3.77151358,9.6 2.99831493,9.6 C2.22511628,9.6 1.59831493,10.2268014 1.59831493,11 C1.59831493,11.7731986 2.22511628,12.4 2.99831493,12.4 Z M26.9983154,4.4 C27.7715141,4.4 28.3983154,3.77319865 28.3983154,3 C28.3983154,2.22680135 27.7715141,1.6 26.9983154,1.6 C26.2251168,1.6 25.5983154,2.22680135 25.5983154,3 C25.5983154,3.77319865 26.2251168,4.4 26.9983154,4.4 Z M10.9983154,4.4 C11.7715141,4.4 12.3983154,3.77319865 12.3983154,3 C12.3983154,2.22680135 11.7715141,1.6 10.9983154,1.6 C10.2251168,1.6 9.59831543,2.22680135 9.59831543,3 C9.59831543,3.77319865 10.2251168,4.4 10.9983154,4.4 Z" id="Combined-Shape"></path>
            </g>
        </g>
    </g>
</svg>