<?xml version="1.0" encoding="UTF-8"?>
<svg width="60px" height="60px" viewBox="0 0 60 60" version="1.1" xmlns="http://www.w3.org/2000/svg" xmlns:xlink="http://www.w3.org/1999/xlink">
    <!-- Generator: Sketch 52.3 (67297) - http://www.bohemiancoding.com/sketch -->
    <title>icon-camiones-filtros</title>
    <desc>Created with Sketch.</desc>
    <g id="WEB-CentricView-3.0---VSAT-WebApp-Version" stroke="none" stroke-width="1" fill="none" fill-rule="evenodd">
        <g id="camion-lineal">
            <circle id="Oval-Copy-2" stroke="#D8D8D8" stroke-width="1" fill="#FFFFFF" fill-rule="evenodd" cx="30" cy="30" r="29.5"></circle>
            <g id="truck-lineal" transform="translate(19.000000, 17.000000)">
                <path d="M11.0036609,1.95938793 L13.9333909,1.95938793 L15.4919215,3.55504382 L15.4919215,1.09452766 L19.2958658,4.4408921e-14 L19.2958658,14.1698659 L21.0066301,15.1364242 L21.0066301,19.4613307 L22,19.8390001 L22,22.8145133 L20.0578124,23.2334334 L20.0578124,25 L15.4015771,25 L15.4015771,23.2898255 L11.0036609,23.2898255 L6.59842285,23.2898255 L6.59842285,25 L1.94218754,25 L1.94218754,23.2334334 L7.81597009e-14,22.8145133 L7.81597009e-14,19.8390001 L0.99336987,19.4613307 L0.99336987,15.1364242 L2.70413414,14.1698659 L2.70413414,4.4408921e-14 L6.50807842,1.09452766 L6.50807842,3.55504382 L8.06660912,1.95938793 L11.0036609,1.95938793 Z M11.0036609,3.19537943 L8.63319207,3.19537943 L6.50807842,5.25947243 L5.22013081,5.25947243 L5.22013081,2.01207424 L4.05280724,1.677028 L4.05280724,14.9201888 L2.3397381,15.8524839 L2.3397381,20.2946042 L1.24513164,20.7197631 L1.24513164,21.7930789 L3.21133692,22.1686022 L3.21133692,23.7695673 L5.36100912,23.7695673 L5.36100912,22.055768 L11.0036609,22.055768 L16.6389908,22.055768 L16.6389908,23.7695673 L18.7886631,23.7695673 L18.7886631,22.1686022 L20.7548683,21.7930789 L20.7548683,20.7197631 L19.6602618,20.2946042 L19.6602618,15.8524839 L17.9471927,14.9201888 L17.9471927,1.677028 L16.7798692,2.01207424 L16.7798692,5.25947243 L15.4919215,5.25947243 L13.3668079,3.19537943 L11.0036609,3.19537943 Z M4.19047619,18 L7.12380952,18 L7.12380952,19.3 L4.19047619,19.3 L4.19047619,18 Z M14.8745195,18 L17.8078528,18 L17.8078528,19.3 L14.8745195,19.3 L14.8745195,18 Z M8.38095238,14 L13.6190476,14 L13.6190476,19 L8.38095238,19 L8.38095238,14 Z M9.42857143,15 L9.42857143,18 L12.5714286,18 L12.5714286,15 L9.42857143,15 Z M6.28571429,7 L15.7142857,7 L15.7142857,12 L6.28571429,12 L6.28571429,7 Z M7.68253968,8.27695313 L7.68253968,10.7945313 L14.4602803,10.7945313 L14.4602803,8.27695313 L7.68253968,8.27695313 Z" id="Combined-Shape" fill="#EF7622" fill-rule="nonzero"></path>
                <g id="Combined-Shape" stroke-width="1" fill-rule="evenodd" transform="translate(-20.952381, 12.000000)"></g>
            </g>
        </g>
    </g>
</svg>