<?xml version="1.0" encoding="UTF-8"?>
<svg width="27px" height="27px" viewBox="0 0 27 27" version="1.1" xmlns="http://www.w3.org/2000/svg" xmlns:xlink="http://www.w3.org/1999/xlink">
    <!-- Generator: Sketch 52.3 (67297) - http://www.bohemiancoding.com/sketch -->
    <title>icon-up</title>
    <desc>Created with Sketch.</desc>
    <g id="WEB-CentricView-3.0---VSAT-WebApp-Version" stroke="none" stroke-width="1" fill="none" fill-rule="evenodd">
        <g id="icon_left" transform="translate(13.500000, 13.500000) rotate(-270.000000) translate(-13.500000, -13.500000) " fill="#EF7622">
            <path d="M13.5,26.0357143 C6.57671617,26.0357143 0.964285714,20.4232838 0.964285714,13.5 C0.964285714,6.57671617 6.57671617,0.964285714 13.5,0.964285714 C20.4232838,0.964285714 26.0357143,6.57671617 26.0357143,13.5 C26.0357143,20.4232838 20.4232838,26.0357143 13.5,26.0357143 Z M13.5,24.1071429 C19.3581632,24.1071429 24.1071429,19.3581632 24.1071429,13.5 C24.1071429,7.64183676 19.3581632,2.89285714 13.5,2.89285714 C7.64183676,2.89285714 2.89285714,7.64183676 2.89285714,13.5 C2.89285714,19.3581632 7.64183676,24.1071429 13.5,24.1071429 Z" id="Combined-Shape"></path>
            <path d="M12.3460401,13.7953073 L17.0018184,18.4510856 C17.0799233,18.5291905 17.0799233,18.6558234 17.0018184,18.7339283 L15.9209552,19.8147915 C15.8428503,19.8928964 15.7162174,19.8928964 15.6381125,19.8147915 L9.64285714,13.8195362 L9.66708604,13.7953073 L9.64285714,13.7710784 L15.6381125,7.77582303 C15.7162174,7.69771817 15.8428503,7.69771817 15.9209552,7.77582303 L17.0018184,8.85668625 C17.0799233,8.93479111 17.0799233,9.0614241 17.0018184,9.13952896 L12.3460401,13.7953073 Z" id="Combined-Shape"></path>
        </g>
    </g>
</svg>