<?xml version="1.0" encoding="UTF-8"?>
<svg width="20px" height="20px" viewBox="0 0 20 20" version="1.1" xmlns="http://www.w3.org/2000/svg" xmlns:xlink="http://www.w3.org/1999/xlink">
    <!-- Generator: Sketch 52.3 (67297) - http://www.bohemiancoding.com/sketch -->
    <title>icon-view-events</title>
    <desc>Created with Sketch.</desc>
    <g id="WEB-CentricView-3.0---VSAT-WebApp-Version" stroke="none" stroke-width="1" fill="none" fill-rule="evenodd">
        <g id="view" fill="#EF7622">
            <path d="M0,-5.68434189e-14 L3.03333333,-1.93400851e-13 C3.19901876,-1.93725603e-13 3.33333333,0.134314575 3.33333333,0.3 L3.33333333,1.36666667 C3.33333333,1.53235209 3.19901876,1.66666667 3.03333333,1.66666667 L1.86214383,1.66666667 C1.75168688,1.66666667 1.66214383,1.75620972 1.66214383,1.86666667 L1.66214383,3.03333333 C1.66214383,3.19901876 1.52782925,3.33333333 1.36214383,3.33333333 L0.3,3.33333333 C0.134314575,3.33333333 -7.69646115e-15,3.19901876 -1.72084569e-14,3.03333333 L0,-5.68434189e-14 Z M0.3,20 C0.134314575,20 -2.02906125e-17,19.8656854 0,19.7 L-1.70419234e-14,16.9666667 C-7.60350681e-15,16.8009812 0.134314575,16.6666667 0.3,16.6666667 L1.36214383,16.6666667 C1.52782925,16.6666667 1.66214383,16.8009812 1.66214383,16.9666667 L1.66214383,18.1333333 C1.66214383,18.2437903 1.75168688,18.3333333 1.86214383,18.3333333 L3.03333333,18.3333333 C3.19901876,18.3333333 3.33333333,18.4676479 3.33333333,18.6333333 L3.33333333,19.7 C3.33333333,19.8656854 3.19901876,20 3.03333333,20 L0.3,20 Z M19.8,-5.689893e-14 C19.9104569,-5.68786394e-14 20,0.08954305 20,0.2 L20,3.03333333 C20,3.19901876 19.8656854,3.33333333 19.7,3.33333333 L18.6378562,3.33333333 C18.4721707,3.33333333 18.3378562,3.19901876 18.3378562,3.03333333 L18.3378562,1.86666667 C18.3378562,1.75620972 18.2483131,1.66666667 18.1378562,1.66666667 L16.9666667,1.66666667 C16.8009812,1.66666667 16.6666667,1.53235209 16.6666667,1.36666667 L16.6666667,0.3 C16.6666667,0.134314575 16.8009812,-5.65795383e-14 16.9666667,-5.68434189e-14 L19.8,-5.68434189e-14 Z M19.7,20 L16.9666667,20 C16.8009812,20 16.6666667,19.8656854 16.6666667,19.7 L16.6666667,18.6333333 C16.6666667,18.4676479 16.8009812,18.3333333 16.9666667,18.3333333 L18.1378562,18.3333333 C18.2483131,18.3333333 18.3378562,18.2437903 18.3378562,18.1333333 L18.3378562,16.9666667 C18.3378562,16.8009812 18.4721707,16.6666667 18.6378562,16.6666667 L19.7,16.6666667 C19.8656854,16.6666667 20,16.8009812 20,16.9666667 L20,19.7 C20,19.8656854 19.8656854,20 19.7,20 Z M10.0260957,5 C12.4271237,5 15.3383523,6.54267909 18.7597816,9.62803726 L18.7597663,9.62805428 C18.9648308,9.8129763 18.9811596,10.1291229 18.7962375,10.3341874 C18.7845208,10.3471804 18.7721301,10.3595494 18.7591167,10.3712434 C15.3251048,13.4570811 12.4053993,15 10,15 C7.59506228,15 4.67601563,13.4576732 1.24286006,10.3730197 L1.24285091,10.3730298 C1.03743604,10.1884668 1.02053232,9.87232721 1.20509537,9.66691235 C1.21731526,9.65331187 1.23027194,9.64039188 1.24390702,9.62821061 C4.69762652,6.54273687 7.62502276,5 10.0260957,5 Z M10.0189787,6.66666667 C8.20396,6.66666667 5.97541154,7.77777778 3.33333333,10 C5.95959596,12.2222222 8.18181818,13.3333333 10,13.3333333 C11.8181818,13.3333333 14.040404,12.2222222 16.6666667,10 C14.0498934,7.77777778 11.8339974,6.66666667 10.0189787,6.66666667 Z M10,12.5 C8.61928813,12.5 7.5,11.3807119 7.5,10 C7.5,8.61928813 8.61928813,7.5 10,7.5 C11.3807119,7.5 12.5,8.61928813 12.5,10 C12.5,11.3807119 11.3807119,12.5 10,12.5 Z M10,11.25 C10.6903559,11.25 11.25,10.6903559 11.25,10 C11.25,9.30964406 10.6903559,8.75 10,8.75 C9.30964406,8.75 8.75,9.30964406 8.75,10 C8.75,10.6903559 9.30964406,11.25 10,11.25 Z" id="Combined-Shape"></path>
        </g>
    </g>
</svg>