<?xml version="1.0" encoding="UTF-8"?>
<svg width="30px" height="30px" viewBox="0 0 30 30" version="1.1" xmlns="http://www.w3.org/2000/svg" xmlns:xlink="http://www.w3.org/1999/xlink">
    <!-- Generator: Sketch 55.2 (78181) - https://sketchapp.com -->
    <title>icon-uptime</title>
    <desc>Created with Sketch.</desc>
    <g id="WEB-CentricView-3.0---VSAT-WebApp-Version" stroke="none" stroke-width="1" fill="none" fill-rule="evenodd">
        <g id="uptime" fill="#646569">
            <path d="M15,1.88888978 C11.4978897,1.88888978 8.205399,3.25267789 5.72904378,5.72904378 C3.25267789,8.205399 1.88888978,11.4978897 1.88888978,15 C1.88888978,18.5020998 3.25267789,21.7945878 5.72904378,24.2709567 C8.205399,26.7473222 11.4978897,28.11111 15,28.11111 C18.5020998,28.11111 21.7945878,26.7473222 24.2709567,24.2709567 C26.7473222,21.7945878 28.11111,18.5020998 28.11111,15 C28.11111,11.4978897 26.7473222,8.205399 24.2709567,5.72904378 C21.7945878,3.25267789 18.5020998,1.88888978 15,1.88888978 Z M15,0 C23.2842678,0 30,6.71572156 30,15 C30,23.2842678 23.2842678,30 15,30 C6.71572156,30 0,23.2842678 0,15 C0,6.71572156 6.71572156,0 15,0 Z M16,12.487281 L16,20.6 C16,20.8209139 15.8209139,21 15.6,21 L14.4,21 C14.1790861,21 14,20.8209139 14,20.6 L14,12.5901489 L11.0493832,15.5407657 C10.8931735,15.6969754 10.6399075,15.6969754 10.4836978,15.5407657 L9.63516968,14.6922375 C9.47895996,14.5360278 9.47895996,14.2827618 9.63516968,14.1265521 L13.6372204,10.1245014 L13.6340393,10.1213203 L15.0482529,8.70710678 L20.4222644,14.0811183 C20.5784741,14.237328 20.5784741,14.490594 20.4222644,14.6468037 L19.5737363,15.4953319 C19.4175266,15.6515416 19.1642606,15.6515416 19.0080508,15.4953319 L16,12.487281 Z" id="Combined-Shape"></path>
        </g>
    </g>
</svg>