<?xml version="1.0" encoding="UTF-8"?>
<svg width="30px" height="30px" viewBox="0 0 30 30" version="1.1" xmlns="http://www.w3.org/2000/svg" xmlns:xlink="http://www.w3.org/1999/xlink">
    <!-- Generator: Sketch 55.2 (78181) - https://sketchapp.com -->
    <title>icon-last-contact</title>
    <desc>Created with Sketch.</desc>
    <g id="WEB-CentricView-3.0---VSAT-WebApp-Version" stroke="none" stroke-width="1" fill="none" fill-rule="evenodd">
        <g id="clock" fill="#646569" fill-rule="nonzero">
            <path d="M15,0 C23.2798423,0.0106177606 29.9893822,6.72015766 30,15 C30,23.2842664 23.2842664,30 15,30 C6.71573359,30 0,23.2842664 0,15 C0,6.71573359 6.71573359,0 15,0 Z M15.999407,25.4861819 L16.0036737,27.9916079 C22.4011297,27.4965734 27.4913303,22.4010738 27.9771551,16.0004687 L25.4645757,16.0004687 C25.126967,16.0004687 24.8760875,15.7384033 24.8760875,15.0195375 C24.8760875,14.3006717 25.1241272,14.0083836 25.4617359,14.0083836 L27.9682019,14.0083836 C27.9617069,13.8723417 27.9788197,14.1366842 27.9682019,14.001778 C27.4658643,7.61922521 22.3841643,2.54232546 15.999407,2.04732312 C15.9128423,2.04061187 15.9128423,2.04016935 15.999407,2.04599556 L15.999407,4.55241511 C15.999407,4.8900176 15.6945703,5.14057658 14.9969433,5.14057658 C14.2993164,5.14057658 14.0037267,4.8900176 14.0037267,4.55241511 L14.0037267,2.04599556 C14.0882533,2.03991145 14.0882533,2.04011609 14.0037267,2.04660949 C7.6124266,2.53759358 2.52475752,7.61964702 2.02516651,14.0083836 C2.01824732,14.0968658 2.01723988,14.0968658 2.02214421,14.0083836 L4.52861023,14.0083836 C4.86621898,14.0083836 5.1177992,14.4082157 5.1177992,15.0195375 C5.1177992,15.6308594 4.84407477,16.0020623 4.50646602,16.0020623 C2.84965832,15.9871104 2.02182269,15.9871104 2.02295913,16.0020623 C2.50961071,22.4048304 7.60382206,27.5016883 14.0054975,27.9926015 L14.0054975,25.4861819 C14.0054975,25.1485795 14.2389272,24.8984985 14.9969433,24.8984985 C15.7549595,24.8984985 15.999407,25.1485795 15.999407,25.4861819 Z M15,8.19356609 C15.5522847,8.19356609 16,8.64128134 16,9.19356609 L16,14.2354362 L22.1756111,20.6430941 C22.5394484,21.0206025 22.5320013,21.6205243 22.158905,21.9888847 C21.7899613,22.3531453 21.1955818,22.3493489 20.8313212,21.9804052 C20.829631,21.9786933 20.8279474,21.9769749 20.8262704,21.97525 L14.1415055,15.0996102 C14.0507651,15.0062788 14,14.8812392 14,14.7510679 L14,9.19356609 C14,8.64128134 14.4477153,8.19356609 15,8.19356609 Z" id="Combined-Shape"></path>
        </g>
    </g>
</svg>