<?xml version="1.0" encoding="UTF-8"?>
<svg width="17px" height="17px" viewBox="0 0 17 17" version="1.1" xmlns="http://www.w3.org/2000/svg" xmlns:xlink="http://www.w3.org/1999/xlink">
    <!-- Generator: Sketch 55 (78076) - https://sketchapp.com -->
    <title>icon_pantalla</title>
    <desc>Created with Sketch.</desc>
    <g id="WEB-CentricView-3.0---VSAT-WebApp-Version" stroke="none" stroke-width="1" fill="none" fill-rule="evenodd">
        <g id="icon_pantalla" transform="translate(0.000000, 0.326843)" fill="#646569">
            <path d="M7.89285714,14.7692308 L9.10714286,14.7692308 L9.10714286,13.5384615 L7.89285714,13.5384615 L7.89285714,14.7692308 Z M6.07142857,14.7692308 L6.07142857,13.5384615 L2,13.5384615 C0.8954305,13.5384615 1.11632554e-15,12.643031 0,11.5384615 L0,2 C-1.3527075e-16,0.8954305 0.8954305,2.02906125e-16 2,0 L15,0 C16.1045695,-2.02906125e-16 17,0.8954305 17,2 L17,11.5384615 C17,12.643031 16.1045695,13.5384615 15,13.5384615 L10.9285714,13.5384615 L10.9285714,14.7692308 L11.6428571,14.7692308 C11.9189995,14.7692308 12.1428571,14.9930884 12.1428571,15.2692308 L12.1428571,15.5 C12.1428571,15.7761424 11.9189995,16 11.6428571,16 L5.35714286,16 C5.08100048,16 4.85714286,15.7761424 4.85714286,15.5 L4.85714286,15.2692308 C4.85714286,14.9930884 5.08100048,14.7692308 5.35714286,14.7692308 L6.07142857,14.7692308 Z M15.3607834,9.463968 L15.3607834,2.72943115 C15.3607834,2.1771464 14.9130681,1.72943115 14.3607834,1.72943115 L2.69412043,1.72943115 C2.14183568,1.72943115 1.69412043,2.1771464 1.69412043,2.72943115 L1.69412043,9.463968 L15.3607834,9.463968 Z M15.3578291,10.9408911 L1.69707473,10.9408911 C1.73660366,11.4569861 2.16789495,11.8634478 2.69412043,11.8634478 L14.3607834,11.8634478 C14.8870089,11.8634478 15.3183001,11.4569861 15.3578291,10.9408911 Z" id="Combined-Shape"></path>
        </g>
    </g>
</svg>