<?xml version="1.0" encoding="UTF-8"?>
<svg width="60px" height="60px" viewBox="0 0 60 60" version="1.1" xmlns="http://www.w3.org/2000/svg" xmlns:xlink="http://www.w3.org/1999/xlink">
    <!-- Generator: Sketch 52.3 (67297) - http://www.bohemiancoding.com/sketch -->
    <title>icon-antenas-filtros-naranja</title>
    <desc>Created with Sketch.</desc>
    <g id="WEB-CentricView-3.0---VSAT-WebApp-Version" stroke="none" stroke-width="1" fill="none" fill-rule="evenodd">
        <g id="antenas-flatnaranja">
            <circle id="Oval-Copy" fill="#EF7622" fill-rule="evenodd" cx="30" cy="30" r="30"></circle>
            <g id="antena-bcolineal" transform="translate(16.000000, 19.000000)" fill="#FFFFFF" fill-rule="nonzero">
                <path d="M12,11.7137481 L12,21 C6.4771525,21 2,16.5228475 2,11 C2,5.4771525 6.4771525,1 12,1 L12,10.4137481 L13.0426566,10.4137481 C13.3262881,8.48252623 14.9900128,7 17,7 C19.209139,7 21,8.790861 21,11 C21,13.209139 19.209139,15 17,15 C15.0344773,15 13.4000666,13.5823405 13.0634948,11.7137481 L12,11.7137481 Z M17,13.5549098 C18.2686433,13.5549098 19.6153739,12.6568542 19.6153739,11 C19.6153739,9.34314575 18.2172154,8.41043527 17,8.41043527 C15.7827846,8.41043527 14.3759068,9.34314575 14.3759068,11 C14.3759068,12.6568542 15.7313567,13.5549098 17,13.5549098 Z M20,4.89605713 L20.962677,4 C23.2396545,5.93308512 24.3781433,8.27249146 24.3781433,11.018219 C24.3781433,13.7639465 23.2520955,16.1017747 21,18.0317034 L20,17.1293422 C22.0640567,15.3786243 23.096085,13.3415833 23.096085,11.018219 C23.096085,8.69485474 22.0640567,6.65413411 20,4.89605713 Z M22.2904663,2.77420044 L23.2618408,1.88650513 C26.1864014,4.25671823 27.6486816,7.29454985 27.6486816,11 C27.6486816,14.7054501 26.1864014,17.7376535 23.2618408,20.0966099 L22.2904663,19.2008231 C25.0079043,17.0123465 26.3666233,14.2787388 26.3666233,11 C26.3666233,7.72126116 25.0079043,4.97932797 22.2904663,2.77420044 Z M10.6482928,19.4105903 L10.6482928,2.70355903 C7.44936343,2.70355903 3.43402778,5.94719329 3.43402778,11.0852141 C3.43402778,16.223235 8,19.4105903 10.6482928,19.4105903 Z" id="Combined-Shape"></path>
            </g>
        </g>
    </g>
</svg>