<?xml version="1.0" encoding="UTF-8"?>
<svg width="15px" height="16px" viewBox="0 0 15 16" version="1.1" xmlns="http://www.w3.org/2000/svg" xmlns:xlink="http://www.w3.org/1999/xlink">
    <!-- Generator: Sketch 52.3 (67297) - http://www.bohemiancoding.com/sketch -->
    <title>icon_delete</title>
    <desc>Created with Sketch.</desc>
    <g id="AVI-Customer" stroke="none" stroke-width="1" fill="none" fill-rule="evenodd">
        <g id="icon_delete" fill="#E12E1A">
            <path d="M10.4123197,2.66666667 L14.4742932,2.66666667 L14.4742932,3.89198756 L13.1864021,3.89198756 L12.1809062,15.4024453 C12.1535479,15.7188044 11.8904144,15.9616089 11.5751735,15.9616089 L2.87862265,15.9616089 C2.56341265,15.9616089 2.30046088,15.7189876 2.27289088,15.4026622 L1.26742147,3.89198756 L3.55271368e-15,3.89198756 L3.55271368e-15,2.66666667 L4.41176471,2.66666667 L4.41176471,1.0211064 C4.41176471,0.458061911 4.86645882,2.27373675e-13 5.42536147,2.27373675e-13 L9.39872294,2.27373675e-13 C9.95759824,2.27373675e-13 10.4123197,0.458061911 10.4123197,1.0211064 L10.4123197,2.66666667 Z M9.19600059,2.66666667 L9.19600059,1.22532771 L5.62809706,1.22532771 L5.62809706,2.66666667 L9.19600059,2.66666667 Z M10.6758344,5.37824 L10.4123197,12.6279733 L9.19677265,12.5832356 L9.46033147,5.33333333 L10.6758344,5.37824 Z M7.05882353,5.33333333 L8.27513979,5.33333333 L8.27513979,12.5832808 L7.05882353,12.5832808 L7.05882353,5.33333333 Z M5.89082647,12.5832622 L4.67531559,12.6281778 L4.41176471,5.37826667 L5.62728882,5.33333333 L5.89082647,12.5832622 Z M11.0181203,14.7362809 L11.9654471,3.89198756 L2.48841,3.89198756 L3.43552324,14.7362809 L11.0181203,14.7362809 Z" id="Combined-Shape"></path>
        </g>
    </g>
</svg>