<?xml version="1.0" encoding="UTF-8"?>
<svg width="22px" height="22px" viewBox="0 0 22 22" version="1.1" xmlns="http://www.w3.org/2000/svg" xmlns:xlink="http://www.w3.org/1999/xlink">
    <!-- Generator: Sketch 52.3 (67297) - http://www.bohemiancoding.com/sketch -->
    <title>icon-status</title>
    <desc>Created with Sketch.</desc>
    <g id="WEB-CentricView-3.0---VSAT-WebApp-Version" stroke="none" stroke-width="1" fill="none" fill-rule="evenodd">
        <g id="status" fill="#EF7622" fill-rule="nonzero">
            <path d="M12.0858561,13.5782536 C12.367128,13.8553435 12.5415039,14.2406413 12.5415039,14.6666667 C12.5415039,15.510435 11.8574945,16.1944444 11.0137261,16.1944444 C10.1699578,16.1944444 9.48594835,15.510435 9.48594835,14.6666667 C9.48594835,14.234349 9.66551327,13.843971 9.95412869,13.5660471 L9.95412869,7.11111111 C9.95412869,6.55882636 10.4018439,6.11111111 10.9541287,6.11111111 L11.0858561,6.11111111 C11.6381409,6.11111111 12.0858561,6.55882636 12.0858561,7.11111111 L12.0858561,13.5782536 Z M10.999758,0 C17.0651356,0 22,4.93486438 22,11.000242 C22,17.0661035 17.0651356,22 10.999758,22 C4.93438043,22 0,17.0661035 0,11.000242 C0,4.93486438 4.93438043,0 10.999758,0 Z M10.999758,20.0908071 C15.6887745,20.0908071 19.5599111,16.5173013 20.0395081,11.9560483 L18.7434831,11.9560483 C18.2150069,11.9560483 17.7871929,11.5219428 17.7871929,10.9949185 C17.7871929,10.4674102 18.2150069,10.0337887 18.7434831,10.0337887 L20.0399921,10.0337887 C19.8517345,8.24509998 19.1422601,6.61079214 18.0649816,5.28137443 L17.1512792,6.19991641 C16.9649574,6.38623815 16.7205614,6.479641 16.4756814,6.479641 C16.2312853,6.479641 15.9873732,6.38623815 15.8000836,6.19991641 C15.4279241,5.82678897 15.428892,5.22184826 15.8020194,4.84872083 L16.7176577,3.93598627 C15.3887239,2.8591918 13.7539321,2.14923338 11.9657274,1.96097582 L11.9657274,3.25651686 C11.9657274,3.78402517 11.5321059,4.21183924 11.0041136,4.21183924 C10.4766053,4.21183924 10.0429838,3.78402517 10.0429838,3.25651686 L10.0429838,1.96097582 C8.25477903,2.14874942 6.61563167,2.85870785 5.2866979,3.93550232 L6.20088431,4.84872083 C6.57401175,5.22184826 6.57401175,5.82678897 6.20088431,6.19991641 C6.01407862,6.38623815 5.76968257,6.47915704 5.52528652,6.47915704 C5.28089047,6.47915704 5.03601047,6.38430234 4.84968873,6.1979806 L3.93550232,5.28185838 C2.85870785,6.61079214 2.14874942,8.24558393 1.96049187,10.0342726 L3.25700081,10.0342726 C3.78499307,10.0342726 4.21280714,10.4678941 4.21280714,10.9954025 C4.21280714,11.5229108 3.78499307,11.9565323 3.25700081,11.9565323 L1.96049187,11.9565323 C2.43960492,16.5173013 6.3112255,20.0908071 10.999758,20.0908071 Z" id="Combined-Shape"></path>
        </g>
    </g>
</svg>