<?xml version="1.0" encoding="UTF-8"?>
<svg width="21px" height="16px" viewBox="0 0 21 16" version="1.1" xmlns="http://www.w3.org/2000/svg" xmlns:xlink="http://www.w3.org/1999/xlink">
    <!-- Generator: Sketch 52.3 (67297) - http://www.bohemiancoding.com/sketch -->
    <title>icon-trends-tab</title>
    <desc>Created with Sketch.</desc>
    <g id="WEB-CentricView-3.0---VSAT-WebApp-Version" stroke="none" stroke-width="1" fill="none" fill-rule="evenodd">
        <g id="icon_trendes" fill="#EF7622">
            <g id="icon_trends">
                <g id="Group">
                    <path d="M1,4.57142857 L4.44444444,4.57142857 C4.99672919,4.57142857 5.44444444,5.01914382 5.44444444,5.57142857 L5.44444444,16 L1,16 C0.44771525,16 1.02816872e-14,15.5522847 1.02140518e-14,15 L1.02140518e-14,5.57142857 C1.01464165e-14,5.01914382 0.44771525,4.57142857 1,4.57142857 Z M1.55213759,6.09819461 L1.55213759,14.4761905 L3.88888889,14.4761905 L3.88888889,6.09819461 L1.55213759,6.09819461 Z" id="Combined-Shape"></path>
                    <path d="M8.77777778,-3.73034936e-14 L12.2222222,-3.73034936e-14 C12.774507,-3.74049467e-14 13.2222222,0.44771525 13.2222222,1 L13.2222222,16 L7.77777778,16 L7.77777778,1 C7.77777778,0.44771525 8.22549303,-3.72020406e-14 8.77777778,-3.73034936e-14 Z M9.33342617,1.52380952 L9.33342617,14.4761905 L11.6702705,14.4761905 L11.6702705,1.52380952 L9.33342617,1.52380952 Z" id="Combined-Shape-Copy-2"></path>
                    <path d="M3.88888889,9.14285714 L9.33333333,9.14285714 L9.33333333,16 L3.88888889,16 L3.88888889,9.14285714 Z M5.44444444,10.6611726 L5.44444444,14.4761905 L7.77777778,14.4761905 L7.77777778,10.6611726 L5.44444444,10.6611726 Z" id="Combined-Shape-Copy"></path>
                    <path d="M11.6666667,6.0952381 L17.1111111,6.0952381 L17.1111111,16 L11.6666667,16 L11.6666667,6.0952381 Z M13.2233288,7.63202516 L13.2233288,14.4761905 L15.5583262,14.4761905 L15.5583262,7.63202516 L13.2233288,7.63202516 Z" id="Combined-Shape-Copy-3"></path>
                    <path d="M16.5555556,1.52380952 L20,1.52380952 C20.5522847,1.52380952 21,1.97152477 21,2.52380952 L21,15 C21,15.5522847 20.5522847,16 20,16 L15.5555556,16 L15.5555556,2.52380952 C15.5555556,1.97152477 16.0032708,1.52380952 16.5555556,1.52380952 Z M17.1111111,3.04761905 L17.1111111,14.4761905 L19.4478624,14.4761905 L19.4478624,3.04761905 L17.1111111,3.04761905 Z" id="Combined-Shape-Copy-4"></path>
                </g>
            </g>
        </g>
    </g>
</svg>