<?xml version="1.0" encoding="UTF-8"?>
<svg width="14px" height="19px" viewBox="0 0 14 19" version="1.1" xmlns="http://www.w3.org/2000/svg" xmlns:xlink="http://www.w3.org/1999/xlink">
    <!-- Generator: Sketch 52.3 (67297) - http://www.bohemiancoding.com/sketch -->
    <title>MAPS_BLANCO</title>
    <desc>Created with Sketch.</desc>
    <g id="Symbols" stroke="none" stroke-width="1" fill="none" fill-rule="evenodd">
        <g id="MAPS_BLANCO" fill="#FFFFFF">
            <path d="M13.833102,17.848538 L11.394152,12.6894152 C11.345477,12.5864727 11.261149,12.5075933 11.160014,12.4645597 L9.94667302,11.9244053 L12.049067,8.40077608 C12.054087,8.39232178 12.058825,8.38375778 12.063334,8.37501348 C12.481326,7.55916378 12.693278,6.67755188 12.693278,5.75482008 C12.693278,4.20257778 12.084582,2.74735278 10.979319,1.65725284 C9.87421702,0.567405986 8.41018202,-0.0212386058 6.85699702,0.000585795974 C5.34852102,0.0215068702 3.92820202,0.627423096 2.85761502,1.70679148 C1.78713502,2.78608748 1.19267502,4.21128628 1.18371802,5.71995178 C1.17822502,6.64188828 1.39606702,7.55995858 1.81355502,8.37497728 C1.81803402,8.38368628 1.82276402,8.39228548 1.82778402,8.40074078 L3.93015502,11.9243338 L2.70979602,12.4674494 C2.60996502,12.5118572 2.52938302,12.5905907 2.48269902,12.6893789 L0.0438260185,17.848538 C-0.0378009815,18.021073 -0.00336198154,18.226238 0.130107018,18.362713 C0.263552018,18.499188 0.467776018,18.538283 0.642191018,18.460671 L3.69752702,17.100403 L6.75286302,18.460671 C6.87105802,18.513243 7.00601402,18.513243 7.12420102,18.460671 L10.179553,17.100403 L13.234881,18.460671 C13.294573,18.487227 13.357768,18.500162 13.420428,18.500162 C13.540782,18.500162 13.65919,18.45254 13.746958,18.362747 C13.880328,18.226238 13.914729,18.021147 13.833102,17.848538 Z M3,7.90756572 C2.68472915,7.26622681 2.52697042,6.57323151 2.53114292,5.84755181 C2.54501808,3.41960221 4.65380899,1.48168716 6.99994883,1.44806463 C8.17178754,1.43177302 9.16630423,1.8258091 10,2.67649148 C10.8339486,3.52737478 11.2472733,4.66322694 11.2472733,5.87487207 C11.2472733,6.5908633 11.0895074,7.27464123 10.7783203,7.90756572 L7.35147372,13.722745 C7.24396614,13.909127 7.06984203,13.9292391 6.99994883,13.9292391 C6.93002156,13.9292391 6.75589745,13.909127 6.64842394,13.722745 L3,7.90756572 Z M10.139589,15.810103 C10.021394,15.7575288 9.88643796,15.7575288 9.76824396,15.810103 L7.01635742,17.2003211 L4.17089855,15.810103 C4.05270355,15.7575288 3.91774755,15.7575288 3.79956055,15.810103 L1.97073514,16.6059158 L3.51722434,13.3740032 L4.56112393,13 L5.76234702,14.9952137 C6.01181302,15.4133465 6.45148002,15.6629898 6.93837202,15.6629898 C7.42526502,15.6629898 7.86493202,15.4133465 8.11439802,14.9952499 L9.34441584,13 L10.3913574,13.4490856 L12.0406634,16.6059158 L10.139589,15.810103 Z M7,9 C5.34314575,9 4,7.65685425 4,6 C4,4.34314575 5.34314575,3 7,3 C8.65685425,3 10,4.34314575 10,6 C10,7.65685425 8.65685425,9 7,9 Z M7,7.68227915 C7.91723633,7.68227915 8.65114183,6.78840501 8.65114183,6 C8.65114183,5.21159499 7.88563583,4.35637019 7,4.35637019 C6.11436417,4.35637019 5.3286884,5.10956838 5.3286884,6 C5.3286884,6.89043162 6.08276367,7.68227915 7,7.68227915 Z" id="Fill-18"></path>
        </g>
    </g>
</svg>