<?xml version="1.0" encoding="UTF-8"?>
<svg width="24px" height="24px" viewBox="0 0 24 24" version="1.1" xmlns="http://www.w3.org/2000/svg" xmlns:xlink="http://www.w3.org/1999/xlink">
    <!-- Generator: Sketch 52.3 (67297) - http://www.bohemiancoding.com/sketch -->
    <title>icon-alert</title>
    <desc>Created with Sketch.</desc>
    <g id="WEB-CentricView-3.0---VSAT-WebApp-Version" stroke="none" stroke-width="1" fill="none" fill-rule="evenodd">
        <g id="alert1" fill="#EF7622">
            <path d="M1.89975583,11.9997546 C1.89975583,17.5689157 6.43059627,22.0997562 11.9997574,22.0997562 C17.5689181,22.0997562 22.0997587,17.5689157 22.0997587,11.9997546 C22.0997587,6.43059389 17.5689181,1.89975335 11.9997574,1.89975335 C6.43059627,1.89975335 1.89975583,6.43059389 1.89975583,11.9997546 Z M-0.000243998248,11.9997546 C-0.000243997281,5.37233376 5.37233625,-0.000246879216 11.9997574,-0.000246878248 C18.6271782,-0.000246877281 23.9997589,5.37233377 23.9997589,11.9997546 C23.9997589,18.6271758 18.6271782,23.999756 11.9997574,23.999756 C5.37233624,23.999756 -0.000243999216,18.6271758 -0.000243998248,11.9997546 Z M11,4 L13.4000001,4 L13.4000001,15 L11,15 L11,4 Z M11,17 L13.4000001,17 L13.4000001,19.4000001 L11,19.4000001 L11,17 Z" id="Combined-Shape"></path>
        </g>
    </g>
</svg>