<?xml version="1.0" encoding="UTF-8"?>
<svg width="28px" height="30px" viewBox="0 0 28 30" version="1.1" xmlns="http://www.w3.org/2000/svg" xmlns:xlink="http://www.w3.org/1999/xlink">
    <!-- Generator: Sketch 52.3 (67297) - http://www.bohemiancoding.com/sketch -->
    <title>icon-telepuerto</title>
    <desc>Created with Sketch.</desc>
    <defs>
        <path d="M11.0071465,23.8294689 C5.82783912,22.5427194 2,17.9942821 2,12.5806452 C2,6.16701581 7.372583,0.967741935 14,0.967741935 C20.627417,0.967741935 26,6.16701581 26,12.5806452 C26,17.9942821 22.1721609,22.5427194 16.9928535,23.8294689 L14,27.0967742 L11.0071465,23.8294689 Z" id="path-1"></path>
        <filter x="-11.5%" y="-6.7%" width="122.9%" height="123.9%" filterUnits="objectBoundingBox" id="filter-2">
            <feMorphology radius="0.5" operator="dilate" in="SourceAlpha" result="shadowSpreadOuter1"></feMorphology>
            <feOffset dx="0" dy="1.5" in="shadowSpreadOuter1" result="shadowOffsetOuter1"></feOffset>
            <feGaussianBlur stdDeviation="0.5" in="shadowOffsetOuter1" result="shadowBlurOuter1"></feGaussianBlur>
            <feComposite in="shadowBlurOuter1" in2="SourceAlpha" operator="out" result="shadowBlurOuter1"></feComposite>
            <feColorMatrix values="0 0 0 0 0.239215686   0 0 0 0 0.403921569   0 0 0 0 0.42745098  0 0 0 0.7 0" type="matrix" in="shadowBlurOuter1"></feColorMatrix>
        </filter>
    </defs>
    <g id="WEB-CentricView-3.0---VSAT-WebApp-Version" stroke="none" stroke-width="1" fill="none" fill-rule="evenodd">
        <g id="TELEPUERTO">
            <g id="Combined-Shape">
                <use fill="black" fill-opacity="1" filter="url(#filter-2)" xlink:href="#path-1"></use>
                <use stroke="#FF7E25" stroke-width="1" fill="#FFFFFF" fill-rule="evenodd" xlink:href="#path-1"></use>
            </g>
            <path d="M18.9885168,8.38457172 C19.0298734,8.38702323 19.0710849,8.38824898 19.1121514,8.38824898 C19.571863,8.38824898 20.0103885,8.23339434 20.3586549,7.94602116 C21.1416739,7.29949956 21.2184376,6.17574779 20.5297408,5.44069892 C19.8410439,4.70565005 18.6435879,4.63373865 17.8604238,5.28012403 C17.4811036,5.59323825 17.2544402,6.02634097 17.2220805,6.49948529 C17.2177271,6.56390591 17.2172918,6.62791793 17.2201941,6.69152139 L15.3389749,7.80778239 L14.7473574,7.17651472 L12.699696,4.99166129 C12.5622758,4.84497836 12.3240036,4.83054162 12.167719,4.95965526 C10.9828876,5.93767748 10.2747459,7.29037443 10.1738938,8.76823536 C10.0991616,9.86066208 10.3632636,10.9247601 10.9268748,11.8547052 L9.50710869,17.0287846 L8.04714685,18.8085917 L8,19.516129 L20.1068873,19.516129 L20.1068873,18.8085917 L18.6469255,17.0287846 L17.9219509,14.3871304 C18.6562126,14.1605005 19.3544867,13.7946785 19.9703379,13.2861233 C20.0455053,13.2241542 20.0912153,13.1367165 20.0976002,13.04315 C20.1039851,12.9495834 20.0704644,12.8573789 20.0044389,12.7868294 L18.0374593,10.6877794 C18.0364435,10.6865536 18.0355728,10.685464 18.034557,10.6842382 L17.3928761,9.99958182 L18.7734623,8.35964788 C18.8441313,8.37149692 18.9158162,8.38021346 18.9885168,8.38457172 Z M17.5043089,7.55222243 C17.5586178,7.63376705 17.6203334,7.71173341 17.6893379,7.78531009 C17.7576097,7.85820134 17.8312295,7.92498937 17.90945,7.9854527 C17.9378823,8.0074304 17.5541994,8.45314396 16.7584013,9.32259337 L15.9574414,8.46783086 C16.9827726,7.84854572 17.4983951,7.54334291 17.5043089,7.55222243 Z M18.4531499,5.94925226 C18.6312478,5.80221792 18.852343,5.73016206 19.0725999,5.73016206 C19.3333389,5.73016206 19.5928803,5.83122009 19.7781643,6.0289521 C19.9438061,6.20566314 20.0262078,6.43239732 20.0101586,6.66722515 C19.9941095,6.9021654 19.8815258,7.11709638 19.6932475,7.27256163 C19.5049692,7.42791444 19.2633933,7.50525362 19.013194,7.49019048 C18.9681605,7.4874926 18.9238457,7.4817596 18.8803692,7.47321632 L18.137197,6.68026489 C18.1338434,6.63878502 18.1333643,6.59674307 18.1362388,6.5544763 C18.152288,6.31964848 18.2648717,6.1046051 18.4531499,5.94925226 Z M17.4692925,16.8333436 L10.7992523,16.8333436 C11.4763894,14.2577127 11.8237831,12.9783956 11.8414334,12.9953925 C12.9892606,14.100729 14.5274184,14.6648337 16.0726562,14.6648337 C16.3176545,14.6648337 16.5627769,14.6505081 16.8065222,14.6219331 C16.8227299,14.6200331 17.0436533,15.3571699 17.4692925,16.8333436 Z M12.6886738,12.0249019 C11.8943948,11.177191 11.3968656,10.1589292 11.4737068,9.03225806 C11.5437007,8.00900692 11.6952925,7.31695878 12.4541941,6.59373274 L18.3865609,12.9243703 C17.5812502,13.4976433 17.0295518,13.5196105 16.0757576,13.5196105 C14.8252499,13.5194914 13.5775461,12.9732955 12.6886738,12.0249019 Z" id="Shape" fill="#FF7E25" fill-rule="nonzero"></path>
        </g>
    </g>
</svg>