<?xml version="1.0" encoding="UTF-8"?>
<svg width="27px" height="27px" viewBox="0 0 27 27" version="1.1" xmlns="http://www.w3.org/2000/svg" xmlns:xlink="http://www.w3.org/1999/xlink">
    <!-- Generator: sketchtool 52.3 (67297) - http://www.bohemiancoding.com/sketch -->
    <title>EE014E99-1350-4943-8518-EFC4ECF95BDC</title>
    <desc>Created with sketchtool.</desc>
    <g id="Page-1" stroke="none" stroke-width="1" fill="none" fill-rule="evenodd">
        <g id="HOME" transform="translate(-1868.000000, -68.000000)" fill="#EF7622">
            <g id="MENU-DERECHO" transform="translate(1650.000000, 60.000000)">
                <g id="DEVICES">
                    <g id="icon_left" transform="translate(231.500000, 21.500000) scale(-1, 1) translate(-231.500000, -21.500000) translate(218.000000, 8.000000)">
                        <polygon id="Fill-497" points="9 13.330818 9.0095 13.321365 9 13.31192 15.615 6.696922 17.0291 8.110817 11.8188 13.320823 17.0298 18.531021 15.615 19.945823"></polygon>
                        <path d="M13.5,1.7000008 C10.3481007,1.7000008 7.3848591,2.9274101 5.1561394,5.1561394 C2.9274101,7.3848591 1.7000008,10.3481007 1.7000008,13.5 C1.7000008,16.6518898 2.9274101,19.615129 5.1561394,21.843861 C7.3848591,24.07259 10.3481007,25.299999 13.5,25.299999 C16.6518898,25.299999 19.615129,24.07259 21.843861,21.843861 C24.07259,19.615129 25.299999,16.6518898 25.299999,13.5 C25.299999,10.3481007 24.07259,7.3848591 21.843861,5.1561394 C19.615129,2.9274101 16.6518898,1.7000008 13.5,1.7000008 Z M13.5,0 C20.955841,0 27,6.0441494 27,13.5 C27,20.955841 20.955841,27 13.5,27 C6.0441494,27 0,20.955841 0,13.5 C0,6.0441494 6.0441494,0 13.5,0 Z" id="Fill-499"></path>
                    </g>
                </g>
            </g>
        </g>
    </g>
</svg>