<?xml version="1.0" encoding="UTF-8"?>
<svg width="30px" height="15px" viewBox="0 0 30 15" version="1.1" xmlns="http://www.w3.org/2000/svg" xmlns:xlink="http://www.w3.org/1999/xlink">
    <!-- Generator: Sketch 52.3 (67297) - http://www.bohemiancoding.com/sketch -->
    <title>icon-tracking-maps-tabs</title>
    <desc>Created with Sketch.</desc>
    <g id="WEB-CentricView-3.0---VSAT-WebApp-Version" stroke="none" stroke-width="1" fill="none" fill-rule="evenodd">
        <g id="icon_tracking-bco" fill="#FFFFFF">
            <path d="M17.5662287,8.96158704 C17.9922028,8.71280183 18.4806923,8.57142857 19,8.57142857 C19.559072,8.57142857 20.0824256,8.73528116 20.5305103,9.02061096 L24.4192369,4.85411816 C24.1529291,4.37402741 24,3.81329147 24,3.21428571 C24,1.43908473 25.3431458,0 27,0 C28.6568542,0 30,1.43908473 30,3.21428571 C30,4.9894867 28.6568542,6.42857143 27,6.42857143 C26.5208095,6.42857143 26.0678596,6.30819701 25.6660545,6.0941312 L21.6878558,10.3564869 C21.8876505,10.7869924 22,11.2722959 22,11.7857143 C22,13.5609153 20.6568542,15 19,15 C17.3431458,15 16,13.5609153 16,11.7857143 C16,11.2293136 16.1319482,10.7059323 16.3641474,10.2495318 L12.4337704,6.0384135 C12.0077965,6.28719837 11.5193073,6.42857143 11,6.42857143 C10.5208095,6.42857143 10.0678596,6.30819701 9.66605445,6.0941312 L5.68785578,10.3564869 C5.88765055,10.7869924 6,11.2722959 6,11.7857143 C6,13.5609153 4.65685425,15 3,15 C1.34314575,15 0,13.5609153 0,11.7857143 C0,10.0105133 1.34314575,8.57142857 3,8.57142857 C3.55907204,8.57142857 4.08242558,8.73528116 4.53051028,9.02061096 L8.4192369,4.85411816 C8.15292908,4.37402741 8,3.81329147 8,3.21428571 C8,1.43908473 9.34314575,0 11,0 C12.6568542,0 14,1.43908473 14,3.21428571 C14,3.77068682 13.8680516,4.29406842 13.6358521,4.75046923 L17.5662287,8.96158704 Z M3,12.8571429 C3.55228475,12.8571429 4,12.3774479 4,11.7857143 C4,11.1939806 3.55228475,10.7142857 3,10.7142857 C2.44771525,10.7142857 2,11.1939806 2,11.7857143 C2,12.3774479 2.44771525,12.8571429 3,12.8571429 Z M11,4.28571429 C11.5522847,4.28571429 12,3.80601937 12,3.21428571 C12,2.62255205 11.5522847,2.14285714 11,2.14285714 C10.4477153,2.14285714 10,2.62255205 10,3.21428571 C10,3.80601937 10.4477153,4.28571429 11,4.28571429 Z M27,4.28571429 C27.5522847,4.28571429 28,3.80601937 28,3.21428571 C28,2.62255205 27.5522847,2.14285714 27,2.14285714 C26.4477153,2.14285714 26,2.62255205 26,3.21428571 C26,3.80601937 26.4477153,4.28571429 27,4.28571429 Z M19,12.8571429 C19.5522847,12.8571429 20,12.3774479 20,11.7857143 C20,11.1939806 19.5522847,10.7142857 19,10.7142857 C18.4477153,10.7142857 18,11.1939806 18,11.7857143 C18,12.3774479 18.4477153,12.8571429 19,12.8571429 Z" id="Combined-Shape"></path>
        </g>
    </g>
</svg>