<?xml version="1.0" encoding="UTF-8"?>
<svg width="19px" height="15px" viewBox="0 0 19 15" version="1.1" xmlns="http://www.w3.org/2000/svg" xmlns:xlink="http://www.w3.org/1999/xlink">
    <!-- Generator: Sketch 52.3 (67297) - http://www.bohemiancoding.com/sketch -->
    <title>icon-antenna</title>
    <desc>Created with Sketch.</desc>
    <g id="WEB-CentricView-3.0---VSAT-WebApp-Version" stroke="none" stroke-width="1" fill="none" fill-rule="evenodd">
        <g id="antena" transform="translate(-1.000000, 0.000000)" fill="#EF7622">
            <g id="Combined-Shape" transform="translate(1.379310, 0.681818)">
                <path d="M6.89655172,7.30482825 L6.89655172,13.6363636 C3.08769138,13.6363636 -1.97353245e-12,10.5837597 -1.97353245e-12,6.81818182 C-1.97353245e-12,3.05260398 3.08769138,0 6.89655172,0 L6.89655172,6.41846461 L7.61562524,6.41846461 C7.81123317,5.10172243 8.95862952,4.09090909 10.3448276,4.09090909 C11.8683717,4.09090909 13.1034483,5.31195068 13.1034483,6.81818182 C13.1034483,8.32441295 11.8683717,9.54545455 10.3448276,9.54545455 C8.98929469,9.54545455 7.8621149,8.57886852 7.62999641,7.30482825 L6.89655172,7.30482825 Z M10.3448276,8.56016577 C11.219754,8.56016577 12.1485337,7.94785514 12.1485337,6.81818182 C12.1485337,5.68850847 11.1842865,5.0525695 10.3448276,5.0525695 C9.50536869,5.0525695 8.53510814,5.68850847 8.53510814,6.81818182 C8.53510814,7.94785514 9.46990117,8.56016577 10.3448276,8.56016577 Z M12.4137931,2.65640259 L13.0777083,2.04545455 C14.6480376,3.36346713 15.4332023,4.9585169 15.4332023,6.83060386 C15.4332023,8.7026908 14.6566176,10.2966646 13.1034483,11.612525 L12.4137931,10.9972788 C13.8372805,9.80360748 14.5490241,8.41471589 14.5490241,6.83060386 C14.5490241,5.24649187 13.8372805,3.85509144 12.4137931,2.65640259 Z M13.993425,1.20968212 L14.6633385,0.604435316 C16.6802768,2.2204897 17.6887459,4.29173853 17.6887459,6.81818182 C17.6887459,9.34462507 16.6802768,11.4120365 14.6633385,13.0204158 L13.993425,12.4096521 C15.8675202,10.917509 16.8045678,9.05368555 16.8045678,6.81818182 C16.8045678,4.58267806 15.8675202,2.71317816 13.993425,1.20968212 Z M5.96433988,12.5526752 L5.96433988,1.16151752 C3.75818167,1.16151752 0.988984674,3.37308633 0.988984674,6.87628235 C0.988984674,10.3794784 4.13793103,12.5526752 5.96433988,12.5526752 Z" fill-rule="nonzero"></path>
            </g>
        </g>
    </g>
</svg>