<?xml version="1.0" encoding="UTF-8"?>
<svg width="15px" height="16px" viewBox="0 0 15 16" version="1.1" xmlns="http://www.w3.org/2000/svg" xmlns:xlink="http://www.w3.org/1999/xlink">
    <!-- Generator: Sketch 52.3 (67297) - http://www.bohemiancoding.com/sketch -->
    <title>icon-delete-element</title>
    <desc>Created with Sketch.</desc>
    <g id="WEB-CentricView-3.0---VSAT-WebApp-Version" stroke="none" stroke-width="1" fill="none" fill-rule="evenodd">
        <g id="icon_delete" fill="#E12E1A">
            <polygon id="Fill-147" points="10.6758344 5.37824 9.46033147 5.33333333 9.19677265 12.5832356 10.4123197 12.6279733"></polygon>
            <polygon id="Fill-149" points="7.05882353 5.33333333 8.27513979 5.33333333 8.27513979 12.5832808 7.05882353 12.5832808"></polygon>
            <polygon id="Fill-151" points="5.89082647 12.5832622 5.62728882 5.33333333 4.41176471 5.37826667 4.67531559 12.6281778"></polygon>
            <path d="M-2.25597319e-13,2.66666667 L-2.25597319e-13,3.89198756 L1.26742147,3.89198756 L2.27289088,15.4026622 C2.30046088,15.7189876 2.56341265,15.9616089 2.87862265,15.9616089 L11.5751735,15.9616089 C11.8904144,15.9616089 12.1535479,15.7188044 12.1809062,15.4024453 L13.1864021,3.89198756 L14.4742932,3.89198756 L14.4742932,2.66666667 L-2.25597319e-13,2.66666667 Z M11.0181203,14.7362809 L3.43552324,14.7362809 L2.48841,3.89198756 L11.9654471,3.89198756 L11.0181203,14.7362809 Z" id="Fill-153"></path>
            <path d="M9.39872294,2.27373675e-13 L5.42536147,2.27373675e-13 C4.86645882,2.27373675e-13 4.41176471,0.458061911 4.41176471,1.0211064 L4.41176471,2.96123929 L5.62809706,2.96123929 L5.62809706,1.22532771 L9.19600059,1.22532771 L9.19600059,2.96123929 L10.4123197,2.96123929 L10.4123197,1.0211064 C10.4123197,0.458061911 9.95759824,2.27373675e-13 9.39872294,2.27373675e-13 Z" id="Fill-155"></path>
        </g>
    </g>
</svg>