<?xml version="1.0" encoding="UTF-8"?>
<svg width="20px" height="17px" viewBox="0 0 20 17" version="1.1" xmlns="http://www.w3.org/2000/svg" xmlns:xlink="http://www.w3.org/1999/xlink">
    <!-- Generator: Sketch 52.3 (67297) - http://www.bohemiancoding.com/sketch -->
    <title>icon-platfomr</title>
    <desc>Created with Sketch.</desc>
    <g id="WEB-CentricView-3.0---VSAT-WebApp-Version" stroke="none" stroke-width="1" fill="none" fill-rule="evenodd">
        <g id="plataforma-linealnaranja" fill="#EF7622" fill-rule="nonzero">
            <path d="M16.7784288,15.9143274 L16.7784288,13.4922366 L20,13.4922366 C20,13.3715664 20,10.0916001 20,9.91866012 L17.6171875,9.91866012 L17.6171875,5.11418504 L16.4453125,5.11418504 L16.4453125,2.73180071 L10.5859375,2.73180071 L10.5859375,5.11418504 L9.4140625,5.11418504 L9.4140625,9.91866012 L8.16482543,9.91866012 L6.99295043,1.54060854 L5.79677221,1.54060854 L5.79677221,2.47376861e-13 L4.86445917,1.77635684e-15 L4.86445917,1.54060854 L3.66590712,1.54060854 L2.46017457,9.91866012 L-8.52651283e-14,9.91866012 L-8.52651283e-14,13.4922366 L3.01312934,13.4922366 L3.01312934,15.9907346 L-2.27373675e-13,15.9907346 L5.68434189e-14,16.9616206 L19.9996948,17 L20,15.9143274 L16.7784288,15.9143274 Z M11.5375208,3.69157342 L15.4922027,3.69157342 L15.4922027,5.11418504 L11.5375208,5.11418504 L11.5375208,3.69157342 Z M10.3830866,6.08509857 L16.6758802,6.08509857 L16.6758802,9.91866012 L10.3830866,9.91866012 L10.3830866,6.08509857 Z M6.12781666,2.45287987 L6.33061162,3.92299287 L4.29879861,3.92299287 L4.49697422,2.45287987 L6.12781666,2.45287987 Z M4.15529604,4.90053563 L6.46509241,4.90053563 L7.18259171,9.91866012 L3.44211155,9.91866012 L4.15529604,4.90053563 Z M0.962501808,10.760344 L19.0421323,10.760344 L19.0421323,12.6226847 L0.962501808,12.6226847 L0.962501808,10.760344 Z M3.9871781,15.989935 L3.9871781,13.4667308 L7.45899342,13.4667308 L7.45899342,15.989935 L3.9871781,15.989935 Z M8.42640064,15.966442 L8.42640064,13.4432378 L11.5910961,13.4432378 L11.5910961,15.966442 L8.42640064,15.966442 Z M12.5498454,15.9679862 L12.5498454,13.444782 L15.8160626,13.444782 L15.8160626,15.9679862 L12.5498454,15.9679862 Z" id="Shape"></path>
        </g>
    </g>
</svg>