<?xml version="1.0" encoding="UTF-8"?>
<svg width="26px" height="28px" viewBox="0 0 26 28" version="1.1" xmlns="http://www.w3.org/2000/svg" xmlns:xlink="http://www.w3.org/1999/xlink">
    <!-- Generator: Sketch 52.3 (67297) - http://www.bohemiancoding.com/sketch -->
    <title>icon-boya</title>
    <desc>Created with Sketch.</desc>
    <g id="WEB-CentricView-3.0---VSAT-WebApp-Version" stroke="none" stroke-width="1" fill="none" fill-rule="evenodd">
        <g id="boya">
            <path d="M10.0071465,24.6237846 C4.82783912,23.2941433 1,18.5940915 1,13 C1,6.372583 6.372583,1 13,1 C19.627417,1 25,6.372583 25,13 C25,18.5940915 21.1721609,23.2941433 15.9928535,24.6237846 L13,28 L10.0071465,24.6237846 Z" id="Combined-Shape" stroke="#1E3484" stroke-width="1" fill="#2C49B6"></path>
            <g id="boya_marca" transform="translate(5.000000, 3.000000)" fill="#FFFFFF">
                <path d="M0.300647633,13.9347912 L2.24548862,13.9347912 L4.00442959,5.90843601 L4.00442959,4.28886021 C4.00442959,4.12317479 4.13874417,3.98886021 4.30442959,3.98886021 L4.94726814,3.98886021 C4.79718133,1.32962007 5.7608532,1.87119171e-12 7.83828376,1.15818466e-12 C9.91571432,4.45462363e-13 10.8937525,1.32962007 10.7723983,3.98886021 L11.444447,3.98886021 C11.6101324,3.98886021 11.744447,4.12317479 11.744447,4.28886021 L11.744447,5.90843601 L13.5304713,13.9347912 L15.3402047,13.9347579 C15.4945995,13.9347579 15.6237883,14.0519304 15.6388138,14.2055923 C15.7187001,15.0225681 15.6694204,15.8137076 15.4909747,16.5790109 C15.305881,17.3728256 14.997082,18.07338 14.5645775,18.680674 L14.5645523,18.6806561 C14.5077887,18.7603598 14.4157177,18.8073678 14.3178698,18.8066029 C13.3976942,18.7994096 12.7266921,18.7330033 12.3048636,18.6073838 C11.8598854,18.4748704 11.3490637,18.174287 10.7723983,17.7056338 C10.1853001,18.4275117 9.2790212,18.7947178 8.05356154,18.8072521 C6.92748903,18.8187699 5.87864644,18.4515638 4.90703376,17.7056338 C4.43511091,18.1931856 3.96876253,18.4937689 3.50798862,18.6073838 C3.06975844,18.7154399 2.38082525,18.7446788 1.44118905,18.6951004 L1.44119125,18.6950587 C1.34741789,18.6901109 1.26137295,18.6415343 1.20869072,18.5638007 C0.802979567,17.9651669 0.503005952,17.3035702 0.308769871,16.5790109 C0.122863674,15.8855245 0.0201815645,15.1063842 0.000723542444,14.2415898 L0.000673303366,14.2415909 C-0.00305432826,14.0759197 0.128226911,13.9385948 0.293898158,13.9348671 C0.296147627,13.9348165 0.298397594,13.9347912 0.300647633,13.9347912 Z M5.10959344,7.24712143 L10.6449046,7.24575489 L10.5145207,6.64009114 L10.5145207,5.33582357 C10.5145207,5.28059509 10.4697492,5.23582357 10.4145207,5.23582357 L5.33804504,5.23582357 C5.28281657,5.23582357 5.23804504,5.28059509 5.23804504,5.33582357 L5.23804504,6.64009114 L5.10959344,7.24712143 Z M4.2322265,11.393339 L11.5392092,11.4000089 L10.9194358,8.52101641 L4.83877381,8.52694753 L4.2322265,11.393339 Z M3.51725168,14.7721318 C3.51293071,14.7925516 3.51075254,14.8133666 3.51075254,14.8342385 C3.51075254,14.999924 3.64506711,15.1342385 3.81075254,15.1342385 L11.9716383,15.1342385 C11.992862,15.1342385 12.0140258,15.1319863 12.0347742,15.1275197 C12.1967489,15.0926507 12.2997885,14.9330773 12.2649195,14.7711026 L11.8174494,12.6924994 L3.95568195,12.7002196 L3.51725168,14.7721318 Z M6.07335863,4.02965844 L9.64185364,4.02965844 C9.77408743,2.14781552 9.17276949,1.20689407 7.8378998,1.20689407 C6.5030301,1.20689407 5.91484971,2.14781552 6.07335863,4.02965844 Z" id="Combined-Shape"></path>
            </g>
        </g>
    </g>
</svg>