<?xml version="1.0" encoding="UTF-8"?>
<svg width="19px" height="18px" viewBox="0 0 19 18" version="1.1" xmlns="http://www.w3.org/2000/svg" xmlns:xlink="http://www.w3.org/1999/xlink">
    <!-- Generator: Sketch 52.3 (67297) - http://www.bohemiancoding.com/sketch -->
    <title>icon-dow</title>
    <desc>Created with Sketch.</desc>
    <g id="WEB-CentricView-3.0---VSAT-WebApp-Version" stroke="none" stroke-width="1" fill="none" fill-rule="evenodd">
        <g id="icon_dow" fill="#EF7622">
            <path d="M15.165556,4.07880947 C14.9661593,3.00525916 14.3794769,2.02550779 13.4821975,1.28201021 C12.4852227,0.455131895 11.1891515,2.25597319e-13 9.83939681,2.25597319e-13 C8.79640587,2.25597319e-13 7.78025585,0.270991895 6.90981863,0.781714421 C6.18509365,1.20557747 5.58307238,1.77883389 5.1574398,2.45284579 C4.97338243,2.42157789 4.7816558,2.404206 4.58992956,2.404206 C2.96025519,2.404206 1.63350894,3.60630663 1.63350894,5.08288074 C1.63350894,5.27396684 1.65651623,5.45810305 1.69486127,5.63876905 C0.640366158,6.33362116 -1.11910481e-13,7.45234389 -1.11910481e-13,8.64402632 C-1.11910481e-13,9.60640484 0.394956325,10.5409895 1.11584747,11.2810121 C1.85591107,12.0384038 2.83371595,12.4865886 3.87670661,12.5387034 C3.88821082,12.5387034 3.8958796,12.5387034 3.90738391,12.5387034 L6.90507597,12.5387034 C7.0707614,12.5387034 7.20507597,12.4043888 7.20507597,12.2387034 L7.20507597,11.3240351 C7.20507597,11.1583497 7.0707614,11.0240351 6.90507597,11.0240351 L3.922721,11.0240351 C2.59552246,10.9033409 1.50325439,10.2259354 1.425,8.64402632 C1.37638856,7.66134822 2.05355155,6.9771826 2.99301025,6.48036081 C3.21157865,6.36570839 3.30360734,6.1259825 3.21924762,5.91057839 C3.14255735,5.72296724 3.10421203,5.52493124 3.10421203,5.31300018 C3.10421203,4.35409755 3.87670661,3.78947368 4.7492787,3.78947368 C4.97551626,3.78947368 5.32601809,3.82421653 5.53308275,3.89370126 C5.78616123,3.97708579 6.06608196,3.87285632 6.18111736,3.65397726 C6.89817366,2.27468558 8.15603909,1.56325041 9.83939681,1.56325041 C12.1017677,1.56325041 13.5014724,3.04694811 13.7162048,5.08288074 C13.7392125,5.29481274 13.9156007,5.465052 14.1456707,5.49979389 C15.8520358,5.76383968 17.1793867,6.61156674 17.1793867,8.24100726 C17.1793867,9.96772926 16.112684,10.8920136 14.2644415,11.0205592 L11.7383941,11.0205592 C11.5727086,11.0205592 11.4383941,11.1548738 11.4383941,11.3205592 L11.4383941,12.2352303 C11.4383941,12.4009157 11.5727086,12.5352303 11.7383941,12.5352303 L14.2836132,12.5352303 C14.2951165,12.5352303 14.3066208,12.5352303 14.3219601,12.5352303 C15.4914916,12.4587957 16.5843305,11.972394 17.3972502,11.1594107 C18.2063358,10.3533764 18.6473049,9.31803537 18.6473049,8.24100726 C18.6434726,6.29193505 17.1748457,4.55826505 15.165556,4.07880947 Z" id="Stroke-179"></path>
            <path d="M6.59331743,14.904449 L9.13304396,17.4371636 C9.22890162,17.5327682 9.36309995,17.590126 9.49731063,17.590126 C9.63152141,17.590126 9.76571945,17.5365904 9.86158975,17.4371636 L12.3922256,14.9135028 C12.5090047,14.7970456 12.5098803,14.6081617 12.394186,14.4906268 L11.7640349,13.8504507 C11.6478058,13.7323725 11.4578622,13.7308736 11.339784,13.8471027 C11.3388177,13.8480538 11.3378579,13.8490115 11.3369046,13.8499757 L10.2807813,14.9181384 L10.2807813,9.34253589 C10.2807813,9.17685047 10.1464667,9.04253589 9.98078125,9.04253589 L9.04491699,9.04253589 C8.87923157,9.04253589 8.74491699,9.17685047 8.74491699,9.34253589 L8.74491699,14.9181384 L7.66530016,13.7739331 C7.55159352,13.653424 7.3617241,13.6479094 7.24121492,13.7616161 C7.23533164,13.7671672 7.22967528,13.7729541 7.22425971,13.7789624 L6.58231673,14.4911691 C6.47532525,14.6098713 6.48016269,14.7916066 6.59331743,14.904449 Z" id="Stroke-183"></path>
        </g>
    </g>
</svg>