<?xml version="1.0" encoding="UTF-8"?>
<svg width="28px" height="27px" viewBox="0 0 28 27" version="1.1" xmlns="http://www.w3.org/2000/svg" xmlns:xlink="http://www.w3.org/1999/xlink">
    <!-- Generator: Sketch 52.3 (67297) - http://www.bohemiancoding.com/sketch -->
    <title>icon_salir</title>
    <desc>Created with Sketch.</desc>
    <g id="Page-1" stroke="none" stroke-width="1" fill="none" fill-rule="evenodd">
        <g id="HOME" transform="translate(-1867.000000, -17.000000)">
            <g id="HEADER">
                <g id="icon_salir" transform="translate(1867.000000, 17.000000)">
                    <path d="M14.1667,1.7000008 C11.0148007,1.7000008 8.0515591,2.9274101 5.8228394,5.1561394 C3.5941101,7.3848591 2.3667008,10.3481007 2.3667008,13.5 C2.3667008,16.6518898 3.5941101,19.615129 5.8228394,21.843861 C8.0515591,24.07259 11.0148007,25.299999 14.1667,25.299999 C17.3185898,25.299999 20.281829,24.07259 22.510561,21.843861 C24.73929,19.615129 25.966699,16.6518898 25.966699,13.5 C25.966699,10.3481007 24.73929,7.3848591 22.510561,5.1561394 C20.281829,2.9274101 17.3185898,1.7000008 14.1667,1.7000008 Z M14.1667,0 C21.622541,0 27.6667,6.0441494 27.6667,13.5 C27.6667,20.955841 21.622541,27 14.1667,27 C6.7108494,27 0.6667,20.955841 0.6667,13.5 C0.6667,6.0441494 6.7108494,0 14.1667,0 Z" id="Fill-513" fill="#EF7622"></path>
                    <g id="Group-516" stroke-width="1" transform="translate(13.000000, 9.000000)">
                        <path d="M3.844013,0.84507 C3.573917,0.574913 3.135776,0.574867 2.865573,0.845024 C2.595416,1.115227 2.595386,1.553253 2.865573,1.823471 L4.913226,3.871216 L1.202213,3.871216 C0.820117,3.871216 0.510349,4.180992 0.510349,4.563072 C0.510349,4.945191 0.820117,5.254952 1.202213,5.254952 L4.91315,5.254952 L2.865573,7.302521 C2.595386,7.572724 2.595386,8.010765 2.865573,8.280953 C3.000675,8.416062 3.177753,8.483582 3.354816,8.483582 C3.531894,8.483582 3.708972,8.416062 3.844013,8.280953 L7.07265,5.05233 C7.342838,4.782196 7.342838,4.344086 7.07265,4.073883 L3.844013,0.84507 Z" id="Fill-514" fill="#EF7622"></path>
                        <path d="M3.844013,0.84507 C3.573917,0.574913 3.135776,0.574867 2.865573,0.845024 C2.595416,1.115227 2.595386,1.553253 2.865573,1.823471 L4.913226,3.871216 L1.202213,3.871216 C0.820117,3.871216 0.510349,4.180992 0.510349,4.563072 C0.510349,4.945191 0.820117,5.254952 1.202213,5.254952 L4.91315,5.254952 L2.865573,7.302521 C2.595386,7.572724 2.595386,8.010765 2.865573,8.280953 C3.000675,8.416062 3.177753,8.483582 3.354816,8.483582 C3.531894,8.483582 3.708972,8.416062 3.844013,8.280953 L7.07265,5.05233 C7.342838,4.782196 7.342838,4.344086 7.07265,4.073883 L3.844013,0.84507 Z" id="Stroke-515" stroke="#EF7622" stroke-width="0.30000001"></path>
                    </g>
                    <g id="Group-519" stroke-width="1" transform="translate(9.000000, 6.000000)">
                        <path d="M7.3547779,14.2511559 C7.736877,14.2511559 8.046651,13.9413834 8.046651,13.5592871 C8.046651,13.1771898 7.736877,12.8674164 7.3547779,12.8674164 L2.0504414,12.8674164 L2.0504414,2.2587404 L7.3547779,2.2587404 C7.736877,2.2587404 8.046651,1.9489672 8.046651,1.5668701 C8.046651,1.18477356 7.736877,0.875 7.3547779,0.875 L1.3585697,0.875 C0.9764744,0.875 0.666701,1.18477356 0.666701,1.5668701 L0.666701,13.5592871 C0.666701,13.9413834 0.9764744,14.2511559 1.3585697,14.2511559 L7.3547779,14.2511559 Z" id="Fill-517" fill="#EF7622"></path>
                        <path d="M7.3547779,14.2511559 C7.736877,14.2511559 8.046651,13.9413834 8.046651,13.5592871 C8.046651,13.1771898 7.736877,12.8674164 7.3547779,12.8674164 L2.0504414,12.8674164 L2.0504414,2.2587404 L7.3547779,2.2587404 C7.736877,2.2587404 8.046651,1.9489672 8.046651,1.5668701 C8.046651,1.18477356 7.736877,0.875 7.3547779,0.875 L1.3585697,0.875 C0.9764744,0.875 0.666701,1.18477356 0.666701,1.5668701 L0.666701,13.5592871 C0.666701,13.9413834 0.9764744,14.2511559 1.3585697,14.2511559 L7.3547779,14.2511559 Z" id="Stroke-518" stroke="#EF7622" stroke-width="0.30000001"></path>
                    </g>
                </g>
            </g>
        </g>
    </g>
</svg>