<?xml version="1.0" encoding="UTF-8"?>
<svg width="60px" height="60px" viewBox="0 0 60 60" version="1.1" xmlns="http://www.w3.org/2000/svg" xmlns:xlink="http://www.w3.org/1999/xlink">
    <!-- Generator: Sketch 52.3 (67297) - http://www.bohemiancoding.com/sketch -->
    <title>icon-camiones-filtros-naranja</title>
    <desc>Created with Sketch.</desc>
    <g id="WEB-CentricView-3.0---VSAT-WebApp-Version" stroke="none" stroke-width="1" fill="none" fill-rule="evenodd">
        <g id="camion-flat">
            <circle id="Oval-Copy-2" fill="#EF7622" fill-rule="evenodd" cx="30" cy="30" r="30"></circle>
            <g id="truck-lineal-bco" transform="translate(20.000000, 18.000000)" fill="#FFFFFF" fill-rule="nonzero">
                <path d="M9.97831979,1.72426138 L12.6350522,1.72426138 L14.0483561,3.12843856 L14.0483561,0.963184342 L17.497842,4.4408921e-14 L17.497842,12.469482 L19.0491941,13.3200533 L19.0491941,17.125971 L19.95,17.4583201 L19.95,20.0767717 L18.188789,20.4454214 L18.188789,22 L13.9664302,22 L13.9664302,20.4950464 L9.97831979,20.4950464 L5.98356981,20.4950464 L5.98356981,22 L1.76121097,22 L1.76121097,20.4454214 L7.81597009e-14,20.0767717 L7.81597009e-14,17.4583201 L0.90080586,17.125971 L0.90080586,13.3200533 L2.452158,12.469482 L2.452158,4.4408921e-14 L5.90164384,0.963184342 L5.90164384,3.12843856 L7.31494782,1.72426138 L9.97831979,1.72426138 Z M9.97831979,2.8119339 L7.82873553,2.8119339 L5.90164384,4.62833574 L4.73370953,4.62833574 L4.73370953,1.77062533 L3.67515929,1.47578464 L3.67515929,13.1297662 L2.12171705,13.9501858 L2.12171705,17.8592517 L1.12910801,18.2333915 L1.12910801,19.1779094 L2.91209871,19.5083699 L2.91209871,20.9172192 L4.86146054,20.9172192 L4.86146054,19.4090759 L9.97831979,19.4090759 L15.0885394,19.4090759 L15.0885394,20.9172192 L17.0379013,20.9172192 L17.0379013,19.5083699 L18.8208919,19.1779094 L18.8208919,18.2333915 L17.8282829,17.8592517 L17.8282829,13.9501858 L16.2748407,13.1297662 L16.2748407,1.47578464 L15.2162905,1.77062533 L15.2162905,4.62833574 L14.0483561,4.62833574 L12.1212644,2.8119339 L9.97831979,2.8119339 Z M3.8,15.84 L6.46,15.84 L6.46,16.984 L3.8,16.984 L3.8,15.84 Z M13.4884847,15.84 L16.1484847,15.84 L16.1484847,16.984 L13.4884847,16.984 L13.4884847,15.84 Z M7.6,12.32 L12.35,12.32 L12.35,16.72 L7.6,16.72 L7.6,12.32 Z M8.55,13.2 L8.55,15.84 L11.4,15.84 L11.4,13.2 L8.55,13.2 Z M5.7,6.16 L14.25,6.16 L14.25,10.56 L5.7,10.56 L5.7,6.16 Z M6.96666667,7.28371875 L6.96666667,9.4991875 L13.1128451,9.4991875 L13.1128451,7.28371875 L6.96666667,7.28371875 Z" id="Combined-Shape"></path>
            </g>
        </g>
    </g>
</svg>