<?xml version="1.0" encoding="UTF-8"?>
<svg width="13px" height="14px" viewBox="0 0 13 14" version="1.1" xmlns="http://www.w3.org/2000/svg" xmlns:xlink="http://www.w3.org/1999/xlink">
    <!-- Generator: Sketch 55 (78076) - https://sketchapp.com -->
    <title>id-number</title>
    <desc>Created with Sketch.</desc>
    <g id="WEB-CentricView-3.0---VSAT-WebApp-Version" stroke="none" stroke-width="1" fill="none" fill-rule="evenodd">
        <g id="id-number" transform="translate(0.000000, 0.520508)" fill="#636569">
            <path d="M5.47636911,3.44679002 L8.00499282,3.65308799 L8.3030303,0 L10,0 L9.69074196,3.79061997 L13,4.06060606 L13,5.75757576 L9.55320998,5.47636911 L9.34691201,8.00499282 L13,8.3030303 L13,10 L9.20938003,9.69074196 L8.93939394,13 L7.24242424,13 L7.52363089,9.55320998 L4.99500718,9.34691201 L4.6969697,13 L3,13 L3.30925804,9.20938003 L8.8817842e-15,8.93939394 L0,7.24242424 L3.44679002,7.52363089 L3.65308799,4.99500718 L1.0658141e-14,4.6969697 L0,3 L3.79061997,3.30925804 L4.06060606,0 L5.75757576,0 L5.47636911,3.44679002 Z M5.33883713,5.13253916 L5.13253916,7.66116287 L7.66116287,7.86746084 L7.86746084,5.33883713 L5.33883713,5.13253916 Z" id="Combined-Shape"></path>
        </g>
    </g>
</svg>