<?xml version="1.0" encoding="UTF-8"?>
<svg width="191px" height="25px" viewBox="0 0 191 25" version="1.1" xmlns="http://www.w3.org/2000/svg" xmlns:xlink="http://www.w3.org/1999/xlink">
    <!-- Generator: Sketch 52.3 (67297) - http://www.bohemiancoding.com/sketch -->
    <title>logo_cv bloanco</title>
    <desc>Created with Sketch.</desc>
    <g id="CentricView-3.0---App-Mobile" stroke="none" stroke-width="1" fill="none" fill-rule="evenodd">
        <g id="1.-LOGIN-MOBIL" transform="translate(-109.000000, -295.000000)" fill="#FFFFFF">
            <g id="logo_cv-bloanco" transform="translate(109.000000, 295.000000)">
                <path d="M16.3527397,8.34191176 C16.0311663,6.03676471 13.8386202,4.29779412 11.3208464,4.29779412 C6.77496748,4.29779412 5.06478151,8.19117647 5.06478151,12.25 C5.06478151,16.1102941 6.77496748,20.0073529 11.3208464,20.0073529 C14.4196449,20.0073529 16.1590648,17.8639706 16.5464146,14.8125 L21.4504094,14.8125 C20.9351611,20.5882353 16.9666526,24.2647059 11.3281549,24.2647059 C4.19507155,24.2647059 -1.0658141e-14,18.9191176 -1.0658141e-14,12.2352941 C-1.0658141e-14,5.35294118 4.19507155,0 11.3281549,0 C16.3856279,0 20.6428216,2.98529412 21.2567345,8.34191176 L16.3527397,8.34191176 Z M28.1924887,16.4522059 C28.3203872,19.3933824 29.741888,20.7058824 32.2888957,20.7058824 C34.1160174,20.7058824 35.610603,19.5698529 35.9029425,18.5294118 L39.9226104,18.5294118 C38.6326624,22.4889706 35.9029425,24.1764706 32.1171462,24.1764706 C26.8586898,24.1764706 23.6027589,20.5441176 23.6027589,15.3529412 C23.6027589,10.3235294 27.0523647,6.49264706 32.1171462,6.49264706 C37.7958407,6.49264706 40.5219063,11.2977941 40.2149499,16.4558824 L28.1924887,16.4522059 Z M35.6434912,13.5330882 C35.2232532,11.1948529 34.2256448,9.96323529 31.9892477,9.96323529 C29.0841241,9.96323529 28.2473024,12.2352941 28.181526,13.5330882 L35.6434912,13.5330882 Z M42.933707,6.94485294 L47.2895653,6.94485294 L47.2895653,9.28308824 L47.3845756,9.28308824 C48.4900868,7.51914639 50.4279941,6.46074073 52.5005166,6.48897059 C57.3716232,6.48897059 58.5957948,9.25 58.5957948,13.4044118 L58.5957948,23.7242647 L53.9987564,23.7242647 L53.9987564,14.2463235 C53.9987564,11.4889706 53.1911686,10.125 51.0753616,10.125 C48.590476,10.125 47.5270911,11.5220588 47.5270911,14.9264706 L47.5270911,23.7242647 L42.933707,23.7242647 L42.933707,6.94485294 Z M67.8702648,6.94485294 L71.2248603,6.94485294 L71.2248603,10.0294118 L67.8702648,10.0294118 L67.8702648,18.3345588 C67.8702648,19.8933824 68.2539604,20.2830882 69.8033596,20.2830882 C70.2802619,20.287724 70.7564399,20.2446196 71.2248603,20.1544118 L71.2248603,23.7536765 C70.337628,23.878683 69.442068,23.9339972 68.5462998,23.9191176 C65.7398408,23.9191176 63.2878434,23.2683824 63.2878434,19.9264706 L63.2878434,10.0294118 L60.5142726,10.0294118 L60.5142726,6.94485294 L63.2878434,6.94485294 L63.2878434,1.91544118 L67.8702648,1.91544118 L67.8702648,6.94485294 Z M73.4174064,6.94485294 L77.7696105,6.94485294 L77.7696105,10.0588235 L77.8353869,10.0588235 C78.7601157,7.92085954 80.8423695,6.52472601 83.1596197,6.48897059 C83.4985787,6.49280916 83.8349768,6.54859667 84.1572281,6.65441176 L84.1572281,10.9375 C83.6158809,10.8281646 83.0649634,10.7739695 82.5128186,10.7757353 C79.158223,10.7757353 77.9961736,13.2095588 77.9961736,16.1617647 L77.9961736,23.7242647 L73.4174064,23.7242647 L73.4174064,6.94485294 Z M90.6727443,4.34926471 L86.0939772,4.34926471 L86.0939772,0.551470588 L90.6727443,0.551470588 L90.6727443,4.34926471 Z M86.0939772,6.94485294 L90.6727443,6.94485294 L90.6727443,23.7242647 L86.0939772,23.7242647 L86.0939772,6.94485294 Z M105.640526,12.8676471 C105.351841,10.9852941 104.156903,9.97794118 102.253042,9.97794118 C99.3296472,9.97794118 98.3503099,12.9632353 98.3503099,15.4301471 C98.3503099,17.8308824 99.2857963,20.7205882 102.158032,20.7205882 C104.284801,20.7205882 105.512627,19.3566176 105.812275,17.3125 L110.23391,17.3125 C109.652885,21.7573529 106.579666,24.1911765 102.194574,24.1911765 C97.1626808,24.1911765 93.789814,20.6213235 93.789814,15.5919118 C93.789814,10.3676471 96.8849583,6.50367647 102.304201,6.50367647 C106.239822,6.50367647 109.853869,8.58088235 110.142554,12.8676471 L105.640526,12.8676471 Z M110.833206,0.551470588 L113.190193,0.551470588 L120.674084,21.2904412 L120.736206,21.2904412 L128.157974,0.551470588 L130.478419,0.551470588 L121.931143,23.7132353 L119.373173,23.7132353 L110.833206,0.551470588 Z M132.155717,0.551470588 L134.187476,0.551470588 L134.187476,3.83088235 L132.155717,3.83088235 L132.155717,0.551470588 Z M132.155717,6.97794118 L134.187476,6.97794118 L134.187476,23.7242647 L132.155717,23.7242647 L132.155717,6.97794118 Z M139.285146,15.9007353 C139.318034,18.8860294 140.867433,22.4889706 144.766511,22.4889706 C147.733757,22.4889706 149.345278,20.7389706 149.992079,18.2058824 L152.01653,18.2058824 C151.143166,22.0036765 148.95062,24.2095588 144.759203,24.2095588 C139.467858,24.2095588 137.242424,20.1213235 137.242424,15.3492647 C137.242424,10.9375 139.467858,6.48897059 144.759203,6.48897059 C150.112669,6.48897059 152.243093,11.1948529 152.06769,15.9007353 L139.285146,15.9007353 Z M150.057856,14.1801471 C149.962845,11.0992647 148.058984,8.20955882 144.770165,8.20955882 C141.481346,8.20955882 139.606719,11.1507353 139.2888,14.1801471 L150.057856,14.1801471 Z M153.156654,6.98529412 L155.305349,6.98529412 L159.562543,21.3235294 L159.628319,21.3235294 L163.710109,6.98529412 L166.00132,6.98529412 L170.064839,21.3235294 L170.130615,21.3235294 L174.3805,6.98529412 L176.540158,6.98529412 L171.186692,23.7242647 L168.961257,23.7242647 L164.86485,9.63970588 L164.806382,9.63970588 L160.735555,23.7242647 L158.510121,23.7242647 L153.156654,6.98529412 Z M191,5.95220588 C191,9.06489898 188.491919,11.5882353 185.398045,11.5882353 C182.30417,11.5882353 179.796089,9.06489898 179.796089,5.95220588 C179.796089,2.83951279 182.30417,0.316176471 185.398045,0.316176471 C188.491919,0.316176471 191,2.83951279 191,5.95220588 Z M180.669454,5.95220588 C180.669454,8.57961936 182.786516,10.7095588 185.398045,10.7095588 C188.009573,10.7095588 190.126636,8.57961936 190.126636,5.95220588 C190.126636,3.3247924 188.009573,1.19485294 185.398045,1.19485294 C182.786516,1.19485294 180.669454,3.3247924 180.669454,5.95220588 Z M184.173873,9.20955882 L183.377248,9.20955882 L183.377248,2.69485294 L185.862134,2.69485294 C187.323831,2.69485294 187.966978,3.33088235 187.966978,4.49632353 C187.966978,5.66176471 187.214204,6.16544118 186.34084,6.31617647 L188.27028,9.20955882 L187.334794,9.20955882 L185.507672,6.31617647 L184.173873,6.31617647 L184.173873,9.20955882 Z M185.229949,5.63235294 C186.205633,5.63235294 187.170353,5.60294118 187.170353,4.49632353 C187.170353,3.58823529 186.417579,3.39338235 185.635571,3.39338235 L184.173873,3.39338235 L184.173873,5.64705882 L185.229949,5.63235294 Z" id="Combined-Shape"></path>
            </g>
        </g>
    </g>
</svg>