<?xml version="1.0" encoding="UTF-8"?>
<svg width="263px" height="88px" viewBox="0 0 263 88" version="1.1" xmlns="http://www.w3.org/2000/svg" xmlns:xlink="http://www.w3.org/1999/xlink">
    <!-- Generator: Sketch 52.3 (67297) - http://www.bohemiancoding.com/sketch -->
    <title>logo_blanco</title>
    <desc>Created with Sketch.</desc>
    <g id="Page-1" stroke="none" stroke-width="1" fill="none" fill-rule="evenodd">
        <g id="logo_blanco" fill="#FFFFFF">
            <path d="M13.097111,35.282268 L23.784092,35.282268 C25.322983,35.282268 28.405495,35.282268 30.555199,33.577663 C31.502205,32.895809 33.969162,30.73664 33.969162,26.408813 C33.969162,22.227775 31.918888,20.253265 30.720924,19.49092 C28.66119,18.041999 26.184757,18.041999 21.989517,18.041999 L13.097111,18.041999 L13.097111,35.282268 Z M2.84217094e-13,8.3115 L23.703598,8.3115 C30.555199,8.221534 37.487297,8.221534 42.444885,12.497276 C45.883888,15.475879 47.848938,19.809009 47.823883,24.358543 C47.823883,35.883624 37.908714,38.611011 34.9067,39.472782 C44.234726,40.320354 44.921303,45.62833 46.038773,53.64001 C46.985779,60.894084 47.482964,63.881908 47.909111,65.591251 C48.600433,68.323367 49.111809,69.009952 49.803131,70.032726 L35.171867,70.032726 C34.575249,66.618755 32.690704,50.988391 31.857334,48.597202 C30.664108,45.102741 27.411137,45.102741 25.185665,45.102741 L13.518528,45.102741 L13.518528,70.032726 L2.84217094e-13,70.032726 L2.84217094e-13,8.3115 Z" id="Fill-5"></path>
            <path d="M50.49445,8.505626 C54.254078,5.295272 58.544026,3.600125 62.886051,3.600125 C67.228077,3.600125 71.499073,5.295272 75.287098,8.505626 C75.915058,9.040732 76.857655,8.966594 77.394215,8.339904 C77.652836,8.041726 77.780933,7.652217 77.74979,7.258737 C77.718632,6.865258 77.530811,6.50076 77.228474,6.247016 C72.919575,2.572621 67.96201,0.621787 62.895512,0.621787 C57.829014,0.621787 52.880909,2.572621 48.56255,6.247012 C48.260426,6.501378 48.073567,6.86675 48.044178,7.260583 C48.014774,7.65442 48.145313,8.043487 48.406315,8.339896 C48.662327,8.640281 49.027287,8.826541 49.42075,8.857631 C49.814213,8.888713 50.203892,8.76208 50.50391,8.505622" id="Fill-7"></path>
            <path d="M73.90923,11.431892 C70.594686,8.590865 66.806661,7.08039 62.886052,7.08039 C58.965444,7.08039 55.172673,8.586131 51.87235,11.431892 C51.372075,11.85971 51.312749,12.611862 51.739781,13.112823 C52.174489,13.605842 52.923711,13.66056 53.42545,13.235935 C56.294896,10.773719 59.581014,9.44791 62.895528,9.44791 C66.210042,9.44791 69.486699,10.754779 72.365605,13.235935 C72.867345,13.660564 73.616567,13.605842 74.051274,13.112823 C74.258702,12.873962 74.362325,12.562263 74.339223,12.246761 C74.316106,11.931259 74.168172,11.637988 73.928166,11.431896" id="Fill-9"></path>
            <path d="M70.187426,15.608102 C66.099459,11.725656 59.686739,11.725656 55.598772,15.608102 C55.343539,15.814481 55.221789,16.144029 55.281496,16.46679 C55.341189,16.789548 55.572817,17.053723 55.884997,17.15513 C56.197192,17.256532 56.539812,17.17891 56.777804,16.952855 C60.184801,13.656774 65.591952,13.656774 68.998949,16.952859 C69.37398,17.239156 69.906481,17.187078 70.218951,16.833531 C70.53142,16.479989 70.517657,15.945119 70.187426,15.608102" id="Fill-11"></path>
            <path d="M67.497989,19.107402 C64.94176,16.582458 60.830341,16.582458 58.274127,19.107402 C58.121646,19.246543 58.031269,19.440952 58.023151,19.647197 C58.014865,19.846443 58.086444,20.040763 58.222034,20.187 C58.356662,20.339344 58.546878,20.43119 58.749912,20.441864 C58.952945,20.452556 59.151737,20.381191 59.301624,20.24382 C60.249881,19.29047 61.539051,18.754463 62.883686,18.754463 C64.228321,18.754463 65.517475,19.290477 66.465732,20.24382 C66.616626,20.38425 66.81879,20.456199 67.024463,20.442684 C67.225971,20.437278 67.415531,20.345943 67.545337,20.19173 C67.685291,20.047618 67.760517,19.852714 67.753665,19.651935 C67.736362,19.447055 67.645526,19.255336 67.497989,19.11214" id="Fill-13"></path>
            <polygon id="Fill-15" points="56.63574 26.83972 69.3019673 26.83972 69.3019673 70.03274 56.63574 70.03274"></polygon>
            <path d="M97.11561,60.562626 C106.01275,60.562626 106.01275,50.14555 106.01275,48.25153 C106.01275,43.388645 105.06576,35.107067 97.38553,35.107067 C92.5842,35.107067 88.65413,38.776722 88.65413,47.991101 C88.65413,50.126599 88.65413,60.548428 97.11561,60.548428 L97.11561,60.562626 Z M118.84946,27.095379 C118.4555,30.639317 118.2579,34.202351 118.25757,37.768131 L118.25757,69.616024 C118.25757,85.497326 104.99945,87.031491 96.68474,87.031491 C90.52919,87.031491 78.45956,86.264401 77.68303,73.195713 L89.83786,73.195713 C90.01779,74.478901 90.60493,79.180798 97.37605,79.180798 C101.13093,79.180798 104.38864,77.381466 105.24093,73.546108 C105.75706,71.401142 105.75706,69.876446 105.8423,63.299488 C101.82225,68.597988 97.28607,69.185139 94.20357,69.185139 C81.79303,69.185139 75.97368,58.436596 75.97368,48.014775 C75.97368,37.091046 82.04873,26.678692 94.464,26.678692 C102.34311,26.678692 105.24093,30.94022 106.5336,32.83424 L106.95503,27.114315 L118.84946,27.095379 Z" id="Fill-17"></path>
            <polygon id="Fill-19" points="126.60071 8.3115279 145.77762 8.3115279 168.96512 56.88828 168.96512 8.3115279 181.29989 8.3115279 181.29989 70.032742 163.06524 70.032742 139.09646 18.809109 139.09646 70.032742 126.60071 70.032742"></polygon>
            <path d="M214.69614,43.739003 C214.69614,41.769231 214.5257,34.09847 207.16745,34.09847 C201.59903,34.09847 199.29309,38.700925 199.02316,43.739003 L214.69614,43.739003 Z M199.75714,51.674931 C199.75714,54.492276 199.75714,63.200009 208.56903,63.200009 C211.72729,63.200009 214.89978,62.011517 216.09775,57.219647 L227.65597,57.219647 C227.47778,60.749478 226.01221,64.091641 223.53647,66.613973 C220.38293,69.928494 214.72928,71.652051 208.38434,71.652051 C204.70523,71.652051 197.69266,70.970204 193.15176,66.277783 C189.21219,62.177228 187.5928,56.372083 187.5928,49.454182 C187.5928,42.455808 189.30215,34.098462 196.58935,29.050916 C200.19354,26.679654 204.42062,25.432103 208.73477,25.466489 C214.89032,25.466489 222.26279,27.862416 226.19284,35.883565 C229.10489,41.773961 228.93442,48.095235 228.76398,51.679662 L199.75714,51.674931 Z" id="Fill-21"></path>
            <path d="M262.06067,69.436089 C258.85303,70.302583 255.54846,70.759209 252.22601,70.795037 C239.46509,70.795037 239.46509,62.773888 239.46509,59.184731 L239.46509,35.523743 L231.16461,35.523743 L231.16461,27.180611 L239.46509,27.180611 L239.46509,18.733304 L252.05084,14.111909 L252.05084,27.180611 L262.32117,27.180611 L262.32117,35.523743 L252.05084,35.523743 L252.05084,54.998963 C252.13599,58.919579 252.13599,61.395997 257.78967,61.395997 C259.21429,61.406152 260.638,61.320725 262.05127,61.140305 L262.06067,69.436089 Z" id="Fill-23"></path>
        </g>
    </g>
</svg>