<?xml version="1.0" encoding="UTF-8"?>
<svg width="101px" height="34px" viewBox="0 0 101 34" version="1.1" xmlns="http://www.w3.org/2000/svg" xmlns:xlink="http://www.w3.org/1999/xlink">
    <!-- Generator: Sketch 52.3 (67297) - http://www.bohemiancoding.com/sketch -->
    <title>RigNet_logo</title>
    <desc>Created with Sketch.</desc>
    <g id="WEB-CentricView-3.0---VSAT-WebApp-Version" stroke="none" stroke-width="1" fill="none" fill-rule="evenodd">
        <g id="RigNet-logo">
            <path d="M5.561039,14.09039 L9.633773,14.09039 C10.220234,14.09039 11.394958,14.09039 12.214195,13.440769 C12.575092,13.180928 13.515235,12.358078 13.515235,10.708775 C13.515235,9.11541 12.733886,8.362938 12.277351,8.072415 C11.492397,7.520241 10.548648,7.520241 8.949874,7.520241 L5.561039,7.520241 L5.561039,14.09039 Z M0.56982,3.812012 L9.603099,3.812012 C12.214191,3.777725 14.855968,3.777725 16.745269,5.407181 C18.055851,6.542309 18.804718,8.193634 18.795173,9.927429 C18.795173,14.319557 15.016567,15.358944 13.87252,15.687363 C17.427368,16.010365 17.689018,18.0332 18.114875,21.086399 C18.475772,23.850872 18.665245,24.98951 18.827648,25.640927 C19.091106,26.682122 19.285987,26.943775 19.549446,27.333542 L13.973571,27.333542 C13.746208,26.032505 13.028019,20.075882 12.710426,19.164616 C12.255699,17.832905 11.016014,17.832905 10.167903,17.832905 L5.721637,17.832905 L5.721637,27.333542 L0.56982,27.333542 L0.56982,3.812012 Z" id="Fill-525" fill="#636569"></path>
            <path d="M19.812837,3.8859942 C21.245607,2.6625522 22.880464,2.0165422 24.535188,2.0165422 C26.189897,2.0165422 27.817567,2.6625522 29.261156,3.8859942 C29.500459,4.0899222 29.859682,4.0616682 30.06415,3.8228382 C30.162706,3.7092072 30.211534,3.5607662 30.199648,3.4108162 C30.187776,3.2608642 30.116213,3.1219542 30.000978,3.0252552 C28.358888,1.6249672 26.469591,0.8815192 24.538789,0.8815192 C22.607973,0.8815192 20.722307,1.6249672 19.076601,3.0252532 C18.961458,3.1221902 18.89026,3.2614312 18.879045,3.4115162 C18.86786,3.5616072 18.917604,3.7098792 19.017061,3.8228362 C19.11461,3.9373132 19.253709,4.0082952 19.403658,4.0201432 C19.553606,4.0319882 19.702104,3.9837262 19.816438,3.8859942" id="Fill-526" fill="#636569"></path>
            <path d="M28.736011,5.001171 C27.472889,3.918472 26.029285,3.342842 24.53516,3.342842 C23.04105,3.342842 21.595646,3.916668 20.337925,5.001171 C20.147266,5.164211 20.124653,5.450848 20.287388,5.641762 C20.453052,5.829647 20.73859,5.850502 20.929798,5.688675 C22.023319,4.750344 23.275623,4.245087 24.538776,4.245087 C25.801929,4.245087 27.050632,4.743126 28.147755,5.688679 C28.338947,5.850502 28.624485,5.829647 28.79015,5.641762 C28.869221,5.550732 28.908695,5.43195 28.899891,5.311711 C28.891086,5.191475 28.834705,5.079708 28.743244,5.001171" id="Fill-527" fill="#636569"></path>
            <path d="M27.317662,6.592758 C25.759754,5.113186 23.315907,5.113186 21.75803,6.592758 C21.66074,6.671406 21.614338,6.796997 21.63712,6.919994 C21.659855,7.042999 21.748127,7.143673 21.8671,7.18232 C21.986073,7.220963 22.116658,7.19138 22.20734,7.105232 C23.505726,5.849117 25.566349,5.849117 26.864735,7.105232 C27.007649,7.214344 27.210591,7.194492 27.32967,7.059761 C27.44875,6.925026 27.443501,6.721191 27.317662,6.592758" id="Fill-528" fill="#636569"></path>
            <path d="M26.292743,7.926277 C25.318577,6.964038 23.751758,6.964038 22.777607,7.926277 C22.719501,7.979301 22.685047,8.05339 22.681965,8.131988 C22.678806,8.207923 22.706074,8.281971 22.757755,8.337699 C22.809055,8.395759 22.88155,8.430759 22.958927,8.434829 C23.036289,8.438903 23.112064,8.411708 23.169178,8.359356 C23.530552,7.996044 24.021839,7.791771 24.534275,7.791771 C25.046711,7.791771 25.537998,7.996044 25.899372,8.359356 C25.956882,8.412872 26.033909,8.440292 26.112308,8.435142 C26.189091,8.433082 26.261326,8.398277 26.310795,8.339508 C26.364124,8.284584 26.392795,8.210311 26.390186,8.133792 C26.383579,8.055717 26.348987,7.982654 26.292743,7.928081" id="Fill-529" fill="#636569"></path>
            <polygon id="Fill-530" fill="#636569" points="22.15332 10.872986 26.9803311 10.872986 26.9803311 27.3335458 22.15332 27.3335458"></polygon>
            <path d="M37.58005,23.724556 C40.97067,23.724556 40.97067,19.754684 40.97067,19.03289 C40.97067,17.179672 40.60979,14.02362 37.68289,14.02362 C35.85314,14.02362 34.35542,15.422096 34.35542,18.933639 C34.35542,19.747467 34.35542,23.719147 37.58005,23.719147 L37.58005,23.724556 Z M45.86264,10.970428 C45.71253,12.320991 45.63721,13.67884 45.63709,15.037735 L45.63709,27.174751 C45.63709,33.227012 40.58452,33.811661 37.41583,33.811661 C35.06998,33.811661 30.47035,33.519333 30.17441,28.538948 L34.80654,28.538948 C34.87511,29.027954 35.09885,30.819816 37.67929,30.819816 C39.11025,30.819816 40.35175,30.134109 40.67655,28.67247 C40.87323,27.855041 40.87323,27.273994 40.9057,24.767555 C39.3737,26.786773 37.64499,27.010528 36.47028,27.010528 C31.74071,27.010528 29.52298,22.914337 29.52298,18.942657 C29.52298,14.779709 31.83815,10.81163 36.56954,10.81163 C39.57221,10.81163 40.67655,12.435669 41.16916,13.157463 L41.32977,10.977646 L45.86264,10.970428 Z" id="Fill-531" fill="#636569"></path>
            <polygon id="Fill-532" fill="#EF7622" points="48.81653 3.81202128 56.12472 3.81202128 64.96133 22.3242875 64.96133 3.81202128 69.66198 3.81202128 69.66198 27.3335495 62.71292 27.3335495 53.57861 7.81257448 53.57861 27.3335495 48.81653 27.3335495"></polygon>
            <path d="M82.38904,17.313247 C82.38904,16.562576 82.3241,13.639312 79.51993,13.639312 C77.39786,13.639312 76.51908,15.393272 76.4162,17.313247 L82.38904,17.313247 Z M76.69593,20.337577 C76.69593,21.411247 76.69593,24.729705 80.05405,24.729705 C81.25766,24.729705 82.46665,24.276771 82.92322,22.45063 L87.32798,22.45063 C87.26004,23.795822 86.70154,25.069496 85.75803,26.030738 C84.55628,27.293876 82.40171,27.950714 79.98368,27.950714 C78.58161,27.950714 75.90915,27.690872 74.17865,25.902618 C72.67731,24.339935 72.06018,22.127624 72.06018,19.491272 C72.06018,16.824234 72.71161,13.639312 75.48868,11.715721 C76.86222,10.812049 78.47315,10.336616 80.11719,10.349716 C82.46305,10.349716 85.27265,11.262794 86.77039,14.319603 C87.88016,16.564384 87.81516,18.973373 87.75022,20.339386 L76.69593,20.337577 Z" id="Fill-533" fill="#EF7622"></path>
            <path d="M100.43939,27.106156 C99.21692,27.436371 97.95758,27.610382 96.69135,27.624047 C91.82837,27.624047 91.82837,24.567238 91.82837,23.199433 L91.82837,14.182396 L88.6651,14.182396 L88.6651,11.002884 L91.82837,11.002884 L91.82837,7.783669 L96.6247,6.022492 L96.6247,11.002884 L100.53864,11.002884 L100.53864,14.182396 L96.6247,14.182396 L96.6247,21.604271 C96.65717,23.098381 96.65717,24.04213 98.81171,24.04213 C99.35462,24.045998 99.89722,24.013451 100.43573,23.944695 L100.43939,27.106156 Z" id="Fill-534" fill="#EF7622"></path>
        </g>
    </g>
</svg>