<?xml version="1.0" encoding="UTF-8"?>
<svg width="18px" height="18px" viewBox="0 0 18 18" version="1.1" xmlns="http://www.w3.org/2000/svg" xmlns:xlink="http://www.w3.org/1999/xlink">
    <!-- Generator: Sketch 55 (78076) - https://sketchapp.com -->
    <title>sin_alarms-gray</title>
    <desc>Created with Sketch.</desc>
    <g id="WEB-CentricView-3.0---VSAT-WebApp-Version" stroke="none" stroke-width="1" fill="none" fill-rule="evenodd">
        <g id="sin_alarms-gray" fill="#636569">
            <path d="M7.64646396,12.9016851 L7.62239085,12.9257582 L3.83273424,9.1361016 L4.9696357,7.99920014 L7.66716202,10.6967265 L13.2702542,5.093654 L14.4071517,6.2305494 L7.69122815,12.9464492 L7.64646396,12.9016851 Z M9.00000015,1.44 C4.83140089,1.44 1.44,4.83140096 1.44,9.00000015 C1.44,13.168599 4.83140089,16.56 9.00000015,16.56 C13.168599,16.56 16.56,13.168599 16.56,9.00000015 C16.56,4.83140096 13.168599,1.44 9.00000015,1.44 Z M9,0 C13.970565,0 18,4.02943468 18,9 C18,13.970565 13.970565,18 9,18 C4.0294347,18 0,13.970565 0,9 C0,4.02943468 4.0294347,0 9,0 Z" id="Combined-Shape"></path>
        </g>
    </g>
</svg>