<?xml version="1.0" encoding="UTF-8"?>
<svg width="26px" height="28px" viewBox="0 0 26 28" version="1.1" xmlns="http://www.w3.org/2000/svg" xmlns:xlink="http://www.w3.org/1999/xlink">
    <!-- Generator: Sketch 52.3 (67297) - http://www.bohemiancoding.com/sketch -->
    <title>sitio-barco-gris</title>
    <desc>Created with Sketch.</desc>
    <g id="WEB-CentricView-3.0---VSAT-WebApp-Version" stroke="none" stroke-width="1" fill="none" fill-rule="evenodd">
        <g id="icono-barcogris" transform="translate(-1.000000, 0.000000)">
            <g id="Group-2-Copy-3" transform="translate(2.000000, 1.000000)">
                <path d="M9.0071465,23.6237846 C3.82783912,22.2941433 0,17.5940915 0,12 C0,5.372583 5.372583,0 12,0 C18.627417,0 24,5.372583 24,12 C24,17.5940915 20.1721609,22.2941433 14.9928535,23.6237846 L12,27 L9.0071465,23.6237846 Z" id="Combined-Shape" stroke="#989898" fill="#F2F2F2"></path>
                <g id="barco-flatgray" transform="translate(5.000000, 4.000000)" fill="#989898">
                    <path d="M13.2170432,9.42935231 L7,7.37725393 L0.782786434,9.42883715 L-3.79252185e-13,7.06155966 L7.00783468,4.76823246 L14,7.06155966 L13.2170432,9.42935231 Z M12.8934661,10.4079037 L11.375,15 L2.625,15 L1.10653387,10.4079037 L7,8.57865798 L12.8934661,10.4079037 Z M5.95,4.36317649e-14 L8.05,4.36317649e-14 L8.05,0.902937292 L5.95,0.902937292 L5.95,4.36317649e-14 Z M3.85288391,1.81384231 L10.1525635,1.81384231 L10.54375,4.82246684 L7,3.66477224 L3.28765869,4.82246684 L3.85288391,1.81384231 Z" id="Combined-Shape"></path>
                </g>
            </g>
        </g>
    </g>
</svg>