<?xml version="1.0" encoding="UTF-8"?>
<svg width="26px" height="28px" viewBox="0 0 26 28" version="1.1" xmlns="http://www.w3.org/2000/svg" xmlns:xlink="http://www.w3.org/1999/xlink">
    <!-- Generator: Sketch 52.3 (67297) - http://www.bohemiancoding.com/sketch -->
    <title>sitio-camion-gris</title>
    <desc>Created with Sketch.</desc>
    <g id="WEB-CentricView-3.0---VSAT-WebApp-Version" stroke="none" stroke-width="1" fill="none" fill-rule="evenodd">
        <g id="icono-camiongris" transform="translate(-1.000000, 0.000000)">
            <g id="Group-2-Copy-15" transform="translate(2.000000, 1.000000)">
                <path d="M9.0071465,23.6237846 C3.82783912,22.2941433 0,17.5940915 0,12 C0,5.372583 5.372583,0 12,0 C18.627417,0 24,5.372583 24,12 C24,17.5940915 20.1721609,22.2941433 14.9928535,23.6237846 L12,27 L9.0071465,23.6237846 Z" id="Combined-Shape" stroke="#989898" fill="#F2F2F2"></path>
                <g id="truck-flatgray" transform="translate(6.000000, 5.000000)" fill="#989898" fill-rule="nonzero">
                    <path d="M11.4274786,8.45459708 L11.4274786,10.9912862 L12,11.2034295 L12,12.376041 L10.875,12.5881612 L10.875,13.5744425 L8.90624423,13.5744425 L8.90624423,12.5881612 L3.09375577,12.5881612 L3.09375577,13.5744425 L1.12497694,13.5744425 L1.12497694,12.5881612 L0,12.376041 L0,11.2034064 L0.57245218,10.9912862 L0.57245218,8.45459708 L1.64059905,7.96193574 L1.64059905,5.32907052e-15 L3,0.394047623 L3,2.20113666 L3.60391937,0.985760274 L8.50781106,0.985760274 L9,2.20113666 L9,0.394047623 L10.3593087,2.3109289e-05 L10.3593087,7.96193574 L11.4274786,8.45459708 Z M2.88202688,3.38269149 L2.88202688,5.47269558 L9.11792699,5.47269558 L9.11792699,3.38269149 L2.88202688,3.38269149 Z M3.11527194,10.4310615 L3.11524887,9.4281617 L1.67017173,9.4281617 L1.67017173,10.4310615 L3.11527194,10.4310615 Z M10.3665931,10.3173556 L10.36657,9.31445586 L8.92149287,9.31445586 L8.92149287,10.3173556 L10.3665931,10.3173556 Z M4.13740851,10.6644405 L7.8625223,10.6644405 L7.8625223,7.84485973 L4.13740851,7.84485973 L4.13740851,10.6644405 Z" id="Shape"></path>
                </g>
            </g>
        </g>
    </g>
</svg>