<?xml version="1.0" encoding="UTF-8"?>
<svg width="26px" height="28px" viewBox="0 0 26 28" version="1.1" xmlns="http://www.w3.org/2000/svg" xmlns:xlink="http://www.w3.org/1999/xlink">
    <!-- Generator: Sketch 52.3 (67297) - http://www.bohemiancoding.com/sketch -->
    <title>sitio-antena-rojo</title>
    <desc>Created with Sketch.</desc>
    <g id="WEB-CentricView-3.0---VSAT-WebApp-Version" stroke="none" stroke-width="1" fill="none" fill-rule="evenodd">
        <g id="icono-antenarojo" transform="translate(-1.000000, 0.000000)">
            <g id="Group-2-Copy-4" stroke-width="1" fill-rule="evenodd" transform="translate(2.000000, 1.000000)" fill="#F2F2F2" stroke="#D91010">
                <path d="M9.0071465,23.6237846 C3.82783912,22.2941433 0,17.5940915 0,12 C0,5.372583 5.372583,0 12,0 C18.627417,0 24,5.372583 24,12 C24,17.5940915 20.1721609,22.2941433 14.9928535,23.6237846 L12,27 L9.0071465,23.6237846 Z" id="Combined-Shape"></path>
            </g>
            <g id="antena-flatroja" transform="translate(5.000000, 6.000000)">
                <path d="M9.91666667,7.89285714 C10.6990701,7.89285714 11.3333333,7.26925376 11.3333333,6.5 C11.3333333,5.73074624 10.6990701,5.10714286 9.91666667,5.10714286 C9.13426327,5.10714286 8.5,5.73074624 8.5,6.5 C8.5,7.26925376 9.13426327,7.89285714 9.91666667,7.89285714 Z" id="Oval" stroke="#D91010" stroke-width="1.3"></path>
                <path d="M8.07802921,6.5 L7.52242449,6.5" id="Line" stroke="#D91010" stroke-width="1.3" stroke-linecap="square"></path>
                <path d="M5.66666667,0.928571429 L5.66666667,12.0714286 C2.53705308,12.0714286 0,9.57701503 0,6.5 C0,3.42298497 2.53705308,0.928571429 5.66666667,0.928571429 Z" id="Combined-Shape" fill="#D91010" fill-rule="evenodd"></path>
                <path d="M12.2777778,2.90163863 C13.2222222,3.9722585 13.6944444,5.17397369 13.6944444,6.50678419 C13.6944444,7.83959469 13.2222222,9.04130988 12.2777778,10.1119298" id="Line-2" stroke="#D91010" stroke-width="1.3" stroke-linecap="square"></path>
                <path d="M14.1666667,1.09828348 C15.5789524,2.42288625 16.2850952,4.17685451 16.2850952,6.36018824 C16.2850952,8.54352197 15.5789524,10.4854303 14.1666667,12.1859131" id="Line-2-Copy" stroke="#D91010" stroke-width="1.3" stroke-linecap="square"></path>
            </g>
        </g>
    </g>
</svg>