<?xml version="1.0" encoding="UTF-8"?>
<svg width="18px" height="19px" viewBox="0 0 18 19" version="1.1" xmlns="http://www.w3.org/2000/svg" xmlns:xlink="http://www.w3.org/1999/xlink">
    <!-- Generator: Sketch 55 (78076) - https://sketchapp.com -->
    <title>start</title>
    <desc>Created with Sketch.</desc>
    <g id="WEB-CentricView-3.0---VSAT-WebApp-Version" stroke="none" stroke-width="1" fill="none" fill-rule="evenodd">
        <g id="start" transform="translate(0.000000, 0.166234)" fill="#636569">
            <path d="M9.74443359,7.31033913 L12.013836,5.04093669 C12.3125871,4.7421856 12.7969583,4.7421856 13.0957094,5.04093669 C13.3944605,5.33968777 13.3944605,5.82405898 13.0957094,6.12281006 L9.72281006,9.49570941 C9.67537767,9.5431418 9.62326625,9.5830434 9.56796156,9.61541421 C9.42763686,9.78419482 9.21608402,9.89165039 8.97943359,9.89165039 C8.55693576,9.89165039 8.21443359,9.54914822 8.21443359,9.12665039 L8.21443359,5.265 C8.21443359,4.84250217 8.55693576,4.5 8.97943359,4.5 C9.40193143,4.5 9.74443359,4.84250217 9.74443359,5.265 L9.74443359,7.31033913 Z M9.00000015,1.44 C4.83140089,1.44 1.44,4.83140096 1.44,9.00000015 C1.44,13.168599 4.83140089,16.56 9.00000015,16.56 C13.168599,16.56 16.56,13.168599 16.56,9.00000015 C16.56,4.83140096 13.168599,1.44 9.00000015,1.44 Z M9,0 C13.970565,0 18,4.02943468 18,9 C18,13.970565 13.970565,18 9,18 C4.0294347,18 0,13.970565 0,9 C0,4.02943468 4.0294347,0 9,0 Z" id="Combined-Shape"></path>
        </g>
    </g>
</svg>